# MagicaVoxel @ Ephtracy

# group
o 

# material
mtllib astroid_3.mtl
usemtl palette

# normals
vn -1 0 0
vn 1 0 0
vn 0 0 1
vn 0 0 -1
vn 0 -1 0
vn 0 1 0

# texcoords
vt 0.857422 0.5
vt 0.990234 0.5

# verts
v 0.2 0.9 -0.7
v 0.2 0.9 -0.9
v 0.2 1 -0.7
v 0.2 1 -0.9
v 0.2 1.1 -0.7
v 0.2 1.1 -0.9
v 0.3 0.9 -0.9
v 0.3 0.9 -1.2
v 0.3 1 -0.9
v 0.3 1 -1.1
v 0.3 1.1 -0.8
v 0.3 1.1 -0.9
v 0.3 1.1 -1
v 0.3 1.2 -0.8
v 0.3 1.2 -1
v 0.3 1.2 -1.1
v 0.3 1.2 -1.2
v 0.4 0.8 -0.9
v 0.4 0.8 -1.1
v 0.4 0.9 -0.9
v 0.4 0.9 -1.1
v 0.4 1.3 -0.6
v 0.4 1.3 -0.8
v 0.4 1.6 -0.6
v 0.4 1.6 -0.8
v 0.5 1 -1
v 0.5 1 -1.1
v 0.5 1.1 -0.4
v 0.5 1.1 -0.8
v 0.5 1.1 -1
v 0.5 1.1 -1.1
v 0.5 1.2 -0.5
v 0.5 1.2 -0.7
v 0.5 1.2 -0.8
v 0.5 1.2 -1
v 0.5 1.3 -0.4
v 0.5 1.3 -0.5
v 0.5 1.3 -0.6
v 0.5 1.3 -0.7
v 0.5 1.3 -0.8
v 0.5 1.3 -1
v 0.5 1.5 -0.4
v 0.5 1.5 -0.5
v 0.5 1.5 -0.6
v 0.5 1.5 -0.8
v 0.5 1.5 -1
v 0.6 0.9 -0.1
v 0.6 0.9 -0.7
v 0.6 1 -0.1
v 0.6 1 -0.2
v 0.6 1 -0.3
v 0.6 1 -0.7
v 0.6 1 -0.8
v 0.6 1 -0.9
v 0.6 1 -1
v 0.6 1 -1.2
v 0.6 1 -1.4
v 0.6 1.1 -0.1
v 0.6 1.1 -0.2
v 0.6 1.1 -0.3
v 0.6 1.1 -0.4
v 0.6 1.1 -0.8
v 0.6 1.1 -0.9
v 0.6 1.1 -1
v 0.6 1.2 -1
v 0.6 1.2 -1.1
v 0.6 1.2 -1.2
v 0.6 1.3 -0.4
v 0.6 1.3 -1
v 0.6 1.3 -1.4
v 0.6 1.4 -0.1
v 0.6 1.4 -0.4
v 0.8 1.5 -0.4
v 0.8 1.5 -0.5
v 0.8 1.5 -0.6
v 0.8 1.6 -0.4
v 0.8 1.6 -0.5
v 0.8 1.6 -0.6
v 0.9 0.8 -0.3
v 0.9 0.8 -0.4
v 0.9 0.8 -0.5
v 0.9 0.9 -0.3
v 0.9 0.9 -0.4
v 0.9 0.9 -0.5
v 0.9 1 -1.4
v 0.9 1 -1.5
v 0.9 1.1 -1.4
v 0.9 1.1 -1.5
v 0.9 1.2 -1.4
v 0.9 1.2 -1.5
v 1 1.1 0
v 1 1.1 -0.1
v 1 1.3 0
v 1 1.3 -0.1
v 1.4 0.9 -0.7
v 1.4 0.9 -0.9
v 1.4 0.9 -1
v 1.4 1 -0.9
v 1.4 1 -1
v 1.4 1.2 -0.7
v 1.4 1.2 -1
v 0.4 0.9 -0.7
v 0.4 0.9 -0.8
v 0.4 1 -0.7
v 0.4 1 -0.8
v 0.4 1 -1
v 0.4 1 -1.1
v 0.4 1.1 -0.7
v 0.4 1.1 -0.8
v 0.4 1.1 -1
v 0.4 1.1 -1.1
v 0.5 1 -0.9
v 0.5 1 -1
v 0.5 1.1 -0.9
v 0.5 1.1 -1
v 0.6 0.8 -0.9
v 0.6 0.8 -1.1
v 0.6 0.9 -0.9
v 0.6 0.9 -1.1
v 0.6 1.5 -0.6
v 0.6 1.5 -0.8
v 0.6 1.6 -0.6
v 0.6 1.6 -0.8
v 0.8 0.9 -0.8
v 0.8 0.9 -1
v 0.8 0.9 -1.2
v 0.8 1 -0.8
v 0.8 1 -1
v 0.8 1 -1.1
v 0.8 1 -1.2
v 1 1 -0.7
v 1 1 -1.1
v 1 1 -1.3
v 1 1.1 -0.7
v 1 1.1 -1
v 1 1.1 -1.1
v 1 1.2 -1.3
v 1 1.2 -1.4
v 1 1.3 -1
v 1 1.3 -1.4
v 1 1.5 -0.4
v 1 1.5 -0.5
v 1 1.5 -0.6
v 1 1.6 -0.4
v 1 1.6 -0.5
v 1 1.6 -0.6
v 1.1 0.8 -0.3
v 1.1 0.8 -0.4
v 1.1 0.8 -0.5
v 1.1 0.9 -0.3
v 1.1 0.9 -0.4
v 1.1 0.9 -0.5
v 1.1 1 -1.3
v 1.1 1 -1.5
v 1.1 1.2 -1.3
v 1.1 1.2 -1.5
v 1.2 1.1 0
v 1.2 1.1 -0.1
v 1.2 1.1 -0.7
v 1.2 1.1 -1
v 1.2 1.2 0
v 1.2 1.2 -0.1
v 1.2 1.3 0
v 1.2 1.3 -0.1
v 1.2 1.4 -0.4
v 1.2 1.4 -0.7
v 1.2 1.5 -0.4
v 1.2 1.5 -1
v 1.5 0.9 -0.1
v 1.5 0.9 -0.3
v 1.5 0.9 -0.4
v 1.5 0.9 -0.5
v 1.5 1 -0.5
v 1.5 1.2 -0.5
v 1.5 1.2 -0.6
v 1.5 1.2 -0.7
v 1.5 1.4 -0.1
v 1.5 1.4 -0.3
v 1.5 1.4 -0.4
v 1.5 1.4 -0.7
v 1.6 0.9 -0.5
v 1.6 0.9 -1
v 1.6 1 -0.5
v 1.6 1 -1
v 1.6 1.1 -0.6
v 1.6 1.1 -0.8
v 1.6 1.2 -0.5
v 1.6 1.2 -0.6
v 1.6 1.2 -0.8
v 1.6 1.2 -1
v 1 1.1 0
v 1 1.3 0
v 1.1 1.2 0
v 1.1 1.3 0
v 1.2 1.1 0
v 1.2 1.2 0
v 1.2 1.3 0
v 0.6 0.9 -0.1
v 0.6 1 -0.1
v 0.6 1.1 -0.1
v 0.6 1.4 -0.1
v 0.8 1.1 -0.1
v 0.8 1.3 -0.1
v 0.9 1.1 -0.1
v 0.9 1.3 -0.1
v 1 1.1 -0.1
v 1 1.3 -0.1
v 1.1 1.3 -0.1
v 1.1 1.4 -0.1
v 1.2 1.1 -0.1
v 1.2 1.2 -0.1
v 1.2 1.3 -0.1
v 1.2 1.4 -0.1
v 1.4 1 -0.1
v 1.4 1.1 -0.1
v 1.5 0.9 -0.1
v 1.5 1.4 -0.1
v 0.9 0.8 -0.3
v 0.9 0.9 -0.3
v 1.1 0.8 -0.3
v 1.1 0.9 -0.3
v 0.5 1.1 -0.4
v 0.5 1.3 -0.4
v 0.5 1.5 -0.4
v 0.6 1.1 -0.4
v 0.6 1.3 -0.4
v 0.6 1.4 -0.4
v 0.6 1.5 -0.4
v 0.8 1.4 -0.4
v 0.8 1.5 -0.4
v 0.8 1.6 -0.4
v 0.9 1.4 -0.4
v 0.9 1.5 -0.4
v 1 1.4 -0.4
v 1 1.5 -0.4
v 1 1.6 -0.4
v 1.1 1.4 -0.4
v 1.1 1.5 -0.4
v 1.2 1.4 -0.4
v 1.2 1.5 -0.4
v 1.5 0.9 -0.5
v 1.5 1 -0.5
v 1.5 1.2 -0.5
v 1.6 0.9 -0.5
v 1.6 1 -0.5
v 1.6 1.2 -0.5
v 0.4 1.3 -0.6
v 0.4 1.6 -0.6
v 0.5 1.3 -0.6
v 0.5 1.5 -0.6
v 0.6 1.5 -0.6
v 0.6 1.6 -0.6
v 0.2 0.9 -0.7
v 0.2 1 -0.7
v 0.2 1.1 -0.7
v 0.4 0.9 -0.7
v 0.4 1 -0.7
v 0.4 1.1 -0.7
v 0.3 1.1 -0.8
v 0.3 1.2 -0.8
v 0.4 0.9 -0.8
v 0.4 1 -0.8
v 0.4 1.1 -0.8
v 0.5 1.1 -0.8
v 0.5 1.2 -0.8
v 0.6 1 -0.8
v 0.6 1.1 -0.8
v 0.7 1 -0.8
v 0.8 0.9 -0.8
v 0.8 1 -0.8
v 0.4 0.8 -0.9
v 0.4 0.9 -0.9
v 0.6 0.8 -0.9
v 0.6 0.9 -0.9
v 0.5 1 -1
v 0.5 1.1 -1
v 0.6 1 -1
v 0.6 1.1 -1
v 0.4 1 -1.1
v 0.4 1.1 -1.1
v 0.5 1 -1.1
v 0.5 1.1 -1.1
v 1 1 -1.3
v 1 1.2 -1.3
v 1.1 1 -1.3
v 1.1 1.2 -1.3
v 0.9 0.8 -0.5
v 0.9 0.9 -0.5
v 1.1 0.8 -0.5
v 1.1 0.9 -0.5
v 0.8 1.5 -0.6
v 0.8 1.6 -0.6
v 1 1.5 -0.6
v 1 1.6 -0.6
v 0.6 0.9 -0.7
v 0.6 1 -0.7
v 0.7 0.9 -0.7
v 0.7 1 -0.7
v 0.8 0.9 -0.7
v 0.8 1 -0.7
v 0.9 1 -0.7
v 1 1 -0.7
v 1 1.1 -0.7
v 1.2 1.1 -0.7
v 1.2 1.4 -0.7
v 1.3 0.9 -0.7
v 1.3 1.4 -0.7
v 1.4 0.9 -0.7
v 1.4 1.2 -0.7
v 1.4 1.4 -0.7
v 1.5 1.2 -0.7
v 1.5 1.4 -0.7
v 0.4 1.3 -0.8
v 0.4 1.6 -0.8
v 0.5 1.3 -0.8
v 0.5 1.5 -0.8
v 0.6 1.5 -0.8
v 0.6 1.6 -0.8
v 0.2 0.9 -0.9
v 0.2 1 -0.9
v 0.2 1.1 -0.9
v 0.3 0.9 -0.9
v 0.3 1 -0.9
v 0.3 1.1 -0.9
v 0.5 1 -0.9
v 0.5 1.1 -0.9
v 0.6 1 -0.9
v 0.6 1.1 -0.9
v 0.4 1 -1
v 0.4 1.1 -1
v 0.5 1 -1
v 0.5 1.1 -1
v 0.5 1.2 -1
v 0.5 1.3 -1
v 0.5 1.5 -1
v 0.6 1.2 -1
v 0.6 1.3 -1
v 1 1.1 -1
v 1 1.3 -1
v 1.2 1.1 -1
v 1.2 1.5 -1
v 1.4 0.9 -1
v 1.4 1 -1
v 1.4 1.2 -1
v 1.6 0.9 -1
v 1.6 1 -1
v 1.6 1.2 -1
v 0.4 0.8 -1.1
v 0.4 0.9 -1.1
v 0.6 0.8 -1.1
v 0.6 0.9 -1.1
v 0.3 0.9 -1.2
v 0.3 1.2 -1.2
v 0.6 1 -1.2
v 0.6 1.2 -1.2
v 0.7 0.9 -1.2
v 0.7 1 -1.2
v 0.8 0.9 -1.2
v 0.8 1 -1.2
v 0.6 1 -1.4
v 0.6 1.3 -1.4
v 0.7 1 -1.4
v 0.7 1.2 -1.4
v 0.8 1 -1.4
v 0.8 1.2 -1.4
v 0.9 1 -1.4
v 0.9 1.1 -1.4
v 0.9 1.2 -1.4
v 1 1.2 -1.4
v 1 1.3 -1.4
v 0.9 1 -1.5
v 0.9 1.1 -1.5
v 0.9 1.2 -1.5
v 1 1 -1.5
v 1 1.1 -1.5
v 1.1 1 -1.5
v 1.1 1.2 -1.5
v 0.9 0.8 -0.3
v 1.1 0.8 -0.3
v 0.9 0.8 -0.4
v 1.1 0.8 -0.4
v 0.9 0.8 -0.5
v 1.1 0.8 -0.5
v 0.4 0.8 -0.9
v 0.6 0.8 -0.9
v 0.4 0.8 -1.1
v 0.6 0.8 -1.1
v 0.6 0.9 -0.1
v 1.5 0.9 -0.1
v 0.8 0.9 -0.2
v 0.9 0.9 -0.2
v 0.7 0.9 -0.3
v 0.8 0.9 -0.3
v 0.9 0.9 -0.3
v 1.1 0.9 -0.3
v 1.2 0.9 -0.3
v 1.3 0.9 -0.3
v 1.5 0.9 -0.3
v 0.8 0.9 -0.4
v 0.9 0.9 -0.4
v 1.1 0.9 -0.4
v 1.2 0.9 -0.4
v 1.4 0.9 -0.4
v 1.5 0.9 -0.4
v 0.8 0.9 -0.5
v 0.9 0.9 -0.5
v 1.1 0.9 -0.5
v 1.5 0.9 -0.5
v 1.6 0.9 -0.5
v 0.8 0.9 -0.6
v 1.1 0.9 -0.6
v 0.2 0.9 -0.7
v 0.4 0.9 -0.7
v 0.6 0.9 -0.7
v 0.7 0.9 -0.7
v 0.8 0.9 -0.7
v 1.3 0.9 -0.7
v 1.4 0.9 -0.7
v 0.4 0.9 -0.8
v 0.8 0.9 -0.8
v 0.2 0.9 -0.9
v 0.3 0.9 -0.9
v 0.4 0.9 -0.9
v 0.6 0.9 -0.9
v 1.4 0.9 -0.9
v 1.5 0.9 -0.9
v 0.7 0.9 -1
v 0.8 0.9 -1
v 1.4 0.9 -1
v 1.6 0.9 -1
v 0.4 0.9 -1.1
v 0.6 0.9 -1.1
v 0.3 0.9 -1.2
v 0.7 0.9 -1.2
v 0.8 0.9 -1.2
v 0.6 1 -0.7
v 0.7 1 -0.7
v 0.8 1 -0.7
v 0.9 1 -0.7
v 1 1 -0.7
v 0.6 1 -0.8
v 0.7 1 -0.8
v 0.8 1 -0.8
v 0.8 1 -1
v 0.9 1 -1
v 0.8 1 -1.1
v 1 1 -1.1
v 0.6 1 -1.2
v 0.7 1 -1.2
v 0.8 1 -1.2
v 1 1 -1.3
v 1.1 1 -1.3
v 0.6 1 -1.4
v 0.7 1 -1.4
v 0.8 1 -1.4
v 0.9 1 -1.4
v 1 1 -1.4
v 0.9 1 -1.5
v 1 1 -1.5
v 1.1 1 -1.5
v 1 1.1 0
v 1.2 1.1 0
v 1 1.1 -0.1
v 1.2 1.1 -0.1
v 0.5 1.1 -0.4
v 0.6 1.1 -0.4
v 1 1.1 -0.7
v 1.2 1.1 -0.7
v 0.5 1.1 -0.8
v 0.6 1.1 -0.8
v 0.5 1.1 -0.9
v 0.6 1.1 -0.9
v 0.4 1.1 -1
v 0.5 1.1 -1
v 0.6 1.1 -1
v 1 1.1 -1
v 1.2 1.1 -1
v 0.4 1.1 -1.1
v 0.5 1.1 -1.1
v 0.4 1.3 -0.6
v 0.5 1.3 -0.6
v 0.5 1.3 -0.7
v 0.4 1.3 -0.8
v 0.5 1.3 -0.8
v 0.5 1 -0.9
v 0.6 1 -0.9
v 0.4 1 -1
v 0.5 1 -1
v 0.6 1 -1
v 0.4 1 -1.1
v 0.5 1 -1.1
v 0.2 1.1 -0.7
v 0.4 1.1 -0.7
v 0.3 1.1 -0.8
v 0.4 1.1 -0.8
v 0.2 1.1 -0.9
v 0.3 1.1 -0.9
v 1.5 1.2 -0.5
v 1.6 1.2 -0.5
v 1.5 1.2 -0.6
v 1.6 1.2 -0.6
v 1.4 1.2 -0.7
v 1.5 1.2 -0.7
v 0.3 1.2 -0.8
v 0.5 1.2 -0.8
v 1.5 1.2 -0.8
v 1.6 1.2 -0.8
v 0.3 1.2 -1
v 0.5 1.2 -1
v 0.6 1.2 -1
v 1.4 1.2 -1
v 1.6 1.2 -1
v 0.3 1.2 -1.1
v 0.6 1.2 -1.1
v 0.3 1.2 -1.2
v 0.6 1.2 -1.2
v 1 1.2 -1.3
v 1.1 1.2 -1.3
v 0.9 1.2 -1.4
v 1 1.2 -1.4
v 0.9 1.2 -1.5
v 1.1 1.2 -1.5
v 1 1.3 0
v 1.1 1.3 0
v 1.2 1.3 0
v 1 1.3 -0.1
v 1.1 1.3 -0.1
v 1.2 1.3 -0.1
v 0.6 1.3 -1
v 1 1.3 -1
v 0.7 1.3 -1.1
v 0.8 1.3 -1.1
v 0.8 1.3 -1.2
v 0.9 1.3 -1.2
v 0.7 1.3 -1.3
v 0.9 1.3 -1.3
v 0.6 1.3 -1.4
v 1 1.3 -1.4
v 0.6 1.4 -0.1
v 1.1 1.4 -0.1
v 1.2 1.4 -0.1
v 1.5 1.4 -0.1
v 0.7 1.4 -0.2
v 1.1 1.4 -0.2
v 1.2 1.4 -0.2
v 1.4 1.4 -0.2
v 0.7 1.4 -0.3
v 0.8 1.4 -0.3
v 0.9 1.4 -0.3
v 1.3 1.4 -0.3
v 1.4 1.4 -0.3
v 1.5 1.4 -0.3
v 0.6 1.4 -0.4
v 0.8 1.4 -0.4
v 0.9 1.4 -0.4
v 1 1.4 -0.4
v 1.1 1.4 -0.4
v 1.2 1.4 -0.4
v 1.4 1.4 -0.4
v 1.5 1.4 -0.4
v 1.3 1.4 -0.5
v 1.4 1.4 -0.5
v 1.3 1.4 -0.6
v 1.4 1.4 -0.6
v 1.2 1.4 -0.7
v 1.3 1.4 -0.7
v 1.4 1.4 -0.7
v 1.5 1.4 -0.7
v 0.5 1.5 -0.4
v 0.6 1.5 -0.4
v 0.8 1.5 -0.4
v 1 1.5 -0.4
v 1.1 1.5 -0.4
v 1.2 1.5 -0.4
v 0.5 1.5 -0.5
v 0.6 1.5 -0.5
v 0.8 1.5 -0.5
v 1 1.5 -0.5
v 0.5 1.5 -0.6
v 0.6 1.5 -0.6
v 0.8 1.5 -0.6
v 1 1.5 -0.6
v 0.5 1.5 -0.8
v 0.6 1.5 -0.8
v 0.8 1.5 -0.8
v 0.9 1.5 -0.8
v 1 1.5 -0.8
v 0.6 1.5 -0.9
v 0.8 1.5 -0.9
v 0.9 1.5 -0.9
v 1.1 1.5 -0.9
v 0.5 1.5 -1
v 1.2 1.5 -1
v 0.8 1.6 -0.4
v 1 1.6 -0.4
v 0.8 1.6 -0.5
v 1 1.6 -0.5
v 0.4 1.6 -0.6
v 0.6 1.6 -0.6
v 0.8 1.6 -0.6
v 1 1.6 -0.6
v 0.4 1.6 -0.8
v 0.6 1.6 -0.8

# faces
f 3/2/1 2/2/1 1/2/1
f 4/2/1 2/2/1 3/2/1
f 5/1/1 4/1/1 3/1/1
f 6/1/1 4/1/1 5/1/1
f 9/2/1 8/2/1 7/2/1
f 10/2/1 8/2/1 9/2/1
f 12/1/1 10/1/1 9/1/1
f 13/1/1 10/1/1 12/1/1
f 14/2/1 12/2/1 11/2/1
f 14/2/1 13/2/1 12/2/1
f 15/1/1 10/1/1 13/1/1
f 15/2/1 13/2/1 14/2/1
f 16/2/1 8/2/1 10/2/1
f 16/1/1 10/1/1 15/1/1
f 17/2/1 8/2/1 16/2/1
f 20/2/1 19/2/1 18/2/1
f 21/2/1 19/2/1 20/2/1
f 24/2/1 23/2/1 22/2/1
f 25/2/1 23/2/1 24/2/1
f 30/1/1 27/1/1 26/1/1
f 31/1/1 27/1/1 30/1/1
f 32/2/1 29/2/1 28/2/1
f 33/2/1 29/2/1 32/2/1
f 34/2/1 29/2/1 33/2/1
f 36/2/1 32/2/1 28/2/1
f 37/1/1 33/1/1 32/1/1
f 37/2/1 32/2/1 36/2/1
f 38/1/1 33/1/1 37/1/1
f 39/2/1 34/2/1 33/2/1
f 39/1/1 33/1/1 38/1/1
f 40/1/1 35/1/1 34/1/1
f 40/2/1 34/2/1 39/2/1
f 41/1/1 35/1/1 40/1/1
f 42/1/1 37/1/1 36/1/1
f 43/2/1 38/2/1 37/2/1
f 43/1/1 37/1/1 42/1/1
f 44/2/1 38/2/1 43/2/1
f 45/2/1 41/2/1 40/2/1
f 46/2/1 41/2/1 45/2/1
f 49/2/1 48/2/1 47/2/1
f 50/2/1 48/2/1 49/2/1
f 51/2/1 48/2/1 50/2/1
f 52/2/1 48/2/1 51/2/1
f 58/1/1 50/1/1 49/1/1
f 59/2/1 51/2/1 50/2/1
f 59/1/1 50/1/1 58/1/1
f 60/1/1 52/1/1 51/1/1
f 60/2/1 51/2/1 59/2/1
f 60/1/1 53/1/1 52/1/1
f 61/1/1 53/1/1 60/1/1
f 62/1/1 53/1/1 61/1/1
f 63/1/1 55/1/1 54/1/1
f 64/1/1 55/1/1 63/1/1
f 67/2/1 57/2/1 56/2/1
f 68/2/1 59/2/1 58/2/1
f 68/2/1 60/2/1 59/2/1
f 68/2/1 61/2/1 60/2/1
f 69/2/1 66/2/1 65/2/1
f 69/2/1 67/2/1 66/2/1
f 70/2/1 57/2/1 67/2/1
f 70/2/1 67/2/1 69/2/1
f 71/2/1 68/2/1 58/2/1
f 72/2/1 68/2/1 71/2/1
f 76/1/1 74/1/1 73/1/1
f 77/2/1 75/2/1 74/2/1
f 77/1/1 74/1/1 76/1/1
f 78/2/1 75/2/1 77/2/1
f 82/1/1 80/1/1 79/1/1
f 83/2/1 81/2/1 80/2/1
f 83/1/1 80/1/1 82/1/1
f 84/2/1 81/2/1 83/2/1
f 87/1/1 86/1/1 85/1/1
f 88/1/1 86/1/1 87/1/1
f 89/2/1 88/2/1 87/2/1
f 90/2/1 88/2/1 89/2/1
f 93/2/1 92/2/1 91/2/1
f 94/2/1 92/2/1 93/2/1
f 98/2/1 96/2/1 95/2/1
f 98/1/1 97/1/1 96/1/1
f 99/1/1 97/1/1 98/1/1
f 100/2/1 98/2/1 95/2/1
f 100/2/1 99/2/1 98/2/1
f 101/2/1 99/2/1 100/2/1
f 102/2/2 103/2/2 104/2/2
f 104/2/2 103/2/2 105/2/2
f 104/1/2 105/1/2 108/1/2
f 108/1/2 105/1/2 109/1/2
f 106/1/2 107/1/2 110/1/2
f 110/1/2 107/1/2 111/1/2
f 112/1/2 113/1/2 114/1/2
f 114/1/2 113/1/2 115/1/2
f 116/2/2 117/2/2 118/2/2
f 118/2/2 117/2/2 119/2/2
f 120/2/2 121/2/2 122/2/2
f 122/2/2 121/2/2 123/2/2
f 124/2/2 125/2/2 127/2/2
f 125/1/2 126/1/2 128/1/2
f 127/2/2 125/2/2 128/2/2
f 128/1/2 126/1/2 129/1/2
f 129/1/2 126/1/2 130/1/2
f 131/1/2 132/1/2 134/1/2
f 134/1/2 132/1/2 135/1/2
f 132/2/2 133/2/2 136/2/2
f 135/1/2 132/1/2 136/1/2
f 136/2/2 133/2/2 137/2/2
f 135/2/2 136/2/2 137/2/2
f 135/2/2 137/2/2 139/2/2
f 137/2/2 138/2/2 139/2/2
f 139/2/2 138/2/2 140/2/2
f 141/1/2 142/1/2 144/1/2
f 142/2/2 143/2/2 145/2/2
f 144/1/2 142/1/2 145/1/2
f 145/2/2 143/2/2 146/2/2
f 147/1/2 148/1/2 150/1/2
f 148/2/2 149/2/2 151/2/2
f 150/1/2 148/1/2 151/1/2
f 151/2/2 149/2/2 152/2/2
f 153/2/2 154/2/2 155/2/2
f 155/2/2 154/2/2 156/2/2
f 157/2/2 158/2/2 161/2/2
f 161/2/2 158/2/2 162/2/2
f 161/1/2 162/1/2 163/1/2
f 163/1/2 162/1/2 164/1/2
f 159/2/2 160/2/2 166/2/2
f 165/2/2 166/2/2 167/2/2
f 166/2/2 160/2/2 168/2/2
f 167/2/2 166/2/2 168/2/2
f 171/2/2 172/2/2 173/2/2
f 171/2/2 173/2/2 174/2/2
f 169/2/2 170/2/2 177/2/2
f 170/1/2 171/1/2 178/1/2
f 177/2/2 170/2/2 178/2/2
f 175/2/2 176/2/2 179/2/2
f 178/1/2 171/1/2 179/1/2
f 171/2/2 174/2/2 179/2/2
f 174/2/2 175/2/2 179/2/2
f 179/2/2 176/2/2 180/2/2
f 181/1/2 182/1/2 183/1/2
f 183/1/2 182/1/2 184/1/2
f 183/2/2 184/2/2 185/2/2
f 185/2/2 184/2/2 186/2/2
f 183/2/2 185/2/2 187/2/2
f 185/1/2 186/1/2 188/1/2
f 187/2/2 185/2/2 188/2/2
f 186/2/2 184/2/2 189/2/2
f 188/1/2 186/1/2 189/1/2
f 189/2/2 184/2/2 190/2/2
f 193/2/3 192/2/3 191/2/3
f 194/2/3 192/2/3 193/2/3
f 195/2/3 193/2/3 191/2/3
f 196/1/3 194/1/3 193/1/3
f 196/2/3 193/2/3 195/2/3
f 197/1/3 194/1/3 196/1/3
f 202/1/3 200/1/3 199/1/3
f 202/2/3 201/2/3 200/2/3
f 203/2/3 201/2/3 202/2/3
f 204/1/3 202/1/3 199/1/3
f 204/1/3 203/1/3 202/1/3
f 205/2/3 201/2/3 203/2/3
f 205/1/3 203/1/3 204/1/3
f 206/1/3 204/1/3 199/1/3
f 206/2/3 205/2/3 204/2/3
f 207/2/3 201/2/3 205/2/3
f 207/2/3 205/2/3 206/2/3
f 208/2/3 201/2/3 207/2/3
f 209/2/3 201/2/3 208/2/3
f 210/1/3 206/1/3 199/1/3
f 212/1/3 209/1/3 208/1/3
f 213/1/3 209/1/3 212/1/3
f 214/2/3 199/2/3 198/2/3
f 214/1/3 210/1/3 199/1/3
f 215/2/3 211/2/3 210/2/3
f 215/1/3 210/1/3 214/1/3
f 215/2/3 213/2/3 212/2/3
f 215/2/3 212/2/3 211/2/3
f 216/2/3 214/2/3 198/2/3
f 216/2/3 215/2/3 214/2/3
f 217/2/3 213/2/3 215/2/3
f 217/2/3 215/2/3 216/2/3
f 220/1/3 219/1/3 218/1/3
f 221/1/3 219/1/3 220/1/3
f 225/2/3 223/2/3 222/2/3
f 226/1/3 224/1/3 223/1/3
f 226/2/3 223/2/3 225/2/3
f 227/1/3 224/1/3 226/1/3
f 228/1/3 224/1/3 227/1/3
f 229/2/3 228/2/3 227/2/3
f 230/2/3 228/2/3 229/2/3
f 232/1/3 230/1/3 229/1/3
f 232/1/3 231/1/3 230/1/3
f 233/1/3 231/1/3 232/1/3
f 234/2/3 233/2/3 232/2/3
f 235/1/3 231/1/3 233/1/3
f 235/2/3 233/2/3 234/2/3
f 236/1/3 231/1/3 235/1/3
f 237/1/3 235/1/3 234/1/3
f 238/1/3 235/1/3 237/1/3
f 239/2/3 238/2/3 237/2/3
f 240/2/3 238/2/3 239/2/3
f 244/1/3 242/1/3 241/1/3
f 245/2/3 243/2/3 242/2/3
f 245/1/3 242/1/3 244/1/3
f 246/2/3 243/2/3 245/2/3
f 249/2/3 248/2/3 247/2/3
f 250/2/3 248/2/3 249/2/3
f 251/2/3 248/2/3 250/2/3
f 252/2/3 248/2/3 251/2/3
f 256/2/3 254/2/3 253/2/3
f 257/1/3 255/1/3 254/1/3
f 257/2/3 254/2/3 256/2/3
f 258/1/3 255/1/3 257/1/3
f 263/2/3 260/2/3 259/2/3
f 264/2/3 260/2/3 263/2/3
f 264/1/3 263/1/3 262/1/3
f 265/2/3 260/2/3 264/2/3
f 266/2/3 262/2/3 261/2/3
f 266/1/3 264/1/3 262/1/3
f 267/1/3 264/1/3 266/1/3
f 268/2/3 266/2/3 261/2/3
f 269/2/3 268/2/3 261/2/3
f 270/2/3 268/2/3 269/2/3
f 273/2/3 272/2/3 271/2/3
f 274/2/3 272/2/3 273/2/3
f 277/1/3 276/1/3 275/1/3
f 278/1/3 276/1/3 277/1/3
f 281/2/3 280/2/3 279/2/3
f 282/2/3 280/2/3 281/2/3
f 285/2/3 284/2/3 283/2/3
f 286/2/3 284/2/3 285/2/3
f 287/2/4 288/2/4 289/2/4
f 289/2/4 288/2/4 290/2/4
f 291/2/4 292/2/4 293/2/4
f 293/2/4 292/2/4 294/2/4
f 295/2/4 296/2/4 297/2/4
f 297/2/4 296/2/4 298/2/4
f 297/1/4 298/1/4 299/1/4
f 299/1/4 298/1/4 300/1/4
f 299/2/4 300/2/4 301/2/4
f 299/2/4 301/2/4 302/2/4
f 302/2/4 303/2/4 304/2/4
f 299/2/4 302/2/4 306/2/4
f 304/2/4 305/2/4 306/2/4
f 302/2/4 304/2/4 306/2/4
f 306/2/4 305/2/4 307/2/4
f 306/1/4 307/1/4 308/1/4
f 308/1/4 307/1/4 309/1/4
f 309/1/4 307/1/4 310/1/4
f 309/2/4 310/2/4 311/2/4
f 311/2/4 310/2/4 312/2/4
f 313/2/4 314/2/4 315/2/4
f 315/2/4 314/2/4 316/2/4
f 316/2/4 314/2/4 317/2/4
f 317/2/4 314/2/4 318/2/4
f 319/2/4 320/2/4 322/2/4
f 320/1/4 321/1/4 323/1/4
f 322/2/4 320/2/4 323/2/4
f 323/1/4 321/1/4 324/1/4
f 325/1/4 326/1/4 327/1/4
f 327/1/4 326/1/4 328/1/4
f 329/1/4 330/1/4 331/1/4
f 331/1/4 330/1/4 332/1/4
f 333/1/4 334/1/4 336/1/4
f 334/2/4 335/2/4 337/2/4
f 336/1/4 334/1/4 337/1/4
f 337/2/4 335/2/4 339/2/4
f 338/2/4 339/2/4 340/2/4
f 339/2/4 335/2/4 341/2/4
f 340/2/4 339/2/4 341/2/4
f 342/1/4 343/1/4 345/1/4
f 343/2/4 344/2/4 346/2/4
f 345/1/4 343/1/4 346/1/4
f 346/2/4 344/2/4 347/2/4
f 348/2/4 349/2/4 350/2/4
f 350/2/4 349/2/4 351/2/4
f 352/2/4 353/2/4 354/2/4
f 354/2/4 353/2/4 355/2/4
f 352/2/4 354/2/4 356/2/4
f 356/2/4 354/2/4 357/2/4
f 356/1/4 357/1/4 358/1/4
f 358/1/4 357/1/4 359/1/4
f 360/2/4 361/2/4 362/2/4
f 362/2/4 361/2/4 363/2/4
f 362/1/4 363/1/4 364/1/4
f 363/2/4 361/2/4 365/2/4
f 364/1/4 363/1/4 365/1/4
f 364/2/4 365/2/4 366/2/4
f 366/2/4 365/2/4 367/2/4
f 365/2/4 361/2/4 368/2/4
f 367/2/4 365/2/4 368/2/4
f 368/2/4 361/2/4 369/2/4
f 369/2/4 361/2/4 370/2/4
f 371/1/4 372/1/4 374/1/4
f 372/2/4 373/2/4 375/2/4
f 374/1/4 372/1/4 375/1/4
f 374/2/4 375/2/4 376/2/4
f 375/2/4 373/2/4 377/2/4
f 376/2/4 375/2/4 377/2/4
f 380/1/5 379/1/5 378/1/5
f 381/1/5 379/1/5 380/1/5
f 382/2/5 381/2/5 380/2/5
f 383/2/5 381/2/5 382/2/5
f 386/2/5 385/2/5 384/2/5
f 387/2/5 385/2/5 386/2/5
f 390/2/5 389/2/5 388/2/5
f 391/2/5 389/2/5 390/2/5
f 392/2/5 390/2/5 388/2/5
f 393/1/5 391/1/5 390/1/5
f 393/2/5 390/2/5 392/2/5
f 394/2/5 389/2/5 391/2/5
f 394/1/5 391/1/5 393/1/5
f 395/2/5 389/2/5 394/2/5
f 396/2/5 389/2/5 395/2/5
f 397/2/5 389/2/5 396/2/5
f 398/2/5 389/2/5 397/2/5
f 399/1/5 393/1/5 392/1/5
f 399/1/5 394/1/5 393/1/5
f 400/1/5 394/1/5 399/1/5
f 401/1/5 396/1/5 395/1/5
f 402/2/5 397/2/5 396/2/5
f 402/1/5 396/1/5 401/1/5
f 403/1/5 398/1/5 397/1/5
f 404/1/5 398/1/5 403/1/5
f 405/2/5 400/2/5 399/2/5
f 405/1/5 399/1/5 392/1/5
f 406/2/5 400/2/5 405/2/5
f 407/2/5 402/2/5 401/2/5
f 408/2/5 404/2/5 403/2/5
f 410/1/5 407/1/5 406/1/5
f 410/1/5 406/1/5 405/1/5
f 410/1/5 405/1/5 392/1/5
f 411/2/5 402/2/5 407/2/5
f 411/1/5 407/1/5 410/1/5
f 414/2/5 392/2/5 388/2/5
f 415/1/5 410/1/5 392/1/5
f 415/2/5 392/2/5 414/2/5
f 416/2/5 411/2/5 410/2/5
f 416/1/5 410/1/5 415/1/5
f 417/2/5 397/2/5 402/2/5
f 417/2/5 411/2/5 416/2/5
f 417/1/5 403/1/5 397/1/5
f 417/2/5 402/2/5 411/2/5
f 418/2/5 408/2/5 403/2/5
f 418/1/5 403/1/5 417/1/5
f 419/2/5 413/2/5 412/2/5
f 421/2/5 419/2/5 412/2/5
f 421/2/5 420/2/5 419/2/5
f 422/2/5 420/2/5 421/2/5
f 423/2/5 420/2/5 422/2/5
f 424/2/5 420/2/5 423/2/5
f 425/2/5 408/2/5 418/2/5
f 426/1/5 409/1/5 408/1/5
f 426/2/5 408/2/5 425/2/5
f 427/2/5 420/2/5 424/2/5
f 428/2/5 420/2/5 427/2/5
f 429/1/5 426/1/5 425/1/5
f 430/1/5 409/1/5 426/1/5
f 430/1/5 426/1/5 429/1/5
f 431/2/5 423/2/5 422/2/5
f 432/2/5 427/2/5 424/2/5
f 433/2/5 431/2/5 422/2/5
f 433/2/5 432/2/5 431/2/5
f 434/1/5 428/1/5 427/1/5
f 434/2/5 432/2/5 433/2/5
f 434/2/5 427/2/5 432/2/5
f 435/1/5 428/1/5 434/1/5
f 441/1/5 437/1/5 436/1/5
f 442/2/5 438/2/5 437/2/5
f 442/1/5 437/1/5 441/1/5
f 442/2/5 439/2/5 438/2/5
f 443/2/5 439/2/5 442/2/5
f 444/2/5 439/2/5 443/2/5
f 445/1/5 440/1/5 439/1/5
f 445/2/5 439/2/5 444/2/5
f 446/1/5 445/1/5 444/1/5
f 447/1/5 440/1/5 445/1/5
f 447/1/5 445/1/5 446/1/5
f 450/2/5 447/2/5 446/2/5
f 451/2/5 447/2/5 450/2/5
f 453/2/5 449/2/5 448/2/5
f 454/1/5 450/1/5 449/1/5
f 454/2/5 449/2/5 453/2/5
f 455/2/5 452/2/5 451/2/5
f 455/1/5 450/1/5 454/1/5
f 455/2/5 451/2/5 450/2/5
f 456/2/5 452/2/5 455/2/5
f 457/2/5 452/2/5 456/2/5
f 458/1/5 457/1/5 456/1/5
f 459/2/5 452/2/5 457/2/5
f 459/1/5 457/1/5 458/1/5
f 460/2/5 452/2/5 459/2/5
f 463/2/5 462/2/5 461/2/5
f 464/2/5 462/2/5 463/2/5
f 469/2/5 466/2/5 465/2/5
f 470/2/5 466/2/5 469/2/5
f 474/2/5 472/2/5 471/2/5
f 475/2/5 472/2/5 474/2/5
f 476/2/5 468/2/5 467/2/5
f 477/2/5 468/2/5 476/2/5
f 478/1/5 474/1/5 473/1/5
f 479/1/5 474/1/5 478/1/5
f 482/2/5 481/2/5 480/2/5
f 483/2/5 482/2/5 480/2/5
f 484/2/5 482/2/5 483/2/5
f 485/2/6 486/2/6 488/2/6
f 488/2/6 486/2/6 489/2/6
f 487/2/6 488/2/6 490/2/6
f 490/2/6 488/2/6 491/2/6
f 492/1/6 493/1/6 494/1/6
f 494/1/6 493/1/6 495/1/6
f 492/1/6 494/1/6 496/1/6
f 496/1/6 494/1/6 497/1/6
f 498/2/6 499/2/6 500/2/6
f 500/2/6 499/2/6 501/2/6
f 500/1/6 501/1/6 503/1/6
f 503/1/6 501/1/6 506/1/6
f 502/2/6 503/2/6 506/2/6
f 506/1/6 501/1/6 507/1/6
f 504/2/6 505/2/6 508/2/6
f 508/2/6 505/2/6 509/2/6
f 502/2/6 506/2/6 511/2/6
f 506/2/6 507/2/6 511/2/6
f 511/2/6 507/2/6 512/2/6
f 509/1/6 510/1/6 513/1/6
f 508/1/6 509/1/6 513/1/6
f 513/1/6 510/1/6 514/1/6
f 513/2/6 514/2/6 515/2/6
f 515/2/6 514/2/6 516/2/6
f 517/2/6 518/2/6 520/2/6
f 519/2/6 520/2/6 521/2/6
f 520/2/6 518/2/6 522/2/6
f 521/2/6 520/2/6 522/2/6
f 523/2/6 524/2/6 526/2/6
f 524/1/6 525/1/6 527/1/6
f 526/2/6 524/2/6 527/2/6
f 527/1/6 525/1/6 528/1/6
f 529/2/6 530/2/6 531/2/6
f 531/2/6 530/2/6 532/2/6
f 531/1/6 532/1/6 533/1/6
f 532/2/6 530/2/6 533/2/6
f 533/2/6 530/2/6 534/2/6
f 529/2/6 531/2/6 535/2/6
f 531/1/6 533/1/6 535/1/6
f 533/1/6 534/1/6 535/1/6
f 534/2/6 530/2/6 536/2/6
f 535/1/6 534/1/6 536/1/6
f 529/2/6 535/2/6 537/2/6
f 535/2/6 536/2/6 537/2/6
f 536/2/6 530/2/6 538/2/6
f 537/2/6 536/2/6 538/2/6
f 539/2/6 540/2/6 543/2/6
f 540/1/6 541/1/6 544/1/6
f 543/2/6 540/2/6 544/2/6
f 541/2/6 542/2/6 545/2/6
f 544/1/6 541/1/6 545/1/6
f 545/2/6 542/2/6 546/2/6
f 543/1/6 544/1/6 547/1/6
f 539/2/6 543/2/6 547/2/6
f 545/1/6 546/1/6 547/1/6
f 544/1/6 545/1/6 547/1/6
f 547/1/6 546/1/6 548/1/6
f 548/1/6 546/1/6 549/1/6
f 549/1/6 546/1/6 550/1/6
f 546/2/6 542/2/6 551/2/6
f 550/1/6 546/1/6 551/1/6
f 551/2/6 542/2/6 552/2/6
f 539/2/6 547/2/6 553/2/6
f 547/2/6 548/2/6 553/2/6
f 548/1/6 549/1/6 554/1/6
f 553/2/6 548/2/6 554/2/6
f 549/2/6 550/2/6 555/2/6
f 554/1/6 549/1/6 555/1/6
f 555/2/6 550/2/6 556/2/6
f 556/2/6 550/2/6 557/2/6
f 557/2/6 550/2/6 558/2/6
f 551/1/6 552/1/6 559/1/6
f 550/1/6 551/1/6 559/1/6
f 559/1/6 552/1/6 560/1/6
f 558/2/6 550/2/6 561/2/6
f 550/1/6 559/1/6 561/1/6
f 559/2/6 560/2/6 562/2/6
f 561/1/6 559/1/6 562/1/6
f 558/2/6 561/2/6 563/2/6
f 561/2/6 562/2/6 563/2/6
f 562/2/6 560/2/6 564/2/6
f 563/2/6 562/2/6 564/2/6
f 558/2/6 563/2/6 565/2/6
f 563/1/6 564/1/6 566/1/6
f 565/2/6 563/2/6 566/2/6
f 564/2/6 560/2/6 567/2/6
f 566/1/6 564/1/6 567/1/6
f 567/2/6 560/2/6 568/2/6
f 569/1/6 570/1/6 575/1/6
f 570/2/6 571/2/6 576/2/6
f 575/1/6 570/1/6 576/1/6
f 576/2/6 571/2/6 577/2/6
f 572/1/6 573/1/6 578/1/6
f 576/2/6 577/2/6 579/2/6
f 575/2/6 576/2/6 579/2/6
f 579/2/6 577/2/6 580/2/6
f 580/2/6 577/2/6 581/2/6
f 578/1/6 573/1/6 582/1/6
f 580/2/6 581/2/6 584/2/6
f 581/2/6 582/2/6 584/2/6
f 584/2/6 582/2/6 585/2/6
f 585/2/6 582/2/6 586/2/6
f 582/1/6 573/1/6 587/1/6
f 586/2/6 582/2/6 587/2/6
f 583/2/6 584/2/6 588/2/6
f 584/1/6 585/1/6 588/1/6
f 585/2/6 586/2/6 589/2/6
f 588/1/6 585/1/6 589/1/6
f 586/1/6 587/1/6 590/1/6
f 589/2/6 586/2/6 590/2/6
f 573/2/6 574/2/6 591/2/6
f 590/1/6 587/1/6 591/1/6
f 587/1/6 573/1/6 591/1/6
f 589/2/6 590/2/6 592/2/6
f 583/2/6 588/2/6 592/2/6
f 590/2/6 591/2/6 592/2/6
f 588/2/6 589/2/6 592/2/6
f 591/2/6 574/2/6 593/2/6
f 592/2/6 591/2/6 593/2/6
f 594/1/6 595/1/6 596/1/6
f 596/1/6 595/1/6 597/1/6
f 596/2/6 597/2/6 600/2/6
f 600/2/6 597/2/6 601/2/6
f 598/2/6 599/2/6 602/2/6
f 602/2/6 599/2/6 603/2/6
