# MagicaVoxel @ Ephtracy

# group
o 

# material
mtllib deco_10.mtl
usemtl palette

# normals
vn -1 0 0
vn 1 0 0
vn 0 0 1
vn 0 0 -1
vn 0 -1 0
vn 0 1 0

# texcoords
vt 0.970703 0.5
vt 0.974609 0.5
vt 0.978516 0.5
vt 0.982422 0.5
vt 0.986328 0.5
vt 0.994141 0.5

# verts
v 0 0.4 -0.2
v 0 0.4 -0.5
v 0 0.5 -0.2
v 0 0.5 -0.5
v 0.1 0.5 -0.3
v 0.1 0.5 -0.5
v 0.1 0.5 -0.6
v 0.1 0.6 -0.3
v 0.1 0.6 -0.6
v 0.1 0.7 -0.3
v 0.1 0.7 -0.6
v 0.1 0.8 -0.3
v 0.1 0.8 -0.6
v 0.2 0.4 -0.3
v 0.2 0.4 -0.4
v 0.2 0.5 -0.2
v 0.2 0.5 -0.3
v 0.2 0.5 -0.4
v 0.2 0.5 -0.6
v 0.2 0.5 -0.7
v 0.2 0.6 0
v 0.2 0.6 -0.2
v 0.2 0.6 -0.3
v 0.2 0.6 -0.5
v 0.2 0.6 -0.6
v 0.2 0.6 -0.7
v 0.2 0.6 -0.8
v 0.2 0.7 0
v 0.2 0.7 -0.2
v 0.2 0.7 -0.3
v 0.2 0.7 -0.5
v 0.2 0.7 -0.6
v 0.2 0.7 -0.7
v 0.2 0.7 -0.8
v 0.2 0.8 -0.2
v 0.2 0.8 -0.3
v 0.2 0.8 -0.6
v 0.2 0.8 -0.7
v 0.3 0.4 -0.1
v 0.3 0.4 -0.2
v 0.3 0.4 -0.6
v 0.3 0.4 -0.9
v 0.3 0.5 -0.1
v 0.3 0.5 -0.2
v 0.3 0.5 -0.6
v 0.3 0.5 -0.7
v 0.3 0.5 -0.8
v 0.3 0.5 -0.9
v 0.3 0.6 -0.1
v 0.3 0.6 -0.2
v 0.3 0.6 -0.4
v 0.3 0.6 -0.5
v 0.3 0.6 -0.7
v 0.3 0.6 -0.8
v 0.3 0.6 -0.9
v 0.3 0.7 -0.4
v 0.3 0.7 -0.5
v 0.3 0.7 -0.8
v 0.3 0.7 -0.9
v 0.3 0.8 -0.4
v 0.3 0.8 -0.7
v 0.3 0.9 -0.4
v 0.3 0.9 -0.7
v 0.4 0.4 0
v 0.4 0.4 -0.1
v 0.4 0.4 -0.4
v 0.4 0.4 -0.5
v 0.4 0.5 0
v 0.4 0.5 -0.1
v 0.4 0.5 -0.4
v 0.4 0.5 -0.5
v 0.4 0.6 -0.1
v 0.4 0.6 -0.2
v 0.4 0.7 -0.1
v 0.4 0.7 -0.2
v 0.4 0.7 -0.4
v 0.4 0.7 -0.5
v 0.4 0.8 -0.4
v 0.4 0.8 -0.5
v 0.5 0.4 -0.7
v 0.5 0.4 -0.8
v 0.5 0.5 -0.4
v 0.5 0.5 -0.5
v 0.5 0.5 -0.7
v 0.5 0.5 -0.8
v 0.5 0.6 -0.4
v 0.5 0.6 -0.5
v 0.5 0.6 -0.6
v 0.5 0.6 -0.7
v 0.5 0.7 -0.6
v 0.5 0.7 -0.7
v 0.5 0.8 -0.5
v 0.5 0.8 -0.6
v 0.5 0.9 -0.5
v 0.5 0.9 -0.6
v 0.6 0.4 -0.2
v 0.6 0.4 -0.3
v 0.6 0.5 -0.2
v 0.6 0.5 -0.3
v 0.1 0.4 -0.3
v 0.1 0.4 -0.4
v 0.1 0.5 -0.3
v 0.1 0.5 -0.4
v 0.3 0.4 -0.4
v 0.3 0.4 -0.5
v 0.3 0.5 -0.4
v 0.3 0.5 -0.5
v 0.3 0.6 -0.1
v 0.3 0.6 -0.2
v 0.3 0.7 -0.1
v 0.3 0.7 -0.2
v 0.3 0.7 -0.4
v 0.3 0.7 -0.5
v 0.3 0.8 -0.4
v 0.3 0.8 -0.5
v 0.4 0.4 -0.7
v 0.4 0.4 -0.8
v 0.4 0.5 -0.4
v 0.4 0.5 -0.5
v 0.4 0.5 -0.7
v 0.4 0.5 -0.8
v 0.4 0.6 -0.4
v 0.4 0.6 -0.5
v 0.4 0.6 -0.6
v 0.4 0.6 -0.7
v 0.4 0.7 -0.6
v 0.4 0.7 -0.7
v 0.4 0.8 -0.5
v 0.4 0.8 -0.6
v 0.4 0.9 -0.5
v 0.4 0.9 -0.6
v 0.5 0.4 -0.2
v 0.5 0.4 -0.3
v 0.5 0.5 -0.2
v 0.5 0.5 -0.3
v 0.5 0.6 0
v 0.5 0.6 -0.1
v 0.5 0.6 -0.3
v 0.5 0.7 0
v 0.5 0.7 -0.2
v 0.5 0.7 -0.3
v 0.5 0.7 -0.6
v 0.5 0.7 -0.7
v 0.5 0.8 -0.2
v 0.5 0.8 -0.3
v 0.5 0.8 -0.6
v 0.5 0.8 -0.7
v 0.6 0.4 -0.6
v 0.6 0.4 -0.9
v 0.6 0.5 -0.1
v 0.6 0.5 -0.2
v 0.6 0.5 -0.6
v 0.6 0.5 -0.7
v 0.6 0.5 -0.8
v 0.6 0.5 -0.9
v 0.6 0.6 -0.1
v 0.6 0.6 -0.2
v 0.6 0.6 -0.4
v 0.6 0.6 -0.5
v 0.6 0.6 -0.7
v 0.6 0.6 -0.8
v 0.6 0.6 -0.9
v 0.6 0.7 -0.3
v 0.6 0.7 -0.4
v 0.6 0.7 -0.5
v 0.6 0.7 -0.6
v 0.6 0.7 -0.8
v 0.6 0.7 -0.9
v 0.6 0.8 -0.3
v 0.6 0.8 -0.4
v 0.6 0.8 -0.6
v 0.6 0.8 -0.7
v 0.6 0.9 -0.4
v 0.6 0.9 -0.7
v 0.7 0.4 0
v 0.7 0.4 -0.1
v 0.7 0.4 -0.4
v 0.7 0.4 -0.5
v 0.7 0.5 0
v 0.7 0.5 -0.1
v 0.7 0.5 -0.2
v 0.7 0.5 -0.3
v 0.7 0.5 -0.4
v 0.7 0.5 -0.5
v 0.7 0.5 -0.6
v 0.7 0.5 -0.7
v 0.7 0.6 -0.2
v 0.7 0.6 -0.3
v 0.7 0.6 -0.5
v 0.7 0.6 -0.6
v 0.7 0.6 -0.7
v 0.7 0.6 -0.8
v 0.7 0.7 -0.5
v 0.7 0.7 -0.8
v 0.8 0.4 -0.1
v 0.8 0.4 -0.4
v 0.8 0.5 -0.1
v 0.8 0.5 -0.3
v 0.8 0.5 -0.4
v 0.8 0.5 -0.6
v 0.8 0.6 -0.3
v 0.8 0.6 -0.6
v 0.2 0.6 0
v 0.2 0.7 0
v 0.4 0.4 0
v 0.4 0.5 0
v 0.5 0.6 0
v 0.5 0.7 0
v 0.7 0.4 0
v 0.7 0.5 0
v 0.3 0.4 -0.1
v 0.3 0.5 -0.1
v 0.3 0.6 -0.1
v 0.4 0.4 -0.1
v 0.4 0.5 -0.1
v 0.5 0.6 -0.1
v 0.6 0.5 -0.1
v 0.6 0.6 -0.1
v 0.7 0.4 -0.1
v 0.7 0.5 -0.1
v 0.8 0.4 -0.1
v 0.8 0.5 -0.1
v 0 0.4 -0.2
v 0 0.5 -0.2
v 0.2 0.5 -0.2
v 0.2 0.6 -0.2
v 0.2 0.7 -0.2
v 0.2 0.8 -0.2
v 0.3 0.4 -0.2
v 0.3 0.5 -0.2
v 0.3 0.6 -0.2
v 0.3 0.7 -0.2
v 0.4 0.6 -0.2
v 0.4 0.7 -0.2
v 0.5 0.7 -0.2
v 0.5 0.8 -0.2
v 0.6 0.5 -0.2
v 0.6 0.6 -0.2
v 0.7 0.5 -0.2
v 0.7 0.6 -0.2
v 0.1 0.5 -0.3
v 0.1 0.6 -0.3
v 0.1 0.7 -0.3
v 0.1 0.8 -0.3
v 0.2 0.5 -0.3
v 0.2 0.6 -0.3
v 0.2 0.7 -0.3
v 0.2 0.8 -0.3
v 0.5 0.4 -0.3
v 0.5 0.5 -0.3
v 0.5 0.7 -0.3
v 0.5 0.8 -0.3
v 0.6 0.4 -0.3
v 0.6 0.5 -0.3
v 0.6 0.7 -0.3
v 0.6 0.8 -0.3
v 0.7 0.5 -0.3
v 0.7 0.6 -0.3
v 0.8 0.5 -0.3
v 0.8 0.6 -0.3
v 0.1 0.4 -0.4
v 0.1 0.5 -0.4
v 0.2 0.4 -0.4
v 0.2 0.5 -0.4
v 0.3 0.6 -0.4
v 0.3 0.7 -0.4
v 0.3 0.8 -0.4
v 0.3 0.9 -0.4
v 0.6 0.6 -0.4
v 0.6 0.7 -0.4
v 0.6 0.8 -0.4
v 0.6 0.9 -0.4
v 0.2 0.6 -0.5
v 0.2 0.7 -0.5
v 0.3 0.6 -0.5
v 0.3 0.7 -0.5
v 0.3 0.8 -0.5
v 0.4 0.5 -0.5
v 0.4 0.6 -0.5
v 0.4 0.7 -0.5
v 0.4 0.8 -0.5
v 0.5 0.5 -0.5
v 0.5 0.6 -0.5
v 0.6 0.6 -0.5
v 0.6 0.7 -0.5
v 0.7 0.6 -0.5
v 0.7 0.7 -0.5
v 0.3 0.4 -0.6
v 0.3 0.5 -0.6
v 0.4 0.8 -0.6
v 0.4 0.9 -0.6
v 0.5 0.8 -0.6
v 0.5 0.9 -0.6
v 0.6 0.4 -0.6
v 0.6 0.5 -0.6
v 0.4 0.6 -0.7
v 0.4 0.7 -0.7
v 0.5 0.6 -0.7
v 0.5 0.7 -0.7
v 0.4 0.4 -0.8
v 0.4 0.5 -0.8
v 0.5 0.4 -0.8
v 0.5 0.5 -0.8
v 0.3 0.6 -0.1
v 0.3 0.7 -0.1
v 0.4 0.6 -0.1
v 0.4 0.7 -0.1
v 0.5 0.4 -0.2
v 0.5 0.5 -0.2
v 0.6 0.4 -0.2
v 0.6 0.5 -0.2
v 0.1 0.4 -0.3
v 0.1 0.5 -0.3
v 0.2 0.4 -0.3
v 0.2 0.5 -0.3
v 0.2 0.6 -0.3
v 0.2 0.7 -0.3
v 0.5 0.6 -0.3
v 0.5 0.7 -0.3
v 0.3 0.4 -0.4
v 0.3 0.5 -0.4
v 0.3 0.7 -0.4
v 0.3 0.8 -0.4
v 0.4 0.4 -0.4
v 0.4 0.5 -0.4
v 0.4 0.6 -0.4
v 0.4 0.7 -0.4
v 0.4 0.8 -0.4
v 0.5 0.5 -0.4
v 0.5 0.6 -0.4
v 0.7 0.4 -0.4
v 0.7 0.5 -0.4
v 0.8 0.4 -0.4
v 0.8 0.5 -0.4
v 0 0.4 -0.5
v 0 0.5 -0.5
v 0.1 0.5 -0.5
v 0.3 0.4 -0.5
v 0.3 0.5 -0.5
v 0.4 0.4 -0.5
v 0.4 0.5 -0.5
v 0.4 0.8 -0.5
v 0.4 0.9 -0.5
v 0.5 0.8 -0.5
v 0.5 0.9 -0.5
v 0.7 0.4 -0.5
v 0.7 0.5 -0.5
v 0.1 0.5 -0.6
v 0.1 0.6 -0.6
v 0.1 0.7 -0.6
v 0.1 0.8 -0.6
v 0.2 0.5 -0.6
v 0.2 0.6 -0.6
v 0.2 0.7 -0.6
v 0.2 0.8 -0.6
v 0.4 0.6 -0.6
v 0.4 0.7 -0.6
v 0.5 0.6 -0.6
v 0.5 0.7 -0.6
v 0.5 0.8 -0.6
v 0.6 0.7 -0.6
v 0.6 0.8 -0.6
v 0.7 0.5 -0.6
v 0.7 0.6 -0.6
v 0.8 0.5 -0.6
v 0.8 0.6 -0.6
v 0.2 0.5 -0.7
v 0.2 0.6 -0.7
v 0.2 0.7 -0.7
v 0.2 0.8 -0.7
v 0.3 0.5 -0.7
v 0.3 0.6 -0.7
v 0.3 0.8 -0.7
v 0.3 0.9 -0.7
v 0.4 0.4 -0.7
v 0.4 0.5 -0.7
v 0.5 0.4 -0.7
v 0.5 0.5 -0.7
v 0.5 0.7 -0.7
v 0.5 0.8 -0.7
v 0.6 0.5 -0.7
v 0.6 0.6 -0.7
v 0.6 0.8 -0.7
v 0.6 0.9 -0.7
v 0.7 0.5 -0.7
v 0.7 0.6 -0.7
v 0.2 0.6 -0.8
v 0.2 0.7 -0.8
v 0.3 0.5 -0.8
v 0.3 0.6 -0.8
v 0.3 0.7 -0.8
v 0.6 0.5 -0.8
v 0.6 0.6 -0.8
v 0.6 0.7 -0.8
v 0.7 0.6 -0.8
v 0.7 0.7 -0.8
v 0.3 0.4 -0.9
v 0.3 0.5 -0.9
v 0.3 0.6 -0.9
v 0.3 0.7 -0.9
v 0.6 0.4 -0.9
v 0.6 0.5 -0.9
v 0.6 0.6 -0.9
v 0.6 0.7 -0.9
v 0.4 0.4 0
v 0.7 0.4 0
v 0.3 0.4 -0.1
v 0.4 0.4 -0.1
v 0.7 0.4 -0.1
v 0.8 0.4 -0.1
v 0 0.4 -0.2
v 0.3 0.4 -0.2
v 0.5 0.4 -0.2
v 0.6 0.4 -0.2
v 0.1 0.4 -0.3
v 0.2 0.4 -0.3
v 0.5 0.4 -0.3
v 0.6 0.4 -0.3
v 0.1 0.4 -0.4
v 0.2 0.4 -0.4
v 0.3 0.4 -0.4
v 0.4 0.4 -0.4
v 0.7 0.4 -0.4
v 0.8 0.4 -0.4
v 0 0.4 -0.5
v 0.3 0.4 -0.5
v 0.4 0.4 -0.5
v 0.7 0.4 -0.5
v 0.3 0.4 -0.6
v 0.6 0.4 -0.6
v 0.4 0.4 -0.7
v 0.5 0.4 -0.7
v 0.4 0.4 -0.8
v 0.5 0.4 -0.8
v 0.3 0.4 -0.9
v 0.6 0.4 -0.9
v 0.5 0.5 -0.2
v 0.6 0.5 -0.2
v 0.1 0.5 -0.3
v 0.2 0.5 -0.3
v 0.5 0.5 -0.3
v 0.6 0.5 -0.3
v 0.1 0.5 -0.4
v 0.2 0.5 -0.4
v 0.3 0.5 -0.4
v 0.4 0.5 -0.4
v 0.7 0.5 -0.4
v 0.8 0.5 -0.4
v 0.1 0.5 -0.5
v 0.3 0.5 -0.5
v 0.4 0.5 -0.5
v 0.7 0.5 -0.5
v 0.1 0.5 -0.6
v 0.2 0.5 -0.6
v 0.3 0.5 -0.6
v 0.6 0.5 -0.6
v 0.7 0.5 -0.6
v 0.8 0.5 -0.6
v 0.2 0.5 -0.7
v 0.3 0.5 -0.7
v 0.4 0.5 -0.7
v 0.5 0.5 -0.7
v 0.6 0.5 -0.7
v 0.7 0.5 -0.7
v 0.4 0.5 -0.8
v 0.5 0.5 -0.8
v 0.2 0.6 0
v 0.5 0.6 0
v 0.3 0.6 -0.1
v 0.5 0.6 -0.1
v 0.2 0.6 -0.2
v 0.3 0.6 -0.2
v 0.4 0.6 -0.4
v 0.5 0.6 -0.4
v 0.4 0.6 -0.5
v 0.5 0.6 -0.5
v 0.2 0.6 -0.7
v 0.3 0.6 -0.7
v 0.6 0.6 -0.7
v 0.7 0.6 -0.7
v 0.2 0.6 -0.8
v 0.3 0.6 -0.8
v 0.6 0.6 -0.8
v 0.7 0.6 -0.8
v 0.3 0.6 -0.9
v 0.6 0.6 -0.9
v 0.1 0.7 -0.3
v 0.2 0.7 -0.3
v 0.5 0.7 -0.3
v 0.6 0.7 -0.3
v 0.3 0.7 -0.4
v 0.6 0.7 -0.4
v 0.2 0.7 -0.5
v 0.3 0.7 -0.5
v 0.1 0.7 -0.6
v 0.2 0.7 -0.6
v 0.4 0.7 -0.6
v 0.5 0.7 -0.6
v 0.4 0.7 -0.7
v 0.5 0.7 -0.7
v 0.3 0.8 -0.4
v 0.4 0.8 -0.4
v 0.3 0.8 -0.5
v 0.4 0.8 -0.5
v 0.5 0.8 -0.6
v 0.6 0.8 -0.6
v 0.5 0.8 -0.7
v 0.6 0.8 -0.7
v 0.4 0.5 0
v 0.7 0.5 0
v 0.4 0.5 -0.1
v 0.6 0.5 -0.1
v 0.7 0.5 -0.1
v 0.8 0.5 -0.1
v 0 0.5 -0.2
v 0.2 0.5 -0.2
v 0.6 0.5 -0.2
v 0.7 0.5 -0.2
v 0.1 0.5 -0.3
v 0.2 0.5 -0.3
v 0.7 0.5 -0.3
v 0.8 0.5 -0.3
v 0.4 0.5 -0.4
v 0.5 0.5 -0.4
v 0 0.5 -0.5
v 0.1 0.5 -0.5
v 0.4 0.5 -0.5
v 0.5 0.5 -0.5
v 0.3 0.5 -0.8
v 0.6 0.5 -0.8
v 0.3 0.5 -0.9
v 0.6 0.5 -0.9
v 0.3 0.6 -0.1
v 0.4 0.6 -0.1
v 0.5 0.6 -0.1
v 0.6 0.6 -0.1
v 0.3 0.6 -0.2
v 0.4 0.6 -0.2
v 0.6 0.6 -0.2
v 0.7 0.6 -0.2
v 0.1 0.6 -0.3
v 0.2 0.6 -0.3
v 0.5 0.6 -0.3
v 0.7 0.6 -0.3
v 0.8 0.6 -0.3
v 0.3 0.6 -0.4
v 0.6 0.6 -0.4
v 0.2 0.6 -0.5
v 0.3 0.6 -0.5
v 0.6 0.6 -0.5
v 0.7 0.6 -0.5
v 0.1 0.6 -0.6
v 0.2 0.6 -0.6
v 0.4 0.6 -0.6
v 0.5 0.6 -0.6
v 0.7 0.6 -0.6
v 0.8 0.6 -0.6
v 0.4 0.6 -0.7
v 0.5 0.6 -0.7
v 0.2 0.7 0
v 0.5 0.7 0
v 0.3 0.7 -0.1
v 0.4 0.7 -0.1
v 0.2 0.7 -0.2
v 0.3 0.7 -0.2
v 0.4 0.7 -0.2
v 0.5 0.7 -0.2
v 0.3 0.7 -0.4
v 0.4 0.7 -0.4
v 0.3 0.7 -0.5
v 0.4 0.7 -0.5
v 0.6 0.7 -0.5
v 0.7 0.7 -0.5
v 0.5 0.7 -0.6
v 0.6 0.7 -0.6
v 0.2 0.7 -0.7
v 0.5 0.7 -0.7
v 0.2 0.7 -0.8
v 0.3 0.7 -0.8
v 0.6 0.7 -0.8
v 0.7 0.7 -0.8
v 0.3 0.7 -0.9
v 0.6 0.7 -0.9
v 0.2 0.8 -0.2
v 0.5 0.8 -0.2
v 0.1 0.8 -0.3
v 0.2 0.8 -0.3
v 0.5 0.8 -0.3
v 0.6 0.8 -0.3
v 0.3 0.8 -0.4
v 0.6 0.8 -0.4
v 0.4 0.8 -0.5
v 0.5 0.8 -0.5
v 0.1 0.8 -0.6
v 0.2 0.8 -0.6
v 0.4 0.8 -0.6
v 0.5 0.8 -0.6
v 0.2 0.8 -0.7
v 0.3 0.8 -0.7
v 0.3 0.9 -0.4
v 0.6 0.9 -0.4
v 0.4 0.9 -0.5
v 0.5 0.9 -0.5
v 0.4 0.9 -0.6
v 0.5 0.9 -0.6
v 0.3 0.9 -0.7
v 0.6 0.9 -0.7

# faces
f 3/1/1 2/1/1 1/1/1
f 4/1/1 2/1/1 3/1/1
f 8/5/1 6/5/1 5/5/1
f 8/5/1 7/5/1 6/5/1
f 9/5/1 7/5/1 8/5/1
f 12/4/1 11/4/1 10/4/1
f 13/4/1 11/4/1 12/4/1
f 17/1/1 15/1/1 14/1/1
f 18/1/1 15/1/1 17/1/1
f 22/5/1 17/5/1 16/5/1
f 23/5/1 17/5/1 22/5/1
f 25/5/1 20/5/1 19/5/1
f 26/5/1 20/5/1 25/5/1
f 28/2/1 23/2/1 22/2/1
f 28/2/1 22/2/1 21/2/1
f 29/2/1 23/2/1 28/2/1
f 30/2/1 23/2/1 29/2/1
f 31/6/1 27/6/1 26/6/1
f 31/6/1 26/6/1 25/6/1
f 31/6/1 25/6/1 24/6/1
f 32/6/1 27/6/1 31/6/1
f 33/6/1 27/6/1 32/6/1
f 34/6/1 27/6/1 33/6/1
f 35/4/1 30/4/1 29/4/1
f 36/4/1 30/4/1 35/4/1
f 37/4/1 33/4/1 32/4/1
f 38/4/1 33/4/1 37/4/1
f 43/3/1 40/3/1 39/3/1
f 44/3/1 40/3/1 43/3/1
f 45/1/1 42/1/1 41/1/1
f 46/1/1 42/1/1 45/1/1
f 47/1/1 42/1/1 46/1/1
f 48/1/1 42/1/1 47/1/1
f 49/5/1 44/5/1 43/5/1
f 50/5/1 44/5/1 49/5/1
f 53/5/1 47/5/1 46/5/1
f 54/5/1 47/5/1 53/5/1
f 56/6/1 52/6/1 51/6/1
f 57/6/1 52/6/1 56/6/1
f 58/6/1 55/6/1 54/6/1
f 59/6/1 55/6/1 58/6/1
f 62/3/1 61/3/1 60/3/1
f 63/3/1 61/3/1 62/3/1
f 68/3/1 65/3/1 64/3/1
f 69/3/1 65/3/1 68/3/1
f 70/3/1 67/3/1 66/3/1
f 71/3/1 67/3/1 70/3/1
f 74/2/1 73/2/1 72/2/1
f 75/2/1 73/2/1 74/2/1
f 78/3/1 77/3/1 76/3/1
f 79/3/1 77/3/1 78/3/1
f 84/1/1 81/1/1 80/1/1
f 85/1/1 81/1/1 84/1/1
f 86/5/1 83/5/1 82/5/1
f 87/5/1 83/5/1 86/5/1
f 90/6/1 89/6/1 88/6/1
f 91/6/1 89/6/1 90/6/1
f 94/3/1 93/3/1 92/3/1
f 95/3/1 93/3/1 94/3/1
f 98/3/1 97/3/1 96/3/1
f 99/3/1 97/3/1 98/3/1
f 100/1/2 101/1/2 102/1/2
f 102/1/2 101/1/2 103/1/2
f 104/1/2 105/1/2 106/1/2
f 106/1/2 105/1/2 107/1/2
f 108/2/2 109/2/2 110/2/2
f 110/2/2 109/2/2 111/2/2
f 112/4/2 113/4/2 114/4/2
f 114/4/2 113/4/2 115/4/2
f 116/1/2 117/1/2 120/1/2
f 120/1/2 117/1/2 121/1/2
f 118/5/2 119/5/2 122/5/2
f 122/5/2 119/5/2 123/5/2
f 124/3/2 125/3/2 126/3/2
f 126/3/2 125/3/2 127/3/2
f 128/3/2 129/3/2 130/3/2
f 130/3/2 129/3/2 131/3/2
f 132/3/2 133/3/2 134/3/2
f 134/3/2 133/3/2 135/3/2
f 136/2/2 137/2/2 139/2/2
f 137/2/2 138/2/2 139/2/2
f 139/2/2 138/2/2 140/2/2
f 140/2/2 138/2/2 141/2/2
f 140/4/2 141/4/2 144/4/2
f 144/4/2 141/4/2 145/4/2
f 142/4/2 143/4/2 146/4/2
f 146/4/2 143/4/2 147/4/2
f 148/1/2 149/1/2 152/1/2
f 152/1/2 149/1/2 153/1/2
f 153/1/2 149/1/2 154/1/2
f 154/1/2 149/1/2 155/1/2
f 150/5/2 151/5/2 156/5/2
f 156/5/2 151/5/2 157/5/2
f 153/5/2 154/5/2 160/5/2
f 160/5/2 154/5/2 161/5/2
f 158/6/2 159/6/2 164/6/2
f 164/6/2 159/6/2 165/6/2
f 161/6/2 162/6/2 167/6/2
f 167/6/2 162/6/2 168/6/2
f 165/4/2 166/4/2 169/4/2
f 163/4/2 164/4/2 169/4/2
f 164/4/2 165/4/2 169/4/2
f 169/4/2 166/4/2 170/4/2
f 170/4/2 166/4/2 171/4/2
f 171/3/2 172/3/2 173/3/2
f 170/3/2 171/3/2 173/3/2
f 173/3/2 172/3/2 174/3/2
f 175/3/2 176/3/2 179/3/2
f 179/3/2 176/3/2 180/3/2
f 177/3/2 178/3/2 183/3/2
f 183/3/2 178/3/2 184/3/2
f 181/5/2 182/5/2 187/5/2
f 187/5/2 182/5/2 188/5/2
f 185/5/2 186/5/2 190/5/2
f 190/5/2 186/5/2 191/5/2
f 191/6/2 192/6/2 193/6/2
f 190/6/2 191/6/2 193/6/2
f 189/6/2 190/6/2 193/6/2
f 193/6/2 192/6/2 194/6/2
f 195/3/2 196/3/2 197/3/2
f 197/3/2 196/3/2 198/3/2
f 198/3/2 196/3/2 199/3/2
f 199/5/2 200/5/2 201/5/2
f 198/5/2 199/5/2 201/5/2
f 201/5/2 200/5/2 202/5/2
f 207/2/3 204/2/3 203/2/3
f 208/2/3 204/2/3 207/2/3
f 209/3/3 206/3/3 205/3/3
f 210/3/3 206/3/3 209/3/3
f 214/3/3 212/3/3 211/3/3
f 215/5/3 213/5/3 212/5/3
f 215/3/3 212/3/3 214/3/3
f 216/5/3 213/5/3 215/5/3
f 217/5/3 216/5/3 215/5/3
f 218/5/3 216/5/3 217/5/3
f 221/3/3 220/3/3 219/3/3
f 222/3/3 220/3/3 221/3/3
f 225/1/3 224/1/3 223/1/3
f 229/1/3 225/1/3 223/1/3
f 230/5/3 226/5/3 225/5/3
f 230/1/3 225/1/3 229/1/3
f 231/5/3 226/5/3 230/5/3
f 232/4/3 228/4/3 227/4/3
f 233/2/3 232/2/3 231/2/3
f 234/4/3 228/4/3 232/4/3
f 234/2/3 232/2/3 233/2/3
f 235/4/3 228/4/3 234/4/3
f 236/4/3 228/4/3 235/4/3
f 239/5/3 238/5/3 237/5/3
f 240/5/3 238/5/3 239/5/3
f 245/5/3 242/5/3 241/5/3
f 246/5/3 242/5/3 245/5/3
f 247/4/3 244/4/3 243/4/3
f 248/4/3 244/4/3 247/4/3
f 253/3/3 250/3/3 249/3/3
f 254/3/3 250/3/3 253/3/3
f 255/4/3 252/4/3 251/4/3
f 256/4/3 252/4/3 255/4/3
f 259/5/3 258/5/3 257/5/3
f 260/5/3 258/5/3 259/5/3
f 263/1/3 262/1/3 261/1/3
f 264/1/3 262/1/3 263/1/3
f 269/6/3 266/6/3 265/6/3
f 270/6/3 266/6/3 269/6/3
f 271/3/3 268/3/3 267/3/3
f 272/3/3 268/3/3 271/3/3
f 275/6/3 274/6/3 273/6/3
f 276/6/3 274/6/3 275/6/3
f 280/3/3 277/3/3 276/3/3
f 281/3/3 277/3/3 280/3/3
f 282/5/3 279/5/3 278/5/3
f 283/5/3 279/5/3 282/5/3
f 286/6/3 285/6/3 284/6/3
f 287/6/3 285/6/3 286/6/3
f 292/3/3 291/3/3 290/3/3
f 293/3/3 291/3/3 292/3/3
f 294/1/3 289/1/3 288/1/3
f 295/1/3 289/1/3 294/1/3
f 298/6/3 297/6/3 296/6/3
f 299/6/3 297/6/3 298/6/3
f 302/1/3 301/1/3 300/1/3
f 303/1/3 301/1/3 302/1/3
f 304/2/4 305/2/4 306/2/4
f 306/2/4 305/2/4 307/2/4
f 308/3/4 309/3/4 310/3/4
f 310/3/4 309/3/4 311/3/4
f 312/1/4 313/1/4 314/1/4
f 314/1/4 313/1/4 315/1/4
f 316/2/4 317/2/4 318/2/4
f 318/2/4 317/2/4 319/2/4
f 320/3/4 321/3/4 324/3/4
f 324/3/4 321/3/4 325/3/4
f 322/4/4 323/4/4 327/4/4
f 327/4/4 323/4/4 328/4/4
f 325/5/4 326/5/4 329/5/4
f 329/5/4 326/5/4 330/5/4
f 331/3/4 332/3/4 333/3/4
f 333/3/4 332/3/4 334/3/4
f 335/1/4 336/1/4 337/1/4
f 335/1/4 337/1/4 338/1/4
f 338/1/4 337/1/4 339/1/4
f 342/3/4 343/3/4 344/3/4
f 344/3/4 343/3/4 345/3/4
f 340/3/4 341/3/4 346/3/4
f 346/3/4 341/3/4 347/3/4
f 348/5/4 349/5/4 352/5/4
f 352/5/4 349/5/4 353/5/4
f 350/4/4 351/4/4 354/4/4
f 354/4/4 351/4/4 355/4/4
f 356/3/4 357/3/4 358/3/4
f 358/3/4 357/3/4 359/3/4
f 359/4/4 360/4/4 361/4/4
f 361/4/4 360/4/4 362/4/4
f 363/5/4 364/5/4 365/5/4
f 365/5/4 364/5/4 366/5/4
f 367/5/4 368/5/4 371/5/4
f 371/5/4 368/5/4 372/5/4
f 369/4/4 370/4/4 373/4/4
f 375/1/4 376/1/4 377/1/4
f 377/1/4 376/1/4 378/1/4
f 369/4/4 373/4/4 379/4/4
f 373/3/4 374/3/4 380/3/4
f 379/4/4 373/4/4 380/4/4
f 380/3/4 374/3/4 383/3/4
f 383/3/4 374/3/4 384/3/4
f 381/5/4 382/5/4 385/5/4
f 385/5/4 382/5/4 386/5/4
f 387/6/4 388/6/4 390/6/4
f 390/6/4 388/6/4 391/6/4
f 389/5/4 390/5/4 392/5/4
f 392/5/4 390/5/4 393/5/4
f 393/6/4 394/6/4 395/6/4
f 395/6/4 394/6/4 396/6/4
f 397/1/4 398/1/4 401/1/4
f 401/1/4 398/1/4 402/1/4
f 399/6/4 400/6/4 403/6/4
f 403/6/4 400/6/4 404/6/4
f 408/3/5 406/3/5 405/3/5
f 409/3/5 406/3/5 408/3/5
f 412/3/5 408/3/5 407/3/5
f 412/3/5 410/3/5 409/3/5
f 412/3/5 409/3/5 408/3/5
f 413/3/5 410/3/5 412/3/5
f 414/3/5 410/3/5 413/3/5
f 415/1/5 412/1/5 411/1/5
f 416/1/5 412/1/5 415/1/5
f 417/3/5 413/3/5 412/3/5
f 418/3/5 410/3/5 414/3/5
f 419/1/5 415/1/5 411/1/5
f 420/1/5 412/1/5 416/1/5
f 421/3/5 417/3/5 412/3/5
f 421/3/5 418/3/5 417/3/5
f 421/1/5 412/1/5 420/1/5
f 422/3/5 418/3/5 421/3/5
f 423/3/5 410/3/5 418/3/5
f 423/3/5 418/3/5 422/3/5
f 424/3/5 410/3/5 423/3/5
f 425/1/5 420/1/5 419/1/5
f 425/1/5 419/1/5 411/1/5
f 425/1/5 421/1/5 420/1/5
f 426/1/5 421/1/5 425/1/5
f 427/3/5 423/3/5 422/3/5
f 428/3/5 423/3/5 427/3/5
f 431/1/5 430/1/5 429/1/5
f 432/1/5 430/1/5 431/1/5
f 433/1/5 431/1/5 429/1/5
f 434/1/5 430/1/5 432/1/5
f 435/1/5 433/1/5 429/1/5
f 435/1/5 434/1/5 433/1/5
f 436/1/5 430/1/5 434/1/5
f 436/1/5 434/1/5 435/1/5
f 441/5/5 438/5/5 437/5/5
f 442/5/5 438/5/5 441/5/5
f 443/5/5 440/5/5 439/5/5
f 444/5/5 440/5/5 443/5/5
f 450/5/5 446/5/5 445/5/5
f 451/5/5 446/5/5 450/5/5
f 452/5/5 448/5/5 447/5/5
f 453/5/5 451/5/5 450/5/5
f 453/5/5 452/5/5 451/5/5
f 453/5/5 450/5/5 449/5/5
f 454/5/5 452/5/5 453/5/5
f 455/5/5 452/5/5 454/5/5
f 456/5/5 452/5/5 455/5/5
f 457/5/5 448/5/5 452/5/5
f 457/5/5 452/5/5 456/5/5
f 458/5/5 448/5/5 457/5/5
f 459/5/5 455/5/5 454/5/5
f 460/5/5 455/5/5 459/5/5
f 463/5/5 457/5/5 456/5/5
f 464/5/5 457/5/5 463/5/5
f 465/5/5 462/5/5 461/5/5
f 466/5/5 462/5/5 465/5/5
f 469/2/5 468/2/5 467/2/5
f 470/2/5 468/2/5 469/2/5
f 471/2/5 469/2/5 467/2/5
f 472/2/5 469/2/5 471/2/5
f 475/6/5 474/6/5 473/6/5
f 476/6/5 474/6/5 475/6/5
f 481/6/5 478/6/5 477/6/5
f 482/6/5 478/6/5 481/6/5
f 483/6/5 480/6/5 479/6/5
f 484/6/5 480/6/5 483/6/5
f 485/6/5 483/6/5 482/6/5
f 486/6/5 483/6/5 485/6/5
f 491/4/5 488/4/5 487/4/5
f 491/4/5 490/4/5 489/4/5
f 491/4/5 489/4/5 488/4/5
f 492/4/5 490/4/5 491/4/5
f 493/4/5 491/4/5 487/4/5
f 494/4/5 491/4/5 493/4/5
f 495/4/5 493/4/5 487/4/5
f 496/4/5 493/4/5 495/4/5
f 499/4/5 498/4/5 497/4/5
f 500/4/5 498/4/5 499/4/5
f 503/3/5 502/3/5 501/3/5
f 504/3/5 502/3/5 503/3/5
f 507/3/5 506/3/5 505/3/5
f 508/3/5 506/3/5 507/3/5
f 509/3/6 510/3/6 511/3/6
f 511/3/6 510/3/6 512/3/6
f 512/3/6 510/3/6 513/3/6
f 513/3/6 514/3/6 517/3/6
f 512/3/6 513/3/6 517/3/6
f 517/3/6 514/3/6 518/3/6
f 515/1/6 516/1/6 519/1/6
f 519/1/6 516/1/6 520/1/6
f 518/3/6 514/3/6 521/3/6
f 521/3/6 514/3/6 522/3/6
f 515/1/6 519/1/6 525/1/6
f 525/1/6 519/1/6 526/1/6
f 523/3/6 524/3/6 527/3/6
f 527/3/6 524/3/6 528/3/6
f 529/1/6 530/1/6 531/1/6
f 531/1/6 530/1/6 532/1/6
f 533/5/6 534/5/6 537/5/6
f 537/5/6 534/5/6 538/5/6
f 535/5/6 536/5/6 539/5/6
f 539/5/6 540/5/6 543/5/6
f 535/5/6 539/5/6 543/5/6
f 543/5/6 540/5/6 544/5/6
f 541/5/6 542/5/6 546/5/6
f 544/5/6 545/5/6 546/5/6
f 543/5/6 544/5/6 546/5/6
f 542/5/6 543/5/6 546/5/6
f 546/5/6 545/5/6 547/5/6
f 541/5/6 546/5/6 548/5/6
f 548/5/6 546/5/6 549/5/6
f 547/5/6 545/5/6 550/5/6
f 550/5/6 545/5/6 551/5/6
f 541/5/6 548/5/6 552/5/6
f 552/5/6 548/5/6 553/5/6
f 551/5/6 545/5/6 556/5/6
f 556/5/6 545/5/6 557/5/6
f 554/5/6 555/5/6 558/5/6
f 558/5/6 555/5/6 559/5/6
f 560/2/6 561/2/6 562/2/6
f 562/2/6 561/2/6 563/2/6
f 560/2/6 562/2/6 564/2/6
f 564/2/6 562/2/6 565/2/6
f 563/2/6 561/2/6 566/2/6
f 566/2/6 561/2/6 567/2/6
f 568/6/6 569/6/6 570/6/6
f 570/6/6 569/6/6 571/6/6
f 572/6/6 573/6/6 575/6/6
f 574/6/6 575/6/6 577/6/6
f 576/6/6 577/6/6 578/6/6
f 578/6/6 577/6/6 579/6/6
f 575/6/6 573/6/6 580/6/6
f 579/6/6 577/6/6 580/6/6
f 577/6/6 575/6/6 580/6/6
f 580/6/6 573/6/6 581/6/6
f 579/6/6 580/6/6 582/6/6
f 582/6/6 580/6/6 583/6/6
f 584/4/6 585/4/6 587/4/6
f 587/4/6 585/4/6 588/4/6
f 586/4/6 587/4/6 590/4/6
f 588/4/6 589/4/6 590/4/6
f 587/4/6 588/4/6 590/4/6
f 590/4/6 589/4/6 591/4/6
f 586/4/6 590/4/6 594/4/6
f 594/4/6 590/4/6 595/4/6
f 592/4/6 593/4/6 596/4/6
f 596/4/6 593/4/6 597/4/6
f 595/4/6 590/4/6 598/4/6
f 598/4/6 590/4/6 599/4/6
f 600/3/6 601/3/6 602/3/6
f 602/3/6 601/3/6 603/3/6
f 600/3/6 602/3/6 604/3/6
f 603/3/6 601/3/6 605/3/6
f 600/3/6 604/3/6 606/3/6
f 604/3/6 605/3/6 606/3/6
f 605/3/6 601/3/6 607/3/6
f 606/3/6 605/3/6 607/3/6
