# MagicaVoxel @ Ephtracy

# group
o 

# material
mtllib deco_1.mtl
usemtl palette

# normals
vn -1 0 0
vn 1 0 0
vn 0 0 1
vn 0 0 -1
vn 0 -1 0
vn 0 1 0

# texcoords
vt 0.853516 0.5
vt 0.978516 0.5
vt 0.994141 0.5

# verts
v 0 0.4 -0.1
v 0 0.4 -0.3
v 0 0.4 -0.4
v 0 0.4 -0.7
v 0 0.5 -0.1
v 0 0.5 -0.3
v 0 0.5 -0.4
v 0 0.5 -0.7
v 0.1 0.4 0
v 0.1 0.4 -0.1
v 0.1 0.4 -0.3
v 0.1 0.4 -0.4
v 0.1 0.4 -0.7
v 0.1 0.4 -0.8
v 0.1 0.5 0
v 0.1 0.5 -0.1
v 0.1 0.5 -0.3
v 0.1 0.5 -0.4
v 0.1 0.5 -0.7
v 0.1 0.5 -0.8
v 0.1 0.6 -0.3
v 0.1 0.6 -0.4
v 0.2 0.6 -0.4
v 0.2 0.6 -0.5
v 0.2 0.7 -0.4
v 0.2 0.7 -0.5
v 0.3 0.4 -0.1
v 0.3 0.4 -0.2
v 0.3 0.4 -0.5
v 0.3 0.4 -0.6
v 0.3 0.5 -0.1
v 0.3 0.5 -0.2
v 0.3 0.5 -0.5
v 0.3 0.5 -0.6
v 0.5 0.4 -0.2
v 0.5 0.4 -0.4
v 0.5 0.5 -0.2
v 0.5 0.5 -0.4
v 0.6 0.4 -0.4
v 0.6 0.4 -0.5
v 0.6 0.5 -0.4
v 0.6 0.5 -0.5
v 0.7 0.4 -0.3
v 0.7 0.4 -0.4
v 0.7 0.5 -0.3
v 0.7 0.5 -0.4
v 0.1 0.4 -0.1
v 0.1 0.4 -0.3
v 0.1 0.5 -0.1
v 0.1 0.5 -0.3
v 0.2 0.4 -0.5
v 0.2 0.4 -0.6
v 0.2 0.5 -0.3
v 0.2 0.5 -0.4
v 0.2 0.5 -0.5
v 0.2 0.5 -0.6
v 0.2 0.6 -0.3
v 0.2 0.6 -0.4
v 0.3 0.4 0
v 0.3 0.4 -0.1
v 0.3 0.5 0
v 0.3 0.5 -0.1
v 0.3 0.6 -0.4
v 0.3 0.6 -0.5
v 0.3 0.7 -0.4
v 0.3 0.7 -0.5
v 0.4 0.4 -0.3
v 0.4 0.4 -0.4
v 0.4 0.4 -0.7
v 0.4 0.4 -0.8
v 0.4 0.5 -0.3
v 0.4 0.5 -0.4
v 0.4 0.5 -0.7
v 0.4 0.5 -0.8
v 0.5 0.4 -0.1
v 0.5 0.4 -0.2
v 0.5 0.4 -0.4
v 0.5 0.4 -0.7
v 0.5 0.5 -0.1
v 0.5 0.5 -0.2
v 0.5 0.5 -0.4
v 0.5 0.5 -0.7
v 0.6 0.4 -0.3
v 0.6 0.4 -0.4
v 0.6 0.5 -0.3
v 0.6 0.5 -0.4
v 0.7 0.4 -0.2
v 0.7 0.4 -0.3
v 0.7 0.4 -0.4
v 0.7 0.4 -0.5
v 0.7 0.5 -0.2
v 0.7 0.5 -0.3
v 0.7 0.5 -0.4
v 0.7 0.5 -0.5
v 0.8 0.4 -0.3
v 0.8 0.4 -0.4
v 0.8 0.5 -0.3
v 0.8 0.5 -0.4
v 0.1 0.4 0
v 0.1 0.5 0
v 0.3 0.4 0
v 0.3 0.5 0
v 0 0.4 -0.1
v 0 0.5 -0.1
v 0.1 0.4 -0.1
v 0.1 0.5 -0.1
v 0.3 0.4 -0.1
v 0.3 0.5 -0.1
v 0.5 0.4 -0.1
v 0.5 0.5 -0.1
v 0.5 0.4 -0.2
v 0.5 0.5 -0.2
v 0.7 0.4 -0.2
v 0.7 0.5 -0.2
v 0.1 0.4 -0.3
v 0.1 0.5 -0.3
v 0.1 0.6 -0.3
v 0.2 0.5 -0.3
v 0.2 0.6 -0.3
v 0.4 0.4 -0.3
v 0.4 0.5 -0.3
v 0.7 0.4 -0.3
v 0.7 0.5 -0.3
v 0.8 0.4 -0.3
v 0.8 0.5 -0.3
v 0 0.4 -0.4
v 0 0.5 -0.4
v 0.1 0.4 -0.4
v 0.1 0.5 -0.4
v 0.2 0.6 -0.4
v 0.2 0.7 -0.4
v 0.3 0.6 -0.4
v 0.3 0.7 -0.4
v 0.4 0.4 -0.4
v 0.4 0.5 -0.4
v 0.5 0.4 -0.4
v 0.5 0.5 -0.4
v 0.6 0.4 -0.4
v 0.6 0.5 -0.4
v 0.7 0.4 -0.4
v 0.7 0.5 -0.4
v 0.2 0.4 -0.6
v 0.2 0.5 -0.6
v 0.3 0.4 -0.6
v 0.3 0.5 -0.6
v 0.1 0.4 -0.1
v 0.1 0.5 -0.1
v 0.3 0.4 -0.1
v 0.3 0.5 -0.1
v 0.3 0.4 -0.2
v 0.3 0.5 -0.2
v 0.5 0.4 -0.2
v 0.5 0.5 -0.2
v 0 0.4 -0.3
v 0 0.5 -0.3
v 0.1 0.4 -0.3
v 0.1 0.5 -0.3
v 0.6 0.4 -0.3
v 0.6 0.5 -0.3
v 0.7 0.4 -0.3
v 0.7 0.5 -0.3
v 0.1 0.5 -0.4
v 0.1 0.6 -0.4
v 0.2 0.5 -0.4
v 0.2 0.6 -0.4
v 0.5 0.4 -0.4
v 0.5 0.5 -0.4
v 0.6 0.4 -0.4
v 0.6 0.5 -0.4
v 0.7 0.4 -0.4
v 0.7 0.5 -0.4
v 0.8 0.4 -0.4
v 0.8 0.5 -0.4
v 0.2 0.4 -0.5
v 0.2 0.5 -0.5
v 0.2 0.6 -0.5
v 0.2 0.7 -0.5
v 0.3 0.4 -0.5
v 0.3 0.5 -0.5
v 0.3 0.6 -0.5
v 0.3 0.7 -0.5
v 0.6 0.4 -0.5
v 0.6 0.5 -0.5
v 0.7 0.4 -0.5
v 0.7 0.5 -0.5
v 0 0.4 -0.7
v 0 0.5 -0.7
v 0.1 0.4 -0.7
v 0.1 0.5 -0.7
v 0.4 0.4 -0.7
v 0.4 0.5 -0.7
v 0.5 0.4 -0.7
v 0.5 0.5 -0.7
v 0.1 0.4 -0.8
v 0.1 0.5 -0.8
v 0.4 0.4 -0.8
v 0.4 0.5 -0.8
v 0.1 0.4 0
v 0.3 0.4 0
v 0 0.4 -0.1
v 0.1 0.4 -0.1
v 0.3 0.4 -0.1
v 0.5 0.4 -0.1
v 0.3 0.4 -0.2
v 0.5 0.4 -0.2
v 0.7 0.4 -0.2
v 0 0.4 -0.3
v 0.1 0.4 -0.3
v 0.4 0.4 -0.3
v 0.6 0.4 -0.3
v 0.7 0.4 -0.3
v 0.8 0.4 -0.3
v 0 0.4 -0.4
v 0.1 0.4 -0.4
v 0.4 0.4 -0.4
v 0.5 0.4 -0.4
v 0.6 0.4 -0.4
v 0.7 0.4 -0.4
v 0.8 0.4 -0.4
v 0.2 0.4 -0.5
v 0.3 0.4 -0.5
v 0.6 0.4 -0.5
v 0.7 0.4 -0.5
v 0.2 0.4 -0.6
v 0.3 0.4 -0.6
v 0 0.4 -0.7
v 0.1 0.4 -0.7
v 0.4 0.4 -0.7
v 0.5 0.4 -0.7
v 0.1 0.4 -0.8
v 0.4 0.4 -0.8
v 0.2 0.6 -0.4
v 0.3 0.6 -0.4
v 0.2 0.6 -0.5
v 0.3 0.6 -0.5
v 0.1 0.5 0
v 0.3 0.5 0
v 0 0.5 -0.1
v 0.1 0.5 -0.1
v 0.3 0.5 -0.1
v 0.5 0.5 -0.1
v 0.3 0.5 -0.2
v 0.5 0.5 -0.2
v 0.7 0.5 -0.2
v 0 0.5 -0.3
v 0.1 0.5 -0.3
v 0.2 0.5 -0.3
v 0.4 0.5 -0.3
v 0.6 0.5 -0.3
v 0.7 0.5 -0.3
v 0.8 0.5 -0.3
v 0 0.5 -0.4
v 0.1 0.5 -0.4
v 0.2 0.5 -0.4
v 0.4 0.5 -0.4
v 0.5 0.5 -0.4
v 0.6 0.5 -0.4
v 0.7 0.5 -0.4
v 0.8 0.5 -0.4
v 0.2 0.5 -0.5
v 0.3 0.5 -0.5
v 0.6 0.5 -0.5
v 0.7 0.5 -0.5
v 0.2 0.5 -0.6
v 0.3 0.5 -0.6
v 0 0.5 -0.7
v 0.1 0.5 -0.7
v 0.4 0.5 -0.7
v 0.5 0.5 -0.7
v 0.1 0.5 -0.8
v 0.4 0.5 -0.8
v 0.1 0.6 -0.3
v 0.2 0.6 -0.3
v 0.1 0.6 -0.4
v 0.2 0.6 -0.4
v 0.2 0.7 -0.4
v 0.3 0.7 -0.4
v 0.2 0.7 -0.5
v 0.3 0.7 -0.5

# faces
f 5/1/1 2/1/1 1/1/1
f 6/1/1 2/1/1 5/1/1
f 7/2/1 4/2/1 3/2/1
f 8/2/1 4/2/1 7/2/1
f 15/1/1 10/1/1 9/1/1
f 16/1/1 10/1/1 15/1/1
f 17/2/1 12/2/1 11/2/1
f 18/2/1 12/2/1 17/2/1
f 19/2/1 14/2/1 13/2/1
f 20/2/1 14/2/1 19/2/1
f 21/1/1 18/1/1 17/1/1
f 22/1/1 18/1/1 21/1/1
f 25/1/1 24/1/1 23/1/1
f 26/1/1 24/1/1 25/1/1
f 31/1/1 28/1/1 27/1/1
f 32/1/1 28/1/1 31/1/1
f 33/2/1 30/2/1 29/2/1
f 34/2/1 30/2/1 33/2/1
f 37/1/1 36/1/1 35/1/1
f 38/1/1 36/1/1 37/1/1
f 41/3/1 40/3/1 39/3/1
f 42/3/1 40/3/1 41/3/1
f 45/3/1 44/3/1 43/3/1
f 46/3/1 44/3/1 45/3/1
f 47/1/2 48/1/2 49/1/2
f 49/1/2 48/1/2 50/1/2
f 51/2/2 52/2/2 55/2/2
f 55/2/2 52/2/2 56/2/2
f 53/1/2 54/1/2 57/1/2
f 57/1/2 54/1/2 58/1/2
f 59/1/2 60/1/2 61/1/2
f 61/1/2 60/1/2 62/1/2
f 63/1/2 64/1/2 65/1/2
f 65/1/2 64/1/2 66/1/2
f 67/2/2 68/2/2 71/2/2
f 71/2/2 68/2/2 72/2/2
f 69/2/2 70/2/2 73/2/2
f 73/2/2 70/2/2 74/2/2
f 75/1/2 76/1/2 79/1/2
f 79/1/2 76/1/2 80/1/2
f 77/2/2 78/2/2 81/2/2
f 81/2/2 78/2/2 82/2/2
f 83/1/2 84/1/2 85/1/2
f 85/1/2 84/1/2 86/1/2
f 87/1/2 88/1/2 91/1/2
f 91/1/2 88/1/2 92/1/2
f 89/3/2 90/3/2 93/3/2
f 93/3/2 90/3/2 94/3/2
f 95/3/2 96/3/2 97/3/2
f 97/3/2 96/3/2 98/3/2
f 101/1/3 100/1/3 99/1/3
f 102/1/3 100/1/3 101/1/3
f 105/1/3 104/1/3 103/1/3
f 106/1/3 104/1/3 105/1/3
f 109/1/3 108/1/3 107/1/3
f 110/1/3 108/1/3 109/1/3
f 113/1/3 112/1/3 111/1/3
f 114/1/3 112/1/3 113/1/3
f 118/2/3 116/2/3 115/2/3
f 118/1/3 117/1/3 116/1/3
f 119/1/3 117/1/3 118/1/3
f 120/2/3 118/2/3 115/2/3
f 121/2/3 118/2/3 120/2/3
f 124/3/3 123/3/3 122/3/3
f 125/3/3 123/3/3 124/3/3
f 128/2/3 127/2/3 126/2/3
f 129/2/3 127/2/3 128/2/3
f 132/1/3 131/1/3 130/1/3
f 133/1/3 131/1/3 132/1/3
f 136/2/3 135/2/3 134/2/3
f 137/2/3 135/2/3 136/2/3
f 140/3/3 139/3/3 138/3/3
f 141/3/3 139/3/3 140/3/3
f 144/2/3 143/2/3 142/2/3
f 145/2/3 143/2/3 144/2/3
f 146/1/4 147/1/4 148/1/4
f 148/1/4 147/1/4 149/1/4
f 150/1/4 151/1/4 152/1/4
f 152/1/4 151/1/4 153/1/4
f 154/1/4 155/1/4 156/1/4
f 156/1/4 155/1/4 157/1/4
f 158/1/4 159/1/4 160/1/4
f 160/1/4 159/1/4 161/1/4
f 162/1/4 163/1/4 164/1/4
f 164/1/4 163/1/4 165/1/4
f 166/1/4 167/1/4 168/1/4
f 168/1/4 167/1/4 169/1/4
f 170/3/4 171/3/4 172/3/4
f 172/3/4 171/3/4 173/3/4
f 174/2/4 175/2/4 178/2/4
f 178/2/4 175/2/4 179/2/4
f 176/1/4 177/1/4 180/1/4
f 180/1/4 177/1/4 181/1/4
f 182/3/4 183/3/4 184/3/4
f 184/3/4 183/3/4 185/3/4
f 186/2/4 187/2/4 188/2/4
f 188/2/4 187/2/4 189/2/4
f 190/2/4 191/2/4 192/2/4
f 192/2/4 191/2/4 193/2/4
f 194/2/4 195/2/4 196/2/4
f 196/2/4 195/2/4 197/2/4
f 201/1/5 199/1/5 198/1/5
f 202/1/5 199/1/5 201/1/5
f 204/1/5 203/1/5 202/1/5
f 205/1/5 203/1/5 204/1/5
f 207/1/5 201/1/5 200/1/5
f 208/1/5 201/1/5 207/1/5
f 210/1/5 206/1/5 205/1/5
f 211/1/5 206/1/5 210/1/5
f 214/2/5 209/2/5 208/2/5
f 215/2/5 209/2/5 214/2/5
f 216/1/5 210/1/5 205/1/5
f 217/1/5 210/1/5 216/1/5
f 218/3/5 212/3/5 211/3/5
f 219/3/5 212/3/5 218/3/5
f 220/2/5 215/2/5 214/2/5
f 220/2/5 214/2/5 213/2/5
f 220/2/5 216/2/5 215/2/5
f 221/2/5 216/2/5 220/2/5
f 222/3/5 218/3/5 217/3/5
f 223/3/5 218/3/5 222/3/5
f 224/2/5 220/2/5 213/2/5
f 225/2/5 216/2/5 221/2/5
f 226/2/5 224/2/5 213/2/5
f 226/2/5 225/2/5 224/2/5
f 227/2/5 225/2/5 226/2/5
f 228/2/5 216/2/5 225/2/5
f 228/2/5 225/2/5 227/2/5
f 229/2/5 216/2/5 228/2/5
f 230/2/5 228/2/5 227/2/5
f 231/2/5 228/2/5 230/2/5
f 234/1/5 233/1/5 232/1/5
f 235/1/5 233/1/5 234/1/5
f 236/1/6 237/1/6 239/1/6
f 239/1/6 237/1/6 240/1/6
f 240/1/6 241/1/6 242/1/6
f 242/1/6 241/1/6 243/1/6
f 238/1/6 239/1/6 245/1/6
f 245/1/6 239/1/6 246/1/6
f 243/1/6 244/1/6 249/1/6
f 249/1/6 244/1/6 250/1/6
f 247/2/6 248/2/6 254/2/6
f 254/2/6 248/2/6 255/2/6
f 243/1/6 249/1/6 256/1/6
f 256/1/6 249/1/6 257/1/6
f 250/3/6 251/3/6 258/3/6
f 258/3/6 251/3/6 259/3/6
f 252/2/6 253/2/6 260/2/6
f 254/2/6 255/2/6 260/2/6
f 253/2/6 254/2/6 260/2/6
f 255/2/6 256/2/6 260/2/6
f 260/2/6 256/2/6 261/2/6
f 257/3/6 258/3/6 262/3/6
f 262/3/6 258/3/6 263/3/6
f 252/2/6 260/2/6 264/2/6
f 261/2/6 256/2/6 265/2/6
f 252/2/6 264/2/6 266/2/6
f 264/2/6 265/2/6 266/2/6
f 266/2/6 265/2/6 267/2/6
f 265/2/6 256/2/6 268/2/6
f 267/2/6 265/2/6 268/2/6
f 268/2/6 256/2/6 269/2/6
f 267/2/6 268/2/6 270/2/6
f 270/2/6 268/2/6 271/2/6
f 272/1/6 273/1/6 274/1/6
f 274/1/6 273/1/6 275/1/6
f 276/1/6 277/1/6 278/1/6
f 278/1/6 277/1/6 279/1/6
