# MagicaVoxel @ Ephtracy

# group
o 

# material
mtllib deco_5.mtl
usemtl palette

# normals
vn -1 0 0
vn 1 0 0
vn 0 0 1
vn 0 0 -1
vn 0 -1 0
vn 0 1 0

# texcoords
vt 0.982422 0.5

# verts
v 0.1 0.4 -0.1
v 0.1 0.4 -0.2
v 0.1 0.4 -0.4
v 0.1 0.4 -0.5
v 0.1 0.4 -0.6
v 0.1 0.4 -0.7
v 0.1 0.5 -0.6
v 0.1 0.5 -0.7
v 0.1 0.7 -0.1
v 0.1 0.7 -0.2
v 0.1 0.8 -0.4
v 0.1 0.8 -0.5
v 0.2 0.4 -0.2
v 0.2 0.4 -0.4
v 0.2 0.5 -0.2
v 0.2 0.5 -0.3
v 0.2 0.6 -0.3
v 0.2 0.6 -0.4
v 0.3 0.4 0
v 0.3 0.4 -0.1
v 0.3 0.4 -0.5
v 0.3 0.4 -0.6
v 0.3 0.5 0
v 0.3 0.5 -0.1
v 0.3 0.6 -0.3
v 0.3 0.6 -0.4
v 0.3 0.7 -0.5
v 0.3 0.7 -0.6
v 0.3 1.2 -0.3
v 0.3 1.2 -0.4
v 0.4 0.4 -0.1
v 0.4 0.4 -0.2
v 0.4 0.4 -0.6
v 0.4 0.4 -0.7
v 0.4 0.5 0
v 0.4 0.5 -0.1
v 0.4 0.5 -0.2
v 0.4 0.6 -0.1
v 0.4 0.6 -0.2
v 0.4 0.6 -0.6
v 0.4 0.6 -0.7
v 0.4 0.8 0
v 0.4 0.8 -0.1
v 0.5 0.4 -0.4
v 0.5 0.4 -0.5
v 0.5 0.5 -0.4
v 0.5 0.5 -0.5
v 0.6 0.4 -0.2
v 0.6 0.4 -0.3
v 0.6 0.4 -0.6
v 0.6 0.4 -0.7
v 0.6 0.5 -0.2
v 0.6 0.5 -0.3
v 0.6 0.5 -0.6
v 0.6 0.5 -0.7
v 0.2 0.4 -0.1
v 0.2 0.4 -0.2
v 0.2 0.4 -0.4
v 0.2 0.4 -0.5
v 0.2 0.4 -0.6
v 0.2 0.4 -0.7
v 0.2 0.5 -0.2
v 0.2 0.5 -0.6
v 0.2 0.5 -0.7
v 0.2 0.6 -0.4
v 0.2 0.7 -0.1
v 0.2 0.7 -0.2
v 0.2 0.8 -0.4
v 0.2 0.8 -0.5
v 0.4 0.4 -0.2
v 0.4 0.4 -0.3
v 0.4 0.4 -0.5
v 0.4 0.4 -0.6
v 0.4 0.5 -0.2
v 0.4 0.5 -0.3
v 0.4 0.6 -0.3
v 0.4 0.6 -0.4
v 0.4 0.6 -0.6
v 0.4 0.7 -0.5
v 0.4 0.7 -0.6
v 0.4 1.2 -0.3
v 0.4 1.2 -0.4
v 0.5 0.4 0
v 0.5 0.4 -0.2
v 0.5 0.4 -0.3
v 0.5 0.4 -0.4
v 0.5 0.4 -0.6
v 0.5 0.4 -0.7
v 0.5 0.5 -0.4
v 0.5 0.6 -0.1
v 0.5 0.6 -0.2
v 0.5 0.6 -0.3
v 0.5 0.6 -0.4
v 0.5 0.6 -0.6
v 0.5 0.6 -0.7
v 0.5 0.8 0
v 0.5 0.8 -0.1
v 0.6 0.4 -0.4
v 0.6 0.4 -0.5
v 0.6 0.5 -0.4
v 0.6 0.5 -0.5
v 0.7 0.4 -0.2
v 0.7 0.4 -0.3
v 0.7 0.4 -0.6
v 0.7 0.4 -0.7
v 0.7 0.5 -0.2
v 0.7 0.5 -0.3
v 0.7 0.5 -0.6
v 0.7 0.5 -0.7
v 0.3 0.4 0
v 0.3 0.5 0
v 0.4 0.5 0
v 0.4 0.8 0
v 0.5 0.4 0
v 0.5 0.8 0
v 0.1 0.4 -0.1
v 0.1 0.7 -0.1
v 0.2 0.4 -0.1
v 0.2 0.7 -0.1
v 0.2 0.4 -0.2
v 0.2 0.5 -0.2
v 0.4 0.4 -0.2
v 0.4 0.5 -0.2
v 0.6 0.4 -0.2
v 0.6 0.5 -0.2
v 0.7 0.4 -0.2
v 0.7 0.5 -0.2
v 0.2 0.5 -0.3
v 0.2 0.6 -0.3
v 0.3 0.6 -0.3
v 0.3 1.2 -0.3
v 0.4 0.4 -0.3
v 0.4 0.5 -0.3
v 0.4 0.6 -0.3
v 0.4 1.2 -0.3
v 0.5 0.4 -0.3
v 0.5 0.6 -0.3
v 0.1 0.4 -0.4
v 0.1 0.8 -0.4
v 0.2 0.4 -0.4
v 0.2 0.6 -0.4
v 0.2 0.8 -0.4
v 0.5 0.4 -0.4
v 0.5 0.5 -0.4
v 0.6 0.4 -0.4
v 0.6 0.5 -0.4
v 0.3 0.4 -0.5
v 0.3 0.7 -0.5
v 0.4 0.4 -0.5
v 0.4 0.7 -0.5
v 0.1 0.4 -0.6
v 0.1 0.5 -0.6
v 0.2 0.4 -0.6
v 0.2 0.5 -0.6
v 0.4 0.4 -0.6
v 0.4 0.6 -0.6
v 0.5 0.4 -0.6
v 0.5 0.6 -0.6
v 0.6 0.4 -0.6
v 0.6 0.5 -0.6
v 0.7 0.4 -0.6
v 0.7 0.5 -0.6
v 0.3 0.4 -0.1
v 0.3 0.5 -0.1
v 0.4 0.4 -0.1
v 0.4 0.5 -0.1
v 0.4 0.6 -0.1
v 0.4 0.8 -0.1
v 0.5 0.6 -0.1
v 0.5 0.8 -0.1
v 0.1 0.4 -0.2
v 0.1 0.7 -0.2
v 0.2 0.4 -0.2
v 0.2 0.5 -0.2
v 0.2 0.7 -0.2
v 0.4 0.4 -0.2
v 0.4 0.5 -0.2
v 0.4 0.6 -0.2
v 0.5 0.4 -0.2
v 0.5 0.6 -0.2
v 0.6 0.4 -0.3
v 0.6 0.5 -0.3
v 0.7 0.4 -0.3
v 0.7 0.5 -0.3
v 0.2 0.4 -0.4
v 0.2 0.6 -0.4
v 0.3 0.6 -0.4
v 0.3 1.2 -0.4
v 0.4 0.6 -0.4
v 0.4 1.2 -0.4
v 0.5 0.4 -0.4
v 0.5 0.5 -0.4
v 0.5 0.6 -0.4
v 0.1 0.4 -0.5
v 0.1 0.8 -0.5
v 0.2 0.4 -0.5
v 0.2 0.8 -0.5
v 0.5 0.4 -0.5
v 0.5 0.5 -0.5
v 0.6 0.4 -0.5
v 0.6 0.5 -0.5
v 0.3 0.4 -0.6
v 0.3 0.7 -0.6
v 0.4 0.4 -0.6
v 0.4 0.6 -0.6
v 0.4 0.7 -0.6
v 0.1 0.4 -0.7
v 0.1 0.5 -0.7
v 0.2 0.4 -0.7
v 0.2 0.5 -0.7
v 0.4 0.4 -0.7
v 0.4 0.6 -0.7
v 0.5 0.4 -0.7
v 0.5 0.6 -0.7
v 0.6 0.4 -0.7
v 0.6 0.5 -0.7
v 0.7 0.4 -0.7
v 0.7 0.5 -0.7
v 0.3 0.4 0
v 0.5 0.4 0
v 0.1 0.4 -0.1
v 0.2 0.4 -0.1
v 0.3 0.4 -0.1
v 0.4 0.4 -0.1
v 0.1 0.4 -0.2
v 0.2 0.4 -0.2
v 0.4 0.4 -0.2
v 0.5 0.4 -0.2
v 0.6 0.4 -0.2
v 0.7 0.4 -0.2
v 0.4 0.4 -0.3
v 0.5 0.4 -0.3
v 0.6 0.4 -0.3
v 0.7 0.4 -0.3
v 0.1 0.4 -0.4
v 0.2 0.4 -0.4
v 0.5 0.4 -0.4
v 0.6 0.4 -0.4
v 0.1 0.4 -0.5
v 0.2 0.4 -0.5
v 0.3 0.4 -0.5
v 0.4 0.4 -0.5
v 0.5 0.4 -0.5
v 0.6 0.4 -0.5
v 0.1 0.4 -0.6
v 0.2 0.4 -0.6
v 0.3 0.4 -0.6
v 0.4 0.4 -0.6
v 0.5 0.4 -0.6
v 0.6 0.4 -0.6
v 0.7 0.4 -0.6
v 0.1 0.4 -0.7
v 0.2 0.4 -0.7
v 0.4 0.4 -0.7
v 0.5 0.4 -0.7
v 0.6 0.4 -0.7
v 0.7 0.4 -0.7
v 0.3 0.5 0
v 0.4 0.5 0
v 0.3 0.5 -0.1
v 0.4 0.5 -0.1
v 0.2 0.5 -0.2
v 0.4 0.5 -0.2
v 0.6 0.5 -0.2
v 0.7 0.5 -0.2
v 0.2 0.5 -0.3
v 0.4 0.5 -0.3
v 0.6 0.5 -0.3
v 0.7 0.5 -0.3
v 0.5 0.5 -0.4
v 0.6 0.5 -0.4
v 0.5 0.5 -0.5
v 0.6 0.5 -0.5
v 0.1 0.5 -0.6
v 0.2 0.5 -0.6
v 0.6 0.5 -0.6
v 0.7 0.5 -0.6
v 0.1 0.5 -0.7
v 0.2 0.5 -0.7
v 0.6 0.5 -0.7
v 0.7 0.5 -0.7
v 0.4 0.6 -0.1
v 0.5 0.6 -0.1
v 0.4 0.6 -0.2
v 0.5 0.6 -0.2
v 0.2 0.6 -0.3
v 0.3 0.6 -0.3
v 0.4 0.6 -0.3
v 0.5 0.6 -0.3
v 0.2 0.6 -0.4
v 0.3 0.6 -0.4
v 0.4 0.6 -0.4
v 0.5 0.6 -0.4
v 0.4 0.6 -0.6
v 0.5 0.6 -0.6
v 0.4 0.6 -0.7
v 0.5 0.6 -0.7
v 0.1 0.7 -0.1
v 0.2 0.7 -0.1
v 0.1 0.7 -0.2
v 0.2 0.7 -0.2
v 0.3 0.7 -0.5
v 0.4 0.7 -0.5
v 0.3 0.7 -0.6
v 0.4 0.7 -0.6
v 0.4 0.8 0
v 0.5 0.8 0
v 0.4 0.8 -0.1
v 0.5 0.8 -0.1
v 0.1 0.8 -0.4
v 0.2 0.8 -0.4
v 0.1 0.8 -0.5
v 0.2 0.8 -0.5
v 0.3 1.2 -0.3
v 0.4 1.2 -0.3
v 0.3 1.2 -0.4
v 0.4 1.2 -0.4

# faces
f 7/1/1 6/1/1 5/1/1
f 8/1/1 6/1/1 7/1/1
f 9/1/1 2/1/1 1/1/1
f 10/1/1 2/1/1 9/1/1
f 11/1/1 4/1/1 3/1/1
f 12/1/1 4/1/1 11/1/1
f 15/1/1 14/1/1 13/1/1
f 16/1/1 14/1/1 15/1/1
f 17/1/1 14/1/1 16/1/1
f 18/1/1 14/1/1 17/1/1
f 23/1/1 20/1/1 19/1/1
f 24/1/1 20/1/1 23/1/1
f 27/1/1 22/1/1 21/1/1
f 28/1/1 22/1/1 27/1/1
f 29/1/1 26/1/1 25/1/1
f 30/1/1 26/1/1 29/1/1
f 36/1/1 32/1/1 31/1/1
f 37/1/1 32/1/1 36/1/1
f 38/1/1 36/1/1 35/1/1
f 38/1/1 37/1/1 36/1/1
f 39/1/1 37/1/1 38/1/1
f 40/1/1 34/1/1 33/1/1
f 41/1/1 34/1/1 40/1/1
f 42/1/1 38/1/1 35/1/1
f 43/1/1 38/1/1 42/1/1
f 46/1/1 45/1/1 44/1/1
f 47/1/1 45/1/1 46/1/1
f 52/1/1 49/1/1 48/1/1
f 53/1/1 49/1/1 52/1/1
f 54/1/1 51/1/1 50/1/1
f 55/1/1 51/1/1 54/1/1
f 56/1/2 57/1/2 62/1/2
f 60/1/2 61/1/2 63/1/2
f 63/1/2 61/1/2 64/1/2
f 58/1/2 59/1/2 65/1/2
f 56/1/2 62/1/2 66/1/2
f 66/1/2 62/1/2 67/1/2
f 65/1/2 59/1/2 68/1/2
f 68/1/2 59/1/2 69/1/2
f 70/1/2 71/1/2 74/1/2
f 74/1/2 71/1/2 75/1/2
f 72/1/2 73/1/2 78/1/2
f 72/1/2 78/1/2 79/1/2
f 79/1/2 78/1/2 80/1/2
f 76/1/2 77/1/2 81/1/2
f 81/1/2 77/1/2 82/1/2
f 85/1/2 86/1/2 89/1/2
f 83/1/2 84/1/2 90/1/2
f 90/1/2 84/1/2 91/1/2
f 85/1/2 89/1/2 92/1/2
f 92/1/2 89/1/2 93/1/2
f 87/1/2 88/1/2 94/1/2
f 94/1/2 88/1/2 95/1/2
f 83/1/2 90/1/2 96/1/2
f 96/1/2 90/1/2 97/1/2
f 98/1/2 99/1/2 100/1/2
f 100/1/2 99/1/2 101/1/2
f 102/1/2 103/1/2 106/1/2
f 106/1/2 103/1/2 107/1/2
f 104/1/2 105/1/2 108/1/2
f 108/1/2 105/1/2 109/1/2
f 112/1/3 111/1/3 110/1/3
f 114/1/3 112/1/3 110/1/3
f 114/1/3 113/1/3 112/1/3
f 115/1/3 113/1/3 114/1/3
f 118/1/3 117/1/3 116/1/3
f 119/1/3 117/1/3 118/1/3
f 122/1/3 121/1/3 120/1/3
f 123/1/3 121/1/3 122/1/3
f 126/1/3 125/1/3 124/1/3
f 127/1/3 125/1/3 126/1/3
f 130/1/3 129/1/3 128/1/3
f 133/1/3 130/1/3 128/1/3
f 133/1/3 131/1/3 130/1/3
f 134/1/3 131/1/3 133/1/3
f 135/1/3 131/1/3 134/1/3
f 136/1/3 133/1/3 132/1/3
f 136/1/3 134/1/3 133/1/3
f 137/1/3 134/1/3 136/1/3
f 140/1/3 139/1/3 138/1/3
f 141/1/3 139/1/3 140/1/3
f 142/1/3 139/1/3 141/1/3
f 145/1/3 144/1/3 143/1/3
f 146/1/3 144/1/3 145/1/3
f 149/1/3 148/1/3 147/1/3
f 150/1/3 148/1/3 149/1/3
f 153/1/3 152/1/3 151/1/3
f 154/1/3 152/1/3 153/1/3
f 157/1/3 156/1/3 155/1/3
f 158/1/3 156/1/3 157/1/3
f 161/1/3 160/1/3 159/1/3
f 162/1/3 160/1/3 161/1/3
f 163/1/4 164/1/4 165/1/4
f 165/1/4 164/1/4 166/1/4
f 167/1/4 168/1/4 169/1/4
f 169/1/4 168/1/4 170/1/4
f 171/1/4 172/1/4 173/1/4
f 173/1/4 172/1/4 174/1/4
f 174/1/4 172/1/4 175/1/4
f 176/1/4 177/1/4 179/1/4
f 177/1/4 178/1/4 179/1/4
f 179/1/4 178/1/4 180/1/4
f 181/1/4 182/1/4 183/1/4
f 183/1/4 182/1/4 184/1/4
f 185/1/4 186/1/4 187/1/4
f 185/1/4 187/1/4 189/1/4
f 187/1/4 188/1/4 189/1/4
f 189/1/4 188/1/4 190/1/4
f 185/1/4 189/1/4 191/1/4
f 191/1/4 189/1/4 192/1/4
f 192/1/4 189/1/4 193/1/4
f 194/1/4 195/1/4 196/1/4
f 196/1/4 195/1/4 197/1/4
f 198/1/4 199/1/4 200/1/4
f 200/1/4 199/1/4 201/1/4
f 202/1/4 203/1/4 204/1/4
f 204/1/4 203/1/4 205/1/4
f 205/1/4 203/1/4 206/1/4
f 207/1/4 208/1/4 209/1/4
f 209/1/4 208/1/4 210/1/4
f 211/1/4 212/1/4 213/1/4
f 213/1/4 212/1/4 214/1/4
f 215/1/4 216/1/4 217/1/4
f 217/1/4 216/1/4 218/1/4
f 223/1/5 220/1/5 219/1/5
f 224/1/5 220/1/5 223/1/5
f 225/1/5 222/1/5 221/1/5
f 226/1/5 222/1/5 225/1/5
f 227/1/5 220/1/5 224/1/5
f 228/1/5 220/1/5 227/1/5
f 231/1/5 227/1/5 226/1/5
f 233/1/5 230/1/5 229/1/5
f 234/1/5 230/1/5 233/1/5
f 236/1/5 232/1/5 231/1/5
f 236/1/5 231/1/5 226/1/5
f 237/1/5 232/1/5 236/1/5
f 239/1/5 236/1/5 235/1/5
f 240/1/5 236/1/5 239/1/5
f 243/1/5 238/1/5 237/1/5
f 244/1/5 238/1/5 243/1/5
f 247/1/5 242/1/5 241/1/5
f 248/1/5 242/1/5 247/1/5
f 252/1/5 246/1/5 245/1/5
f 253/1/5 246/1/5 252/1/5
f 254/1/5 249/1/5 248/1/5
f 255/1/5 249/1/5 254/1/5
f 256/1/5 251/1/5 250/1/5
f 257/1/5 251/1/5 256/1/5
f 258/1/6 259/1/6 260/1/6
f 260/1/6 259/1/6 261/1/6
f 262/1/6 263/1/6 266/1/6
f 266/1/6 263/1/6 267/1/6
f 264/1/6 265/1/6 268/1/6
f 268/1/6 265/1/6 269/1/6
f 270/1/6 271/1/6 272/1/6
f 272/1/6 271/1/6 273/1/6
f 274/1/6 275/1/6 278/1/6
f 278/1/6 275/1/6 279/1/6
f 276/1/6 277/1/6 280/1/6
f 280/1/6 277/1/6 281/1/6
f 282/1/6 283/1/6 284/1/6
f 284/1/6 283/1/6 285/1/6
f 286/1/6 287/1/6 290/1/6
f 290/1/6 287/1/6 291/1/6
f 288/1/6 289/1/6 292/1/6
f 292/1/6 289/1/6 293/1/6
f 294/1/6 295/1/6 296/1/6
f 296/1/6 295/1/6 297/1/6
f 298/1/6 299/1/6 300/1/6
f 300/1/6 299/1/6 301/1/6
f 302/1/6 303/1/6 304/1/6
f 304/1/6 303/1/6 305/1/6
f 306/1/6 307/1/6 308/1/6
f 308/1/6 307/1/6 309/1/6
f 310/1/6 311/1/6 312/1/6
f 312/1/6 311/1/6 313/1/6
f 314/1/6 315/1/6 316/1/6
f 316/1/6 315/1/6 317/1/6
