# MagicaVoxel @ Ephtracy

# group
o 

# material
mtllib deco_12.mtl
usemtl palette

# normals
vn -1 0 0
vn 1 0 0
vn 0 0 1
vn 0 0 -1
vn 0 -1 0
vn 0 1 0

# texcoords
vt 0.537109 0.5
vt 0.865234 0.5
vt 0.916016 0.5
vt 0.986328 0.5

# verts
v 0 0.5 -0.1
v 0 0.5 -0.8
v 0 0.6 -0.1
v 0 0.6 -0.8
v 0.1 0.4 -0.1
v 0.1 0.4 -0.8
v 0.1 0.5 0
v 0.1 0.5 -0.1
v 0.1 0.5 -0.8
v 0.1 0.5 -0.9
v 0.1 0.6 0
v 0.1 0.6 -0.1
v 0.1 0.6 -0.2
v 0.1 0.6 -0.8
v 0.1 0.6 -0.9
v 0.1 0.7 -0.1
v 0.1 0.7 -0.2
v 0.2 0.6 -0.4
v 0.2 0.6 -0.5
v 0.2 0.7 -0.4
v 0.2 0.7 -0.5
v 0.3 0.4 -0.8
v 0.3 0.4 -0.9
v 0.3 0.5 -0.8
v 0.3 0.5 -0.9
v 0.3 1 -0.5
v 0.3 1 -0.6
v 0.3 1.2 -0.5
v 0.3 1.2 -0.6
v 0.4 0.6 -0.2
v 0.4 0.6 -0.4
v 0.4 0.6 -0.5
v 0.4 0.6 -0.6
v 0.4 0.7 -0.2
v 0.4 0.7 -0.3
v 0.4 0.7 -0.4
v 0.4 0.7 -0.5
v 0.4 0.7 -0.6
v 0.4 0.8 -0.3
v 0.4 0.8 -0.4
v 0.4 0.8 -0.5
v 0.4 0.8 -0.6
v 0.4 0.9 -0.4
v 0.4 0.9 -0.5
v 0.4 0.9 -0.6
v 0.4 0.9 -0.8
v 0.4 1 -0.3
v 0.4 1 -0.4
v 0.4 1 -0.5
v 0.4 1 -0.6
v 0.4 1 -0.7
v 0.4 1 -0.8
v 0.4 1.1 -0.3
v 0.4 1.1 -0.4
v 0.4 1.1 -0.5
v 0.4 1.2 -0.4
v 0.4 1.2 -0.5
v 0.4 1.2 -0.6
v 0.4 1.2 -0.7
v 0.4 1.3 -0.5
v 0.4 1.3 -0.6
v 0.6 0.5 -0.7
v 0.6 0.5 -0.8
v 0.6 0.5 -0.9
v 0.6 0.6 -0.1
v 0.6 0.6 -0.2
v 0.6 0.6 -0.5
v 0.6 0.6 -0.6
v 0.6 0.6 -0.7
v 0.6 0.6 -0.8
v 0.6 0.6 -0.9
v 0.6 0.7 -0.1
v 0.6 0.7 -0.2
v 0.6 0.7 -0.5
v 0.6 0.7 -0.6
v 0.6 1.1 -0.5
v 0.6 1.1 -0.6
v 0.6 1.2 -0.5
v 0.6 1.2 -0.6
v 0.2 0.6 -0.1
v 0.2 0.6 -0.2
v 0.2 0.7 -0.1
v 0.2 0.7 -0.2
v 0.4 0.5 -0.7
v 0.4 0.5 -0.8
v 0.4 0.5 -0.9
v 0.4 0.6 -0.7
v 0.4 0.6 -0.8
v 0.4 0.6 -0.9
v 0.5 0.6 -0.4
v 0.5 0.6 -0.6
v 0.5 0.7 -0.3
v 0.5 0.7 -0.4
v 0.5 0.7 -0.5
v 0.5 0.7 -0.6
v 0.5 0.8 -0.3
v 0.5 0.8 -0.4
v 0.5 0.8 -0.5
v 0.5 0.8 -0.6
v 0.5 0.9 -0.4
v 0.5 0.9 -0.5
v 0.5 0.9 -0.6
v 0.5 0.9 -0.8
v 0.5 1 -0.3
v 0.5 1 -0.4
v 0.5 1 -0.5
v 0.5 1 -0.6
v 0.5 1 -0.7
v 0.5 1 -0.8
v 0.5 1.1 -0.3
v 0.5 1.1 -0.4
v 0.5 1.1 -0.5
v 0.5 1.1 -0.6
v 0.5 1.2 -0.4
v 0.5 1.2 -0.5
v 0.5 1.2 -0.6
v 0.5 1.2 -0.7
v 0.6 0.6 -0.2
v 0.6 0.6 -0.3
v 0.6 0.6 -0.4
v 0.6 0.7 -0.2
v 0.6 0.7 -0.3
v 0.6 0.7 -0.4
v 0.6 1 -0.5
v 0.6 1 -0.6
v 0.6 1.1 -0.5
v 0.6 1.1 -0.6
v 0.6 1.2 -0.5
v 0.6 1.2 -0.6
v 0.6 1.3 -0.5
v 0.6 1.3 -0.6
v 0.7 0.4 -0.8
v 0.7 0.4 -0.9
v 0.7 0.5 -0.8
v 0.7 0.5 -0.9
v 0.7 0.6 -0.1
v 0.7 0.6 -0.2
v 0.7 0.6 -0.5
v 0.7 0.6 -0.6
v 0.7 0.7 -0.1
v 0.7 0.7 -0.2
v 0.7 0.7 -0.5
v 0.7 0.7 -0.6
v 0.7 1.1 -0.5
v 0.7 1.1 -0.6
v 0.7 1.2 -0.5
v 0.7 1.2 -0.6
v 0.8 0.4 -0.1
v 0.8 0.4 -0.8
v 0.8 0.5 0
v 0.8 0.5 -0.1
v 0.8 0.5 -0.8
v 0.8 0.5 -0.9
v 0.8 0.6 0
v 0.8 0.6 -0.1
v 0.8 0.6 -0.8
v 0.8 0.6 -0.9
v 0.9 0.5 -0.1
v 0.9 0.5 -0.8
v 0.9 0.6 -0.1
v 0.9 0.6 -0.8
v 0.1 0.5 0
v 0.1 0.6 0
v 0.8 0.5 0
v 0.8 0.6 0
v 0 0.5 -0.1
v 0 0.6 -0.1
v 0.1 0.4 -0.1
v 0.1 0.5 -0.1
v 0.1 0.6 -0.1
v 0.1 0.7 -0.1
v 0.2 0.6 -0.1
v 0.2 0.7 -0.1
v 0.6 0.6 -0.1
v 0.6 0.7 -0.1
v 0.7 0.6 -0.1
v 0.7 0.7 -0.1
v 0.8 0.4 -0.1
v 0.8 0.5 -0.1
v 0.8 0.6 -0.1
v 0.9 0.5 -0.1
v 0.9 0.6 -0.1
v 0.4 0.6 -0.2
v 0.4 0.7 -0.2
v 0.5 0.6 -0.2
v 0.5 0.7 -0.2
v 0.6 0.6 -0.2
v 0.6 0.7 -0.2
v 0.4 0.7 -0.3
v 0.4 0.8 -0.3
v 0.4 1 -0.3
v 0.4 1.1 -0.3
v 0.5 0.7 -0.3
v 0.5 0.8 -0.3
v 0.5 1 -0.3
v 0.5 1.1 -0.3
v 0.2 0.6 -0.4
v 0.2 0.7 -0.4
v 0.4 0.6 -0.4
v 0.4 0.7 -0.4
v 0.4 0.8 -0.4
v 0.4 0.9 -0.4
v 0.4 1.1 -0.4
v 0.4 1.2 -0.4
v 0.5 0.8 -0.4
v 0.5 0.9 -0.4
v 0.5 1.1 -0.4
v 0.5 1.2 -0.4
v 0.3 1 -0.5
v 0.3 1.2 -0.5
v 0.4 0.9 -0.5
v 0.4 1 -0.5
v 0.4 1.1 -0.5
v 0.4 1.2 -0.5
v 0.4 1.3 -0.5
v 0.5 0.9 -0.5
v 0.5 1 -0.5
v 0.5 1.1 -0.5
v 0.5 1.2 -0.5
v 0.6 0.6 -0.5
v 0.6 0.7 -0.5
v 0.6 1 -0.5
v 0.6 1.1 -0.5
v 0.6 1.2 -0.5
v 0.6 1.3 -0.5
v 0.7 0.6 -0.5
v 0.7 0.7 -0.5
v 0.7 1.1 -0.5
v 0.7 1.2 -0.5
v 0.1 0.6 -0.2
v 0.1 0.7 -0.2
v 0.2 0.6 -0.2
v 0.2 0.7 -0.2
v 0.6 0.6 -0.2
v 0.6 0.7 -0.2
v 0.7 0.6 -0.2
v 0.7 0.7 -0.2
v 0.4 1 -0.4
v 0.4 1.1 -0.4
v 0.5 0.6 -0.4
v 0.5 0.7 -0.4
v 0.5 1 -0.4
v 0.5 1.1 -0.4
v 0.6 0.6 -0.4
v 0.6 0.7 -0.4
v 0.2 0.6 -0.5
v 0.2 0.7 -0.5
v 0.4 0.6 -0.5
v 0.4 0.7 -0.5
v 0.4 0.8 -0.5
v 0.5 0.7 -0.5
v 0.5 0.8 -0.5
v 0.3 1 -0.6
v 0.3 1.2 -0.6
v 0.4 0.6 -0.6
v 0.4 0.7 -0.6
v 0.4 0.8 -0.6
v 0.4 0.9 -0.6
v 0.4 1 -0.6
v 0.4 1.2 -0.6
v 0.4 1.3 -0.6
v 0.5 0.6 -0.6
v 0.5 0.7 -0.6
v 0.5 0.8 -0.6
v 0.5 0.9 -0.6
v 0.5 1 -0.6
v 0.5 1.1 -0.6
v 0.5 1.2 -0.6
v 0.6 0.6 -0.6
v 0.6 0.7 -0.6
v 0.6 1 -0.6
v 0.6 1.1 -0.6
v 0.6 1.2 -0.6
v 0.6 1.3 -0.6
v 0.7 0.6 -0.6
v 0.7 0.7 -0.6
v 0.7 1.1 -0.6
v 0.7 1.2 -0.6
v 0.4 0.5 -0.7
v 0.4 0.6 -0.7
v 0.4 1 -0.7
v 0.4 1.2 -0.7
v 0.5 1 -0.7
v 0.5 1.2 -0.7
v 0.6 0.5 -0.7
v 0.6 0.6 -0.7
v 0 0.5 -0.8
v 0 0.6 -0.8
v 0.1 0.4 -0.8
v 0.1 0.5 -0.8
v 0.1 0.6 -0.8
v 0.3 0.4 -0.8
v 0.3 0.5 -0.8
v 0.4 0.9 -0.8
v 0.4 1 -0.8
v 0.5 0.9 -0.8
v 0.5 1 -0.8
v 0.7 0.4 -0.8
v 0.7 0.5 -0.8
v 0.8 0.4 -0.8
v 0.8 0.5 -0.8
v 0.8 0.6 -0.8
v 0.9 0.5 -0.8
v 0.9 0.6 -0.8
v 0.1 0.5 -0.9
v 0.1 0.6 -0.9
v 0.3 0.4 -0.9
v 0.3 0.5 -0.9
v 0.4 0.4 -0.9
v 0.4 0.5 -0.9
v 0.4 0.6 -0.9
v 0.5 0.4 -0.9
v 0.5 0.5 -0.9
v 0.6 0.5 -0.9
v 0.6 0.6 -0.9
v 0.7 0.4 -0.9
v 0.7 0.5 -0.9
v 0.8 0.5 -0.9
v 0.8 0.6 -0.9
v 0.1 0.4 -0.1
v 0.8 0.4 -0.1
v 0.4 0.4 -0.7
v 0.6 0.4 -0.7
v 0.1 0.4 -0.8
v 0.3 0.4 -0.8
v 0.4 0.4 -0.8
v 0.5 0.4 -0.8
v 0.6 0.4 -0.8
v 0.7 0.4 -0.8
v 0.8 0.4 -0.8
v 0.3 0.4 -0.9
v 0.4 0.4 -0.9
v 0.5 0.4 -0.9
v 0.7 0.4 -0.9
v 0.1 0.5 0
v 0.8 0.5 0
v 0 0.5 -0.1
v 0.1 0.5 -0.1
v 0.8 0.5 -0.1
v 0.9 0.5 -0.1
v 0 0.5 -0.8
v 0.1 0.5 -0.8
v 0.3 0.5 -0.8
v 0.7 0.5 -0.8
v 0.8 0.5 -0.8
v 0.9 0.5 -0.8
v 0.1 0.5 -0.9
v 0.3 0.5 -0.9
v 0.7 0.5 -0.9
v 0.8 0.5 -0.9
v 0.4 0.8 -0.5
v 0.5 0.8 -0.5
v 0.4 0.8 -0.6
v 0.5 0.8 -0.6
v 0.4 0.9 -0.6
v 0.5 0.9 -0.6
v 0.4 0.9 -0.8
v 0.5 0.9 -0.8
v 0.4 1 -0.3
v 0.5 1 -0.3
v 0.4 1 -0.4
v 0.5 1 -0.4
v 0.3 1 -0.5
v 0.4 1 -0.5
v 0.5 1 -0.5
v 0.6 1 -0.5
v 0.3 1 -0.6
v 0.4 1 -0.6
v 0.5 1 -0.6
v 0.6 1 -0.6
v 0.4 1.1 -0.4
v 0.5 1.1 -0.4
v 0.4 1.1 -0.5
v 0.5 1.1 -0.5
v 0.6 1.1 -0.5
v 0.7 1.1 -0.5
v 0.6 1.1 -0.6
v 0.7 1.1 -0.6
v 0.5 1.2 -0.5
v 0.6 1.2 -0.5
v 0.5 1.2 -0.6
v 0.6 1.2 -0.6
v 0.4 0.5 -0.7
v 0.6 0.5 -0.7
v 0.4 0.5 -0.8
v 0.5 0.5 -0.8
v 0.6 0.5 -0.8
v 0.4 0.5 -0.9
v 0.5 0.5 -0.9
v 0.6 0.5 -0.9
v 0.1 0.6 0
v 0.8 0.6 0
v 0 0.6 -0.1
v 0.1 0.6 -0.1
v 0.2 0.6 -0.1
v 0.6 0.6 -0.1
v 0.7 0.6 -0.1
v 0.8 0.6 -0.1
v 0.9 0.6 -0.1
v 0.1 0.6 -0.2
v 0.2 0.6 -0.2
v 0.4 0.6 -0.2
v 0.5 0.6 -0.2
v 0.6 0.6 -0.2
v 0.7 0.6 -0.2
v 0.6 0.6 -0.3
v 0.7 0.6 -0.3
v 0.8 0.6 -0.3
v 0.2 0.6 -0.4
v 0.4 0.6 -0.4
v 0.5 0.6 -0.4
v 0.6 0.6 -0.4
v 0.7 0.6 -0.4
v 0.8 0.6 -0.4
v 0.1 0.6 -0.5
v 0.2 0.6 -0.5
v 0.4 0.6 -0.5
v 0.6 0.6 -0.5
v 0.7 0.6 -0.5
v 0.1 0.6 -0.6
v 0.2 0.6 -0.6
v 0.4 0.6 -0.6
v 0.5 0.6 -0.6
v 0.6 0.6 -0.6
v 0.7 0.6 -0.6
v 0.3 0.6 -0.7
v 0.4 0.6 -0.7
v 0.6 0.6 -0.7
v 0 0.6 -0.8
v 0.1 0.6 -0.8
v 0.3 0.6 -0.8
v 0.4 0.6 -0.8
v 0.6 0.6 -0.8
v 0.8 0.6 -0.8
v 0.9 0.6 -0.8
v 0.1 0.6 -0.9
v 0.4 0.6 -0.9
v 0.6 0.6 -0.9
v 0.8 0.6 -0.9
v 0.1 0.7 -0.1
v 0.2 0.7 -0.1
v 0.6 0.7 -0.1
v 0.7 0.7 -0.1
v 0.1 0.7 -0.2
v 0.2 0.7 -0.2
v 0.4 0.7 -0.2
v 0.5 0.7 -0.2
v 0.6 0.7 -0.2
v 0.7 0.7 -0.2
v 0.4 0.7 -0.3
v 0.5 0.7 -0.3
v 0.6 0.7 -0.3
v 0.2 0.7 -0.4
v 0.4 0.7 -0.4
v 0.5 0.7 -0.4
v 0.6 0.7 -0.4
v 0.2 0.7 -0.5
v 0.4 0.7 -0.5
v 0.5 0.7 -0.5
v 0.6 0.7 -0.5
v 0.7 0.7 -0.5
v 0.4 0.7 -0.6
v 0.5 0.7 -0.6
v 0.6 0.7 -0.6
v 0.7 0.7 -0.6
v 0.4 0.8 -0.3
v 0.5 0.8 -0.3
v 0.4 0.8 -0.4
v 0.5 0.8 -0.4
v 0.4 0.9 -0.4
v 0.5 0.9 -0.4
v 0.4 0.9 -0.5
v 0.5 0.9 -0.5
v 0.4 1 -0.7
v 0.5 1 -0.7
v 0.4 1 -0.8
v 0.5 1 -0.8
v 0.4 1.1 -0.3
v 0.5 1.1 -0.3
v 0.4 1.1 -0.4
v 0.5 1.1 -0.4
v 0.5 1.1 -0.5
v 0.6 1.1 -0.5
v 0.5 1.1 -0.6
v 0.6 1.1 -0.6
v 0.4 1.2 -0.4
v 0.5 1.2 -0.4
v 0.3 1.2 -0.5
v 0.4 1.2 -0.5
v 0.5 1.2 -0.5
v 0.6 1.2 -0.5
v 0.7 1.2 -0.5
v 0.3 1.2 -0.6
v 0.4 1.2 -0.6
v 0.5 1.2 -0.6
v 0.6 1.2 -0.6
v 0.7 1.2 -0.6
v 0.4 1.2 -0.7
v 0.5 1.2 -0.7
v 0.4 1.3 -0.5
v 0.6 1.3 -0.5
v 0.4 1.3 -0.6
v 0.6 1.3 -0.6

# faces
f 3/4/1 2/4/1 1/4/1
f 4/4/1 2/4/1 3/4/1
f 8/4/1 6/4/1 5/4/1
f 9/4/1 6/4/1 8/4/1
f 11/4/1 8/4/1 7/4/1
f 12/4/1 8/4/1 11/4/1
f 14/4/1 10/4/1 9/4/1
f 15/4/1 10/4/1 14/4/1
f 16/3/1 13/3/1 12/3/1
f 17/3/1 13/3/1 16/3/1
f 20/1/1 19/1/1 18/1/1
f 21/1/1 19/1/1 20/1/1
f 24/2/1 23/2/1 22/2/1
f 25/2/1 23/2/1 24/2/1
f 28/3/1 27/3/1 26/3/1
f 29/3/1 27/3/1 28/3/1
f 34/1/1 31/1/1 30/1/1
f 35/1/1 31/1/1 34/1/1
f 36/1/1 31/1/1 35/1/1
f 37/1/1 33/1/1 32/1/1
f 38/1/1 33/1/1 37/1/1
f 39/1/1 36/1/1 35/1/1
f 39/1/1 37/1/1 36/1/1
f 40/1/1 37/1/1 39/1/1
f 41/1/1 37/1/1 40/1/1
f 43/1/1 42/1/1 41/1/1
f 43/1/1 41/1/1 40/1/1
f 44/1/1 42/1/1 43/1/1
f 45/1/1 42/1/1 44/1/1
f 49/1/1 45/1/1 44/1/1
f 50/3/1 46/3/1 45/3/1
f 50/1/1 45/1/1 49/1/1
f 51/3/1 46/3/1 50/3/1
f 52/3/1 46/3/1 51/3/1
f 53/3/1 48/3/1 47/3/1
f 54/3/1 48/3/1 53/3/1
f 56/3/1 55/3/1 54/3/1
f 57/3/1 55/3/1 56/3/1
f 58/3/1 51/3/1 50/3/1
f 59/3/1 51/3/1 58/3/1
f 60/3/1 58/3/1 57/3/1
f 61/3/1 58/3/1 60/3/1
f 69/2/1 63/2/1 62/2/1
f 70/4/1 64/4/1 63/4/1
f 70/2/1 63/2/1 69/2/1
f 71/4/1 64/4/1 70/4/1
f 72/3/1 66/3/1 65/3/1
f 73/3/1 66/3/1 72/3/1
f 74/3/1 68/3/1 67/3/1
f 75/3/1 68/3/1 74/3/1
f 78/3/1 77/3/1 76/3/1
f 79/3/1 77/3/1 78/3/1
f 80/3/2 81/3/2 82/3/2
f 82/3/2 81/3/2 83/3/2
f 84/3/2 85/3/2 87/3/2
f 85/4/2 86/4/2 88/4/2
f 87/3/2 85/3/2 88/3/2
f 88/4/2 86/4/2 89/4/2
f 90/1/2 91/1/2 93/1/2
f 93/1/2 91/1/2 94/1/2
f 94/1/2 91/1/2 95/1/2
f 92/1/2 93/1/2 96/1/2
f 93/1/2 94/1/2 96/1/2
f 96/1/2 94/1/2 97/1/2
f 97/1/2 94/1/2 98/1/2
f 98/1/2 99/1/2 100/1/2
f 97/1/2 98/1/2 100/1/2
f 100/1/2 99/1/2 101/1/2
f 101/1/2 99/1/2 102/1/2
f 101/1/2 102/1/2 106/1/2
f 102/3/2 103/3/2 107/3/2
f 106/1/2 102/1/2 107/1/2
f 107/3/2 103/3/2 108/3/2
f 108/3/2 103/3/2 109/3/2
f 104/3/2 105/3/2 110/3/2
f 110/3/2 105/3/2 111/3/2
f 107/3/2 108/3/2 113/3/2
f 111/3/2 112/3/2 114/3/2
f 112/1/2 113/1/2 115/1/2
f 114/3/2 112/3/2 115/3/2
f 113/3/2 108/3/2 116/3/2
f 115/1/2 113/1/2 116/1/2
f 116/3/2 108/3/2 117/3/2
f 118/3/2 119/3/2 121/3/2
f 119/1/2 120/1/2 122/1/2
f 121/3/2 119/3/2 122/3/2
f 122/1/2 120/1/2 123/1/2
f 124/3/2 125/3/2 126/3/2
f 126/3/2 125/3/2 127/3/2
f 128/3/2 129/3/2 130/3/2
f 130/3/2 129/3/2 131/3/2
f 132/2/2 133/2/2 134/2/2
f 134/2/2 133/2/2 135/2/2
f 136/3/2 137/3/2 140/3/2
f 140/3/2 137/3/2 141/3/2
f 138/3/2 139/3/2 142/3/2
f 142/3/2 139/3/2 143/3/2
f 144/3/2 145/3/2 146/3/2
f 146/3/2 145/3/2 147/3/2
f 148/4/2 149/4/2 151/4/2
f 151/4/2 149/4/2 152/4/2
f 150/4/2 151/4/2 154/4/2
f 154/4/2 151/4/2 155/4/2
f 152/4/2 153/4/2 156/4/2
f 156/4/2 153/4/2 157/4/2
f 158/4/2 159/4/2 160/4/2
f 160/4/2 159/4/2 161/4/2
f 164/4/3 163/4/3 162/4/3
f 165/4/3 163/4/3 164/4/3
f 169/4/3 167/4/3 166/4/3
f 170/4/3 167/4/3 169/4/3
f 172/3/3 171/3/3 170/3/3
f 173/3/3 171/3/3 172/3/3
f 176/3/3 175/3/3 174/3/3
f 177/3/3 175/3/3 176/3/3
f 178/4/3 169/4/3 168/4/3
f 179/4/3 169/4/3 178/4/3
f 181/4/3 180/4/3 179/4/3
f 182/4/3 180/4/3 181/4/3
f 185/1/3 184/1/3 183/1/3
f 186/1/3 184/1/3 185/1/3
f 187/3/3 186/3/3 185/3/3
f 188/3/3 186/3/3 187/3/3
f 193/1/3 190/1/3 189/1/3
f 194/1/3 190/1/3 193/1/3
f 195/3/3 192/3/3 191/3/3
f 196/3/3 192/3/3 195/3/3
f 199/1/3 198/1/3 197/1/3
f 200/1/3 198/1/3 199/1/3
f 205/1/3 202/1/3 201/1/3
f 206/1/3 202/1/3 205/1/3
f 207/3/3 204/3/3 203/3/3
f 208/3/3 204/3/3 207/3/3
f 212/3/3 210/3/3 209/3/3
f 213/3/3 210/3/3 212/3/3
f 214/3/3 210/3/3 213/3/3
f 216/1/3 212/1/3 211/1/3
f 216/1/3 213/1/3 212/1/3
f 217/1/3 213/1/3 216/1/3
f 218/1/3 213/1/3 217/1/3
f 219/3/3 215/3/3 214/3/3
f 222/3/3 218/3/3 217/3/3
f 223/3/3 218/3/3 222/3/3
f 224/3/3 215/3/3 219/3/3
f 225/3/3 215/3/3 224/3/3
f 226/3/3 221/3/3 220/3/3
f 227/3/3 221/3/3 226/3/3
f 228/3/3 224/3/3 223/3/3
f 229/3/3 224/3/3 228/3/3
f 230/3/4 231/3/4 232/3/4
f 232/3/4 231/3/4 233/3/4
f 234/3/4 235/3/4 236/3/4
f 236/3/4 235/3/4 237/3/4
f 238/3/4 239/3/4 242/3/4
f 242/3/4 239/3/4 243/3/4
f 240/1/4 241/1/4 244/1/4
f 244/1/4 241/1/4 245/1/4
f 246/1/4 247/1/4 248/1/4
f 248/1/4 247/1/4 249/1/4
f 249/1/4 250/1/4 251/1/4
f 251/1/4 250/1/4 252/1/4
f 253/3/4 254/3/4 259/3/4
f 259/3/4 254/3/4 260/3/4
f 255/1/4 256/1/4 262/1/4
f 262/1/4 256/1/4 263/1/4
f 257/1/4 258/1/4 264/1/4
f 264/1/4 258/1/4 265/1/4
f 260/3/4 261/3/4 268/3/4
f 266/3/4 267/3/4 271/3/4
f 271/3/4 267/3/4 272/3/4
f 268/3/4 261/3/4 273/3/4
f 273/3/4 261/3/4 274/3/4
f 269/3/4 270/3/4 275/3/4
f 275/3/4 270/3/4 276/3/4
f 272/3/4 273/3/4 277/3/4
f 277/3/4 273/3/4 278/3/4
f 281/3/4 282/3/4 283/3/4
f 283/3/4 282/3/4 284/3/4
f 279/2/4 280/2/4 285/2/4
f 285/2/4 280/2/4 286/2/4
f 287/4/4 288/4/4 290/4/4
f 290/4/4 288/4/4 291/4/4
f 289/4/4 290/4/4 292/4/4
f 292/4/4 290/4/4 293/4/4
f 294/3/4 295/3/4 296/3/4
f 296/3/4 295/3/4 297/3/4
f 298/4/4 299/4/4 300/4/4
f 300/4/4 299/4/4 301/4/4
f 301/4/4 302/4/4 303/4/4
f 303/4/4 302/4/4 304/4/4
f 305/4/4 306/4/4 308/4/4
f 307/2/4 308/2/4 309/2/4
f 308/4/4 306/4/4 310/4/4
f 309/2/4 308/2/4 310/2/4
f 310/4/4 306/4/4 311/4/4
f 309/3/4 310/3/4 312/3/4
f 312/3/4 310/3/4 313/3/4
f 312/2/4 313/2/4 314/2/4
f 312/2/4 314/2/4 316/2/4
f 314/4/4 315/4/4 317/4/4
f 316/2/4 314/2/4 317/2/4
f 317/4/4 315/4/4 318/4/4
f 318/4/4 315/4/4 319/4/4
f 322/4/5 321/4/5 320/4/5
f 323/4/5 321/4/5 322/4/5
f 324/4/5 322/4/5 320/4/5
f 325/4/5 322/4/5 324/4/5
f 326/2/5 323/2/5 322/2/5
f 326/4/5 322/4/5 325/4/5
f 327/2/5 323/2/5 326/2/5
f 328/4/5 321/4/5 323/4/5
f 328/2/5 323/2/5 327/2/5
f 329/4/5 321/4/5 328/4/5
f 330/4/5 321/4/5 329/4/5
f 331/2/5 326/2/5 325/2/5
f 332/3/5 327/3/5 326/3/5
f 332/2/5 326/2/5 331/2/5
f 333/2/5 329/2/5 328/2/5
f 333/3/5 327/3/5 332/3/5
f 333/2/5 328/2/5 327/2/5
f 334/2/5 329/2/5 333/2/5
f 338/4/5 336/4/5 335/4/5
f 339/4/5 336/4/5 338/4/5
f 341/4/5 338/4/5 337/4/5
f 342/4/5 338/4/5 341/4/5
f 345/4/5 340/4/5 339/4/5
f 346/4/5 340/4/5 345/4/5
f 347/4/5 343/4/5 342/4/5
f 348/4/5 343/4/5 347/4/5
f 349/4/5 345/4/5 344/4/5
f 350/4/5 345/4/5 349/4/5
f 353/1/5 352/1/5 351/1/5
f 354/1/5 352/1/5 353/1/5
f 357/3/5 356/3/5 355/3/5
f 358/3/5 356/3/5 357/3/5
f 361/3/5 360/3/5 359/3/5
f 362/3/5 360/3/5 361/3/5
f 367/3/5 364/3/5 363/3/5
f 368/3/5 364/3/5 367/3/5
f 369/3/5 366/3/5 365/3/5
f 370/3/5 366/3/5 369/3/5
f 373/3/5 372/3/5 371/3/5
f 374/3/5 372/3/5 373/3/5
f 377/3/5 376/3/5 375/3/5
f 378/3/5 376/3/5 377/3/5
f 381/3/5 380/3/5 379/3/5
f 382/3/5 380/3/5 381/3/5
f 383/2/6 384/2/6 385/2/6
f 385/2/6 384/2/6 386/2/6
f 386/2/6 384/2/6 387/2/6
f 385/3/6 386/3/6 388/3/6
f 386/2/6 387/2/6 389/2/6
f 388/3/6 386/3/6 389/3/6
f 389/2/6 387/2/6 390/2/6
f 391/4/6 392/4/6 394/4/6
f 394/4/6 392/4/6 395/4/6
f 395/4/6 392/4/6 396/4/6
f 396/4/6 392/4/6 397/4/6
f 397/4/6 392/4/6 398/4/6
f 393/4/6 394/4/6 400/4/6
f 395/2/6 396/2/6 401/2/6
f 401/2/6 396/2/6 402/2/6
f 402/2/6 396/2/6 403/2/6
f 403/2/6 396/2/6 404/2/6
f 397/2/6 398/2/6 405/2/6
f 404/2/6 405/2/6 406/2/6
f 405/2/6 398/2/6 407/2/6
f 406/2/6 405/2/6 407/2/6
f 398/4/6 399/4/6 408/4/6
f 407/2/6 398/2/6 408/2/6
f 400/2/6 401/2/6 409/2/6
f 401/2/6 402/2/6 409/2/6
f 409/2/6 402/2/6 410/2/6
f 406/2/6 407/2/6 412/2/6
f 407/3/6 408/3/6 413/3/6
f 412/2/6 407/2/6 413/2/6
f 408/4/6 399/4/6 414/4/6
f 413/3/6 408/3/6 414/3/6
f 393/4/6 400/4/6 415/4/6
f 400/2/6 409/2/6 415/2/6
f 415/2/6 409/2/6 416/2/6
f 413/2/6 414/2/6 418/2/6
f 412/2/6 413/2/6 418/2/6
f 411/2/6 412/2/6 418/2/6
f 418/2/6 414/2/6 419/2/6
f 415/3/6 416/3/6 420/3/6
f 393/4/6 415/4/6 420/4/6
f 416/2/6 417/2/6 421/2/6
f 420/3/6 416/3/6 421/3/6
f 421/2/6 417/2/6 422/2/6
f 411/2/6 418/2/6 423/2/6
f 423/2/6 418/2/6 424/2/6
f 419/2/6 414/2/6 425/2/6
f 423/2/6 424/2/6 426/2/6
f 424/2/6 425/2/6 426/2/6
f 421/2/6 422/2/6 426/2/6
f 420/2/6 421/2/6 426/2/6
f 422/2/6 423/2/6 426/2/6
f 426/2/6 425/2/6 427/2/6
f 427/2/6 425/2/6 428/2/6
f 393/4/6 420/4/6 429/4/6
f 420/2/6 426/2/6 430/2/6
f 429/4/6 420/4/6 430/4/6
f 426/3/6 427/3/6 431/3/6
f 430/2/6 426/2/6 431/2/6
f 431/3/6 427/3/6 432/3/6
f 428/2/6 425/2/6 433/2/6
f 414/4/6 399/4/6 434/4/6
f 433/2/6 425/2/6 434/2/6
f 425/2/6 414/2/6 434/2/6
f 434/4/6 399/4/6 435/4/6
f 431/4/6 432/4/6 436/4/6
f 430/4/6 431/4/6 436/4/6
f 436/4/6 432/4/6 437/4/6
f 433/4/6 434/4/6 438/4/6
f 438/4/6 434/4/6 439/4/6
f 440/3/6 441/3/6 444/3/6
f 444/3/6 441/3/6 445/3/6
f 442/3/6 443/3/6 448/3/6
f 448/3/6 443/3/6 449/3/6
f 446/1/6 447/1/6 450/1/6
f 447/3/6 448/3/6 451/3/6
f 450/1/6 447/1/6 451/1/6
f 451/3/6 448/3/6 452/3/6
f 451/1/6 452/1/6 455/1/6
f 455/1/6 452/1/6 456/1/6
f 453/1/6 454/1/6 457/1/6
f 457/1/6 454/1/6 458/1/6
f 458/1/6 459/1/6 462/1/6
f 462/1/6 459/1/6 463/1/6
f 460/3/6 461/3/6 464/3/6
f 464/3/6 461/3/6 465/3/6
f 466/1/6 467/1/6 468/1/6
f 468/1/6 467/1/6 469/1/6
f 470/1/6 471/1/6 472/1/6
f 472/1/6 471/1/6 473/1/6
f 474/3/6 475/3/6 476/3/6
f 476/3/6 475/3/6 477/3/6
f 478/3/6 479/3/6 480/3/6
f 480/3/6 479/3/6 481/3/6
f 482/3/6 483/3/6 484/3/6
f 484/3/6 483/3/6 485/3/6
f 486/3/6 487/3/6 489/3/6
f 489/3/6 487/3/6 490/3/6
f 488/3/6 489/3/6 493/3/6
f 493/3/6 489/3/6 494/3/6
f 491/3/6 492/3/6 496/3/6
f 496/3/6 492/3/6 497/3/6
f 494/3/6 495/3/6 498/3/6
f 498/3/6 495/3/6 499/3/6
f 500/3/6 501/3/6 502/3/6
f 502/3/6 501/3/6 503/3/6
