# MagicaVoxel @ Ephtracy

# group
o 

# material
mtllib deco_4.mtl
usemtl palette

# normals
vn -1 0 0
vn 1 0 0
vn 0 0 1
vn 0 0 -1
vn 0 -1 0
vn 0 1 0

# texcoords
vt 0.0214844 0.5
vt 0.0878906 0.5
vt 0.830078 0.5
vt 0.841797 0.5
vt 0.986328 0.5

# verts
v 0 0.4 -0.3
v 0 0.4 -0.4
v 0 0.4 -0.7
v 0 0.4 -0.8
v 0 0.5 -0.3
v 0 0.5 -0.4
v 0 0.5 -0.7
v 0 0.5 -0.8
v 0.1 0.4 -0.2
v 0.1 0.4 -0.3
v 0.1 0.4 -0.6
v 0.1 0.4 -0.7
v 0.1 0.5 -0.2
v 0.1 0.5 -0.3
v 0.1 0.5 -0.6
v 0.1 0.5 -0.7
v 0.2 0.4 -0.1
v 0.2 0.4 -0.2
v 0.2 0.4 -0.5
v 0.2 0.4 -0.6
v 0.2 0.5 -0.1
v 0.2 0.5 -0.2
v 0.2 0.5 -0.5
v 0.2 0.5 -0.6
v 0.2 0.8 -0.7
v 0.2 0.8 -0.8
v 0.2 0.9 -0.7
v 0.2 0.9 -0.8
v 0.3 0.4 0
v 0.3 0.4 -0.1
v 0.3 0.4 -0.3
v 0.3 0.4 -0.5
v 0.3 0.5 0
v 0.3 0.5 -0.1
v 0.3 0.5 -0.3
v 0.3 0.5 -0.4
v 0.3 0.5 -0.5
v 0.3 0.6 -0.4
v 0.3 0.6 -0.5
v 0.3 0.6 -0.7
v 0.3 0.6 -0.8
v 0.3 0.8 -0.7
v 0.3 0.8 -0.8
v 0.4 0.4 -0.1
v 0.4 0.4 -0.2
v 0.4 0.4 -0.3
v 0.4 0.4 -0.5
v 0.4 0.4 -0.8
v 0.4 0.5 -0.1
v 0.4 0.5 -0.2
v 0.4 0.5 -0.3
v 0.4 0.5 -0.5
v 0.4 0.5 -0.7
v 0.4 0.6 -0.7
v 0.4 0.6 -0.8
v 0.5 0.4 -0.3
v 0.5 0.4 -0.4
v 0.5 0.5 -0.3
v 0.5 0.5 -0.4
v 0.6 0.4 0
v 0.6 0.4 -0.1
v 0.6 0.4 -0.4
v 0.6 0.4 -0.6
v 0.6 0.5 0
v 0.6 0.5 -0.1
v 0.6 0.5 -0.2
v 0.6 0.5 -0.3
v 0.6 0.5 -0.4
v 0.6 0.5 -0.6
v 0.6 0.6 -0.2
v 0.6 0.6 -0.3
v 0.6 0.6 -0.4
v 0.6 0.6 -0.7
v 0.6 0.6 -0.8
v 0.6 0.7 -0.3
v 0.6 0.7 -0.4
v 0.6 0.8 -0.7
v 0.6 0.8 -0.8
v 0.6 0.9 -0.7
v 0.6 0.9 -0.8
v 0.1 0.4 -0.3
v 0.1 0.4 -0.4
v 0.1 0.4 -0.7
v 0.1 0.4 -0.8
v 0.1 0.5 -0.3
v 0.1 0.5 -0.4
v 0.1 0.5 -0.7
v 0.1 0.5 -0.8
v 0.2 0.4 -0.2
v 0.2 0.4 -0.3
v 0.2 0.4 -0.6
v 0.2 0.4 -0.7
v 0.2 0.5 -0.2
v 0.2 0.5 -0.3
v 0.2 0.5 -0.6
v 0.2 0.5 -0.7
v 0.3 0.4 -0.1
v 0.3 0.4 -0.2
v 0.3 0.4 -0.5
v 0.3 0.4 -0.6
v 0.3 0.5 -0.1
v 0.3 0.5 -0.2
v 0.3 0.5 -0.5
v 0.3 0.5 -0.6
v 0.3 0.8 -0.7
v 0.3 0.8 -0.8
v 0.3 0.9 -0.7
v 0.3 0.9 -0.8
v 0.4 0.4 -0.3
v 0.4 0.4 -0.4
v 0.4 0.5 -0.3
v 0.4 0.5 -0.4
v 0.4 0.5 -0.5
v 0.4 0.6 -0.4
v 0.4 0.6 -0.5
v 0.4 0.6 -0.7
v 0.4 0.6 -0.8
v 0.4 0.8 -0.7
v 0.4 0.8 -0.8
v 0.5 0.4 0
v 0.5 0.4 -0.1
v 0.5 0.4 -0.4
v 0.5 0.4 -0.5
v 0.5 0.4 -0.6
v 0.5 0.5 0
v 0.5 0.5 -0.1
v 0.5 0.5 -0.4
v 0.5 0.5 -0.5
v 0.5 0.5 -0.6
v 0.6 0.4 -0.7
v 0.6 0.4 -0.8
v 0.6 0.5 -0.7
v 0.6 0.6 -0.7
v 0.6 0.6 -0.8
v 0.7 0.4 0
v 0.7 0.4 -0.1
v 0.7 0.4 -0.2
v 0.7 0.4 -0.3
v 0.7 0.4 -0.4
v 0.7 0.4 -0.7
v 0.7 0.5 0
v 0.7 0.5 -0.1
v 0.7 0.5 -0.2
v 0.7 0.5 -0.3
v 0.7 0.5 -0.4
v 0.7 0.5 -0.7
v 0.7 0.6 -0.2
v 0.7 0.6 -0.3
v 0.7 0.6 -0.4
v 0.7 0.6 -0.7
v 0.7 0.6 -0.8
v 0.7 0.7 -0.3
v 0.7 0.7 -0.4
v 0.7 0.8 -0.7
v 0.7 0.8 -0.8
v 0.7 0.9 -0.7
v 0.7 0.9 -0.8
v 0.8 0.4 -0.2
v 0.8 0.4 -0.3
v 0.8 0.5 -0.2
v 0.8 0.5 -0.3
v 0.3 0.4 0
v 0.3 0.5 0
v 0.5 0.4 0
v 0.5 0.5 0
v 0.6 0.4 0
v 0.6 0.5 0
v 0.7 0.4 0
v 0.7 0.5 0
v 0.2 0.4 -0.1
v 0.2 0.5 -0.1
v 0.3 0.4 -0.1
v 0.3 0.5 -0.1
v 0.5 0.4 -0.1
v 0.5 0.5 -0.1
v 0.6 0.4 -0.1
v 0.6 0.5 -0.1
v 0.1 0.4 -0.2
v 0.1 0.5 -0.2
v 0.2 0.4 -0.2
v 0.2 0.5 -0.2
v 0.6 0.5 -0.2
v 0.6 0.6 -0.2
v 0.7 0.4 -0.2
v 0.7 0.5 -0.2
v 0.7 0.6 -0.2
v 0.8 0.4 -0.2
v 0.8 0.5 -0.2
v 0 0.4 -0.3
v 0 0.5 -0.3
v 0.1 0.4 -0.3
v 0.1 0.5 -0.3
v 0.3 0.4 -0.3
v 0.3 0.5 -0.3
v 0.4 0.4 -0.3
v 0.4 0.5 -0.3
v 0.6 0.6 -0.3
v 0.6 0.7 -0.3
v 0.7 0.6 -0.3
v 0.7 0.7 -0.3
v 0.3 0.5 -0.4
v 0.3 0.6 -0.4
v 0.4 0.4 -0.4
v 0.4 0.5 -0.4
v 0.4 0.6 -0.4
v 0.5 0.4 -0.4
v 0.5 0.5 -0.4
v 0.2 0.4 -0.5
v 0.2 0.5 -0.5
v 0.3 0.4 -0.5
v 0.3 0.5 -0.5
v 0.1 0.4 -0.6
v 0.1 0.5 -0.6
v 0.2 0.4 -0.6
v 0.2 0.5 -0.6
v 0.5 0.4 -0.6
v 0.5 0.5 -0.6
v 0.6 0.4 -0.6
v 0.6 0.5 -0.6
v 0 0.4 -0.7
v 0 0.5 -0.7
v 0.1 0.4 -0.7
v 0.1 0.5 -0.7
v 0.2 0.8 -0.7
v 0.2 0.9 -0.7
v 0.3 0.6 -0.7
v 0.3 0.8 -0.7
v 0.3 0.9 -0.7
v 0.4 0.5 -0.7
v 0.4 0.6 -0.7
v 0.4 0.8 -0.7
v 0.5 0.5 -0.7
v 0.5 0.6 -0.7
v 0.6 0.5 -0.7
v 0.6 0.6 -0.7
v 0.6 0.8 -0.7
v 0.6 0.9 -0.7
v 0.7 0.6 -0.7
v 0.7 0.8 -0.7
v 0.7 0.9 -0.7
v 0.3 0.4 -0.1
v 0.3 0.5 -0.1
v 0.4 0.4 -0.1
v 0.4 0.5 -0.1
v 0.2 0.4 -0.2
v 0.2 0.5 -0.2
v 0.3 0.4 -0.2
v 0.3 0.5 -0.2
v 0.1 0.4 -0.3
v 0.1 0.5 -0.3
v 0.2 0.4 -0.3
v 0.2 0.5 -0.3
v 0.4 0.4 -0.3
v 0.4 0.5 -0.3
v 0.5 0.4 -0.3
v 0.5 0.5 -0.3
v 0.7 0.4 -0.3
v 0.7 0.5 -0.3
v 0.8 0.4 -0.3
v 0.8 0.5 -0.3
v 0 0.4 -0.4
v 0 0.5 -0.4
v 0.1 0.4 -0.4
v 0.1 0.5 -0.4
v 0.5 0.4 -0.4
v 0.5 0.5 -0.4
v 0.6 0.4 -0.4
v 0.6 0.5 -0.4
v 0.6 0.6 -0.4
v 0.6 0.7 -0.4
v 0.7 0.5 -0.4
v 0.7 0.6 -0.4
v 0.7 0.7 -0.4
v 0.3 0.4 -0.5
v 0.3 0.5 -0.5
v 0.3 0.6 -0.5
v 0.4 0.4 -0.5
v 0.4 0.5 -0.5
v 0.4 0.6 -0.5
v 0.2 0.4 -0.6
v 0.2 0.5 -0.6
v 0.3 0.4 -0.6
v 0.3 0.5 -0.6
v 0.1 0.4 -0.7
v 0.1 0.5 -0.7
v 0.2 0.4 -0.7
v 0.2 0.5 -0.7
v 0.6 0.4 -0.7
v 0.6 0.5 -0.7
v 0.7 0.4 -0.7
v 0.7 0.5 -0.7
v 0 0.4 -0.8
v 0 0.5 -0.8
v 0.1 0.4 -0.8
v 0.1 0.5 -0.8
v 0.2 0.8 -0.8
v 0.2 0.9 -0.8
v 0.3 0.6 -0.8
v 0.3 0.8 -0.8
v 0.3 0.9 -0.8
v 0.4 0.4 -0.8
v 0.4 0.6 -0.8
v 0.4 0.8 -0.8
v 0.5 0.4 -0.8
v 0.5 0.6 -0.8
v 0.6 0.4 -0.8
v 0.6 0.6 -0.8
v 0.6 0.8 -0.8
v 0.6 0.9 -0.8
v 0.7 0.6 -0.8
v 0.7 0.8 -0.8
v 0.7 0.9 -0.8
v 0.3 0.4 0
v 0.5 0.4 0
v 0.6 0.4 0
v 0.7 0.4 0
v 0.2 0.4 -0.1
v 0.3 0.4 -0.1
v 0.4 0.4 -0.1
v 0.5 0.4 -0.1
v 0.6 0.4 -0.1
v 0.7 0.4 -0.1
v 0.1 0.4 -0.2
v 0.2 0.4 -0.2
v 0.3 0.4 -0.2
v 0.4 0.4 -0.2
v 0.5 0.4 -0.2
v 0.6 0.4 -0.2
v 0.7 0.4 -0.2
v 0.8 0.4 -0.2
v 0 0.4 -0.3
v 0.1 0.4 -0.3
v 0.2 0.4 -0.3
v 0.3 0.4 -0.3
v 0.4 0.4 -0.3
v 0.5 0.4 -0.3
v 0.7 0.4 -0.3
v 0.8 0.4 -0.3
v 0 0.4 -0.4
v 0.1 0.4 -0.4
v 0.4 0.4 -0.4
v 0.5 0.4 -0.4
v 0.6 0.4 -0.4
v 0.7 0.4 -0.4
v 0.2 0.4 -0.5
v 0.3 0.4 -0.5
v 0.4 0.4 -0.5
v 0.5 0.4 -0.5
v 0.1 0.4 -0.6
v 0.2 0.4 -0.6
v 0.3 0.4 -0.6
v 0.5 0.4 -0.6
v 0.6 0.4 -0.6
v 0 0.4 -0.7
v 0.1 0.4 -0.7
v 0.2 0.4 -0.7
v 0.6 0.4 -0.7
v 0.7 0.4 -0.7
v 0 0.4 -0.8
v 0.1 0.4 -0.8
v 0.4 0.4 -0.8
v 0.5 0.4 -0.8
v 0.6 0.4 -0.8
v 0.3 0.6 -0.7
v 0.4 0.6 -0.7
v 0.6 0.6 -0.7
v 0.7 0.6 -0.7
v 0.3 0.6 -0.8
v 0.4 0.6 -0.8
v 0.6 0.6 -0.8
v 0.7 0.6 -0.8
v 0.2 0.8 -0.7
v 0.3 0.8 -0.7
v 0.2 0.8 -0.8
v 0.3 0.8 -0.8
v 0.3 0.5 0
v 0.5 0.5 0
v 0.6 0.5 0
v 0.7 0.5 0
v 0.2 0.5 -0.1
v 0.3 0.5 -0.1
v 0.4 0.5 -0.1
v 0.5 0.5 -0.1
v 0.6 0.5 -0.1
v 0.7 0.5 -0.1
v 0.1 0.5 -0.2
v 0.2 0.5 -0.2
v 0.3 0.5 -0.2
v 0.4 0.5 -0.2
v 0.5 0.5 -0.2
v 0.6 0.5 -0.2
v 0.7 0.5 -0.2
v 0.8 0.5 -0.2
v 0 0.5 -0.3
v 0.1 0.5 -0.3
v 0.2 0.5 -0.3
v 0.3 0.5 -0.3
v 0.4 0.5 -0.3
v 0.5 0.5 -0.3
v 0.6 0.5 -0.3
v 0.7 0.5 -0.3
v 0.8 0.5 -0.3
v 0 0.5 -0.4
v 0.1 0.5 -0.4
v 0.3 0.5 -0.4
v 0.4 0.5 -0.4
v 0.5 0.5 -0.4
v 0.6 0.5 -0.4
v 0.7 0.5 -0.4
v 0.2 0.5 -0.5
v 0.3 0.5 -0.5
v 0.4 0.5 -0.5
v 0.5 0.5 -0.5
v 0.1 0.5 -0.6
v 0.2 0.5 -0.6
v 0.3 0.5 -0.6
v 0.5 0.5 -0.6
v 0.6 0.5 -0.6
v 0 0.5 -0.7
v 0.1 0.5 -0.7
v 0.2 0.5 -0.7
v 0.4 0.5 -0.7
v 0.5 0.5 -0.7
v 0.6 0.5 -0.7
v 0.7 0.5 -0.7
v 0 0.5 -0.8
v 0.1 0.5 -0.8
v 0.6 0.6 -0.2
v 0.7 0.6 -0.2
v 0.6 0.6 -0.3
v 0.7 0.6 -0.3
v 0.3 0.6 -0.4
v 0.4 0.6 -0.4
v 0.3 0.6 -0.5
v 0.4 0.6 -0.5
v 0.4 0.6 -0.7
v 0.5 0.6 -0.7
v 0.6 0.6 -0.7
v 0.4 0.6 -0.8
v 0.5 0.6 -0.8
v 0.6 0.6 -0.8
v 0.6 0.7 -0.3
v 0.7 0.7 -0.3
v 0.6 0.7 -0.4
v 0.7 0.7 -0.4
v 0.3 0.8 -0.7
v 0.4 0.8 -0.7
v 0.3 0.8 -0.8
v 0.4 0.8 -0.8
v 0.2 0.9 -0.7
v 0.3 0.9 -0.7
v 0.6 0.9 -0.7
v 0.7 0.9 -0.7
v 0.2 0.9 -0.8
v 0.3 0.9 -0.8
v 0.6 0.9 -0.8
v 0.7 0.9 -0.8

# faces
f 5/2/1 2/2/1 1/2/1
f 6/2/1 2/2/1 5/2/1
f 7/2/1 4/2/1 3/2/1
f 8/2/1 4/2/1 7/2/1
f 13/3/1 10/3/1 9/3/1
f 14/3/1 10/3/1 13/3/1
f 15/4/1 12/4/1 11/4/1
f 16/4/1 12/4/1 15/4/1
f 21/3/1 18/3/1 17/3/1
f 22/3/1 18/3/1 21/3/1
f 23/4/1 20/4/1 19/4/1
f 24/4/1 20/4/1 23/4/1
f 27/2/1 26/2/1 25/2/1
f 28/2/1 26/2/1 27/2/1
f 33/3/1 30/3/1 29/3/1
f 34/3/1 30/3/1 33/3/1
f 35/5/1 32/5/1 31/5/1
f 36/5/1 32/5/1 35/5/1
f 37/5/1 32/5/1 36/5/1
f 38/4/1 37/4/1 36/4/1
f 39/4/1 37/4/1 38/4/1
f 42/5/1 41/5/1 40/5/1
f 43/5/1 41/5/1 42/5/1
f 49/2/1 45/2/1 44/2/1
f 50/5/1 46/5/1 45/5/1
f 50/2/1 45/2/1 49/2/1
f 51/5/1 46/5/1 50/5/1
f 52/5/1 48/5/1 47/5/1
f 53/5/1 48/5/1 52/5/1
f 54/5/1 48/5/1 53/5/1
f 55/5/1 48/5/1 54/5/1
f 58/4/1 57/4/1 56/4/1
f 59/4/1 57/4/1 58/4/1
f 64/2/1 61/2/1 60/2/1
f 65/2/1 61/2/1 64/2/1
f 68/3/1 63/3/1 62/3/1
f 69/3/1 63/3/1 68/3/1
f 70/1/1 67/1/1 66/1/1
f 71/3/1 68/3/1 67/3/1
f 71/1/1 67/1/1 70/1/1
f 72/3/1 68/3/1 71/3/1
f 75/1/1 72/1/1 71/1/1
f 76/1/1 72/1/1 75/1/1
f 77/1/1 74/1/1 73/1/1
f 78/1/1 74/1/1 77/1/1
f 79/2/1 78/2/1 77/2/1
f 80/2/1 78/2/1 79/2/1
f 81/2/2 82/2/2 85/2/2
f 85/2/2 82/2/2 86/2/2
f 83/2/2 84/2/2 87/2/2
f 87/2/2 84/2/2 88/2/2
f 89/3/2 90/3/2 93/3/2
f 93/3/2 90/3/2 94/3/2
f 91/4/2 92/4/2 95/4/2
f 95/4/2 92/4/2 96/4/2
f 97/3/2 98/3/2 101/3/2
f 101/3/2 98/3/2 102/3/2
f 99/4/2 100/4/2 103/4/2
f 103/4/2 100/4/2 104/4/2
f 105/2/2 106/2/2 107/2/2
f 107/2/2 106/2/2 108/2/2
f 109/5/2 110/5/2 111/5/2
f 111/5/2 110/5/2 112/5/2
f 112/4/2 113/4/2 114/4/2
f 114/4/2 113/4/2 115/4/2
f 116/5/2 117/5/2 118/5/2
f 118/5/2 117/5/2 119/5/2
f 120/3/2 121/3/2 125/3/2
f 125/3/2 121/3/2 126/3/2
f 122/4/2 123/4/2 127/4/2
f 123/5/2 124/5/2 128/5/2
f 127/4/2 123/4/2 128/4/2
f 128/5/2 124/5/2 129/5/2
f 130/1/2 131/1/2 132/1/2
f 132/1/2 131/1/2 133/1/2
f 133/1/2 131/1/2 134/1/2
f 135/2/2 136/2/2 141/2/2
f 136/1/2 137/1/2 142/1/2
f 141/2/2 136/2/2 142/2/2
f 142/1/2 137/1/2 143/1/2
f 138/4/2 139/4/2 144/4/2
f 139/3/2 140/3/2 145/3/2
f 144/4/2 139/4/2 145/4/2
f 145/3/2 140/3/2 146/3/2
f 143/1/2 144/1/2 147/1/2
f 144/3/2 145/3/2 148/3/2
f 147/1/2 144/1/2 148/1/2
f 148/3/2 145/3/2 149/3/2
f 148/1/2 149/1/2 152/1/2
f 152/1/2 149/1/2 153/1/2
f 150/1/2 151/1/2 154/1/2
f 154/1/2 151/1/2 155/1/2
f 154/2/2 155/2/2 156/2/2
f 156/2/2 155/2/2 157/2/2
f 158/2/2 159/2/2 160/2/2
f 160/2/2 159/2/2 161/2/2
f 164/3/3 163/3/3 162/3/3
f 165/3/3 163/3/3 164/3/3
f 168/2/3 167/2/3 166/2/3
f 169/2/3 167/2/3 168/2/3
f 172/3/3 171/3/3 170/3/3
f 173/3/3 171/3/3 172/3/3
f 176/3/3 175/3/3 174/3/3
f 177/3/3 175/3/3 176/3/3
f 180/3/3 179/3/3 178/3/3
f 181/3/3 179/3/3 180/3/3
f 185/1/3 183/1/3 182/1/3
f 186/1/3 183/1/3 185/1/3
f 187/2/3 185/2/3 184/2/3
f 188/2/3 185/2/3 187/2/3
f 191/2/3 190/2/3 189/2/3
f 192/2/3 190/2/3 191/2/3
f 195/5/3 194/5/3 193/5/3
f 196/5/3 194/5/3 195/5/3
f 199/1/3 198/1/3 197/1/3
f 200/1/3 198/1/3 199/1/3
f 204/4/3 202/4/3 201/4/3
f 205/4/3 202/4/3 204/4/3
f 206/4/3 204/4/3 203/4/3
f 207/4/3 204/4/3 206/4/3
f 210/4/3 209/4/3 208/4/3
f 211/4/3 209/4/3 210/4/3
f 214/4/3 213/4/3 212/4/3
f 215/4/3 213/4/3 214/4/3
f 218/1/3 217/1/3 216/1/3
f 219/1/3 217/1/3 218/1/3
f 222/2/3 221/2/3 220/2/3
f 223/2/3 221/2/3 222/2/3
f 227/2/3 225/2/3 224/2/3
f 228/2/3 225/2/3 227/2/3
f 230/5/3 227/5/3 226/5/3
f 231/5/3 227/5/3 230/5/3
f 232/5/3 230/5/3 229/5/3
f 233/5/3 230/5/3 232/5/3
f 234/1/3 233/1/3 232/1/3
f 235/1/3 233/1/3 234/1/3
f 238/1/3 236/1/3 235/1/3
f 239/2/3 237/2/3 236/2/3
f 239/1/3 236/1/3 238/1/3
f 240/2/3 237/2/3 239/2/3
f 241/3/4 242/3/4 243/3/4
f 243/3/4 242/3/4 244/3/4
f 245/3/4 246/3/4 247/3/4
f 247/3/4 246/3/4 248/3/4
f 249/3/4 250/3/4 251/3/4
f 251/3/4 250/3/4 252/3/4
f 253/5/4 254/5/4 255/5/4
f 255/5/4 254/5/4 256/5/4
f 257/2/4 258/2/4 259/2/4
f 259/2/4 258/2/4 260/2/4
f 261/2/4 262/2/4 263/2/4
f 263/2/4 262/2/4 264/2/4
f 265/4/4 266/4/4 267/4/4
f 267/4/4 266/4/4 268/4/4
f 268/3/4 269/3/4 271/3/4
f 269/1/4 270/1/4 272/1/4
f 271/3/4 269/3/4 272/3/4
f 272/1/4 270/1/4 273/1/4
f 274/5/4 275/5/4 277/5/4
f 275/4/4 276/4/4 278/4/4
f 277/5/4 275/5/4 278/5/4
f 278/4/4 276/4/4 279/4/4
f 280/4/4 281/4/4 282/4/4
f 282/4/4 281/4/4 283/4/4
f 284/4/4 285/4/4 286/4/4
f 286/4/4 285/4/4 287/4/4
f 288/3/4 289/3/4 290/3/4
f 290/3/4 289/3/4 291/3/4
f 292/2/4 293/2/4 294/2/4
f 294/2/4 293/2/4 295/2/4
f 296/2/4 297/2/4 299/2/4
f 299/2/4 297/2/4 300/2/4
f 298/5/4 299/5/4 302/5/4
f 302/5/4 299/5/4 303/5/4
f 301/5/4 302/5/4 304/5/4
f 304/5/4 302/5/4 305/5/4
f 304/1/4 305/1/4 306/1/4
f 306/1/4 305/1/4 307/1/4
f 307/1/4 308/1/4 310/1/4
f 308/2/4 309/2/4 311/2/4
f 310/1/4 308/1/4 311/1/4
f 311/2/4 309/2/4 312/2/4
f 318/3/5 314/3/5 313/3/5
f 319/3/5 314/3/5 318/3/5
f 320/3/5 314/3/5 319/3/5
f 321/2/5 316/2/5 315/2/5
f 322/2/5 316/2/5 321/2/5
f 324/3/5 318/3/5 317/3/5
f 325/3/5 318/3/5 324/3/5
f 326/2/5 320/2/5 319/2/5
f 327/3/5 321/3/5 320/3/5
f 327/2/5 320/2/5 326/2/5
f 328/1/5 322/1/5 321/1/5
f 328/3/5 321/3/5 327/3/5
f 329/1/5 322/1/5 328/1/5
f 332/3/5 324/3/5 323/3/5
f 333/3/5 324/3/5 332/3/5
f 335/5/5 327/5/5 326/5/5
f 336/3/5 329/3/5 328/3/5
f 336/3/5 328/3/5 327/3/5
f 336/5/5 327/5/5 335/5/5
f 337/2/5 330/2/5 329/2/5
f 337/3/5 329/3/5 336/3/5
f 338/2/5 330/2/5 337/2/5
f 339/2/5 332/2/5 331/2/5
f 340/2/5 332/2/5 339/2/5
f 341/5/5 335/5/5 334/5/5
f 342/4/5 337/4/5 336/4/5
f 343/4/5 337/4/5 342/4/5
f 344/4/5 337/4/5 343/4/5
f 346/5/5 341/5/5 334/5/5
f 347/4/5 342/4/5 341/4/5
f 347/5/5 341/5/5 346/5/5
f 348/4/5 342/4/5 347/4/5
f 350/4/5 346/4/5 345/4/5
f 351/4/5 346/4/5 350/4/5
f 352/5/5 348/5/5 347/5/5
f 353/3/5 344/3/5 343/3/5
f 355/4/5 350/4/5 349/4/5
f 356/4/5 350/4/5 355/4/5
f 357/1/5 353/1/5 352/1/5
f 357/3/5 344/3/5 353/3/5
f 358/3/5 344/3/5 357/3/5
f 359/2/5 355/2/5 354/2/5
f 360/2/5 355/2/5 359/2/5
f 361/5/5 352/5/5 347/5/5
f 362/1/5 357/1/5 352/1/5
f 362/5/5 352/5/5 361/5/5
f 363/1/5 357/1/5 362/1/5
f 368/5/5 365/5/5 364/5/5
f 369/5/5 365/5/5 368/5/5
f 370/1/5 367/1/5 366/1/5
f 371/1/5 367/1/5 370/1/5
f 374/2/5 373/2/5 372/2/5
f 375/2/5 373/2/5 374/2/5
f 376/3/6 377/3/6 381/3/6
f 381/3/6 377/3/6 382/3/6
f 382/3/6 377/3/6 383/3/6
f 378/2/6 379/2/6 384/2/6
f 384/2/6 379/2/6 385/2/6
f 380/3/6 381/3/6 387/3/6
f 387/3/6 381/3/6 388/3/6
f 382/2/6 383/2/6 389/2/6
f 383/3/6 384/3/6 390/3/6
f 389/2/6 383/2/6 390/2/6
f 384/1/6 385/1/6 391/1/6
f 390/3/6 384/3/6 391/3/6
f 391/1/6 385/1/6 392/1/6
f 386/3/6 387/3/6 395/3/6
f 395/3/6 387/3/6 396/3/6
f 389/5/6 390/5/6 398/5/6
f 390/3/6 391/3/6 399/3/6
f 398/5/6 390/5/6 399/5/6
f 399/3/6 391/3/6 400/3/6
f 392/2/6 393/2/6 401/2/6
f 401/2/6 393/2/6 402/2/6
f 394/2/6 395/2/6 403/2/6
f 403/2/6 395/2/6 404/2/6
f 397/5/6 398/5/6 405/5/6
f 405/5/6 398/5/6 406/5/6
f 399/4/6 400/4/6 407/4/6
f 407/4/6 400/4/6 408/4/6
f 406/4/6 407/4/6 412/4/6
f 412/4/6 407/4/6 413/4/6
f 410/4/6 411/4/6 415/4/6
f 415/4/6 411/4/6 416/4/6
f 412/5/6 413/5/6 417/5/6
f 408/3/6 409/3/6 418/3/6
f 414/4/6 415/4/6 420/4/6
f 420/4/6 415/4/6 421/4/6
f 412/5/6 417/5/6 422/5/6
f 417/1/6 418/1/6 423/1/6
f 422/5/6 417/5/6 423/5/6
f 418/3/6 409/3/6 424/3/6
f 423/1/6 418/1/6 424/1/6
f 424/3/6 409/3/6 425/3/6
f 419/2/6 420/2/6 426/2/6
f 426/2/6 420/2/6 427/2/6
f 428/1/6 429/1/6 430/1/6
f 430/1/6 429/1/6 431/1/6
f 432/4/6 433/4/6 434/4/6
f 434/4/6 433/4/6 435/4/6
f 436/5/6 437/5/6 439/5/6
f 437/1/6 438/1/6 440/1/6
f 439/5/6 437/5/6 440/5/6
f 440/1/6 438/1/6 441/1/6
f 442/1/6 443/1/6 444/1/6
f 444/1/6 443/1/6 445/1/6
f 446/5/6 447/5/6 448/5/6
f 448/5/6 447/5/6 449/5/6
f 450/2/6 451/2/6 454/2/6
f 454/2/6 451/2/6 455/2/6
f 452/2/6 453/2/6 456/2/6
f 456/2/6 453/2/6 457/2/6
