# MagicaVoxel @ Ephtracy

# group
o 

# material
mtllib deco_9.mtl
usemtl palette

# normals
vn -1 0 0
vn 1 0 0
vn 0 0 1
vn 0 0 -1
vn 0 -1 0
vn 0 1 0

# texcoords
vt 0.0878906 0.5
vt 0.986328 0.5
vt 0.994141 0.5

# verts
v 0.1 0.4 -0.3
v 0.1 0.4 -0.4
v 0.1 0.6 -0.3
v 0.1 0.6 -0.4
v 0.2 0.4 -0.4
v 0.2 0.4 -0.5
v 0.2 0.5 -0.2
v 0.2 0.5 -0.3
v 0.2 0.5 -0.4
v 0.2 0.5 -0.5
v 0.2 0.5 -0.6
v 0.2 0.5 -0.7
v 0.2 0.6 -0.2
v 0.2 0.6 -0.3
v 0.2 0.6 -0.6
v 0.2 0.6 -0.7
v 0.2 0.7 -0.1
v 0.2 0.7 -0.2
v 0.2 0.7 -0.3
v 0.2 0.7 -0.6
v 0.2 0.7 -0.7
v 0.2 0.8 -0.1
v 0.2 0.8 -0.2
v 0.2 0.8 -0.3
v 0.2 0.8 -0.6
v 0.2 0.8 -0.7
v 0.2 0.9 -0.2
v 0.2 0.9 -0.3
v 0.3 0.4 -0.2
v 0.3 0.4 -0.3
v 0.3 0.4 -0.5
v 0.3 0.4 -0.6
v 0.3 0.4 -0.7
v 0.3 0.5 -0.2
v 0.3 0.5 -0.3
v 0.3 0.5 -0.5
v 0.3 0.5 -0.6
v 0.3 0.5 -0.7
v 0.3 0.6 -0.6
v 0.3 0.6 -0.7
v 0.3 0.7 -0.6
v 0.3 0.7 -0.7
v 0.3 0.8 -0.6
v 0.3 0.8 -0.7
v 0.3 0.9 -0.2
v 0.3 0.9 -0.3
v 0.3 0.9 -0.6
v 0.3 0.9 -0.7
v 0.3 1 -0.2
v 0.3 1 -0.3
v 0.4 0.4 -0.7
v 0.4 0.4 -0.8
v 0.4 0.5 -0.7
v 0.4 0.5 -0.8
v 0.5 0.4 -0.2
v 0.5 0.4 -0.3
v 0.5 0.4 -0.6
v 0.5 0.4 -0.7
v 0.5 0.5 -0.2
v 0.5 0.5 -0.3
v 0.5 0.5 -0.6
v 0.5 0.5 -0.7
v 0.5 0.5 -0.8
v 0.5 0.6 -0.2
v 0.5 0.6 -0.3
v 0.5 0.6 -0.6
v 0.5 0.6 -0.7
v 0.5 0.6 -0.8
v 0.5 0.7 -0.2
v 0.5 0.7 -0.3
v 0.5 0.7 -0.6
v 0.5 0.7 -0.7
v 0.5 0.8 -0.6
v 0.5 0.8 -0.7
v 0.5 0.9 -0.6
v 0.5 0.9 -0.7
v 0.6 0.5 -0.5
v 0.6 0.5 -0.6
v 0.6 0.6 -0.5
v 0.6 0.6 -0.6
v 0.2 0.4 -0.3
v 0.2 0.4 -0.4
v 0.2 0.5 -0.3
v 0.2 0.5 -0.4
v 0.2 0.6 -0.3
v 0.2 0.6 -0.4
v 0.3 0.4 -0.4
v 0.3 0.4 -0.5
v 0.3 0.5 -0.4
v 0.3 0.5 -0.5
v 0.3 0.7 -0.1
v 0.3 0.7 -0.2
v 0.3 0.8 -0.1
v 0.3 0.8 -0.2
v 0.4 0.4 -0.2
v 0.4 0.4 -0.3
v 0.4 0.4 -0.6
v 0.4 0.4 -0.7
v 0.4 0.5 -0.2
v 0.4 0.5 -0.3
v 0.4 0.5 -0.6
v 0.4 0.5 -0.7
v 0.4 0.6 -0.2
v 0.4 0.6 -0.3
v 0.4 0.6 -0.6
v 0.4 0.6 -0.7
v 0.4 0.7 -0.2
v 0.4 0.7 -0.3
v 0.4 0.7 -0.6
v 0.4 0.7 -0.7
v 0.4 0.8 -0.6
v 0.4 0.8 -0.7
v 0.4 0.9 -0.2
v 0.4 0.9 -0.3
v 0.4 0.9 -0.6
v 0.4 0.9 -0.7
v 0.4 1 -0.2
v 0.4 1 -0.3
v 0.5 0.4 -0.7
v 0.5 0.4 -0.8
v 0.5 0.5 -0.7
v 0.5 0.5 -0.8
v 0.6 0.4 -0.2
v 0.6 0.4 -0.3
v 0.6 0.4 -0.5
v 0.6 0.4 -0.6
v 0.6 0.4 -0.7
v 0.6 0.5 -0.2
v 0.6 0.5 -0.3
v 0.6 0.5 -0.5
v 0.6 0.5 -0.6
v 0.6 0.5 -0.7
v 0.6 0.5 -0.8
v 0.6 0.6 -0.2
v 0.6 0.6 -0.3
v 0.6 0.6 -0.7
v 0.6 0.6 -0.8
v 0.6 0.7 -0.2
v 0.6 0.7 -0.3
v 0.6 0.8 -0.2
v 0.6 0.8 -0.3
v 0.6 0.8 -0.6
v 0.6 0.8 -0.7
v 0.6 0.9 -0.2
v 0.6 0.9 -0.3
v 0.6 0.9 -0.6
v 0.6 0.9 -0.7
v 0.7 0.5 -0.2
v 0.7 0.5 -0.3
v 0.7 0.5 -0.5
v 0.7 0.5 -0.6
v 0.7 0.5 -0.7
v 0.7 0.6 -0.2
v 0.7 0.6 -0.3
v 0.7 0.6 -0.5
v 0.7 0.6 -0.6
v 0.7 0.6 -0.7
v 0.7 0.7 -0.2
v 0.7 0.7 -0.3
v 0.7 0.7 -0.6
v 0.7 0.7 -0.7
v 0.7 0.8 -0.2
v 0.7 0.8 -0.3
v 0.7 0.8 -0.6
v 0.7 0.8 -0.7
v 0.2 0.7 -0.1
v 0.2 0.8 -0.1
v 0.3 0.7 -0.1
v 0.3 0.8 -0.1
v 0.2 0.5 -0.2
v 0.2 0.6 -0.2
v 0.2 0.7 -0.2
v 0.2 0.8 -0.2
v 0.2 0.9 -0.2
v 0.3 0.4 -0.2
v 0.3 0.5 -0.2
v 0.3 0.6 -0.2
v 0.3 0.7 -0.2
v 0.3 0.8 -0.2
v 0.3 0.9 -0.2
v 0.3 1 -0.2
v 0.4 0.4 -0.2
v 0.4 0.5 -0.2
v 0.4 0.6 -0.2
v 0.4 0.7 -0.2
v 0.4 0.8 -0.2
v 0.4 0.9 -0.2
v 0.4 1 -0.2
v 0.5 0.4 -0.2
v 0.5 0.5 -0.2
v 0.5 0.6 -0.2
v 0.5 0.7 -0.2
v 0.5 0.8 -0.2
v 0.5 0.9 -0.2
v 0.6 0.4 -0.2
v 0.6 0.5 -0.2
v 0.6 0.6 -0.2
v 0.6 0.7 -0.2
v 0.6 0.8 -0.2
v 0.6 0.9 -0.2
v 0.7 0.5 -0.2
v 0.7 0.6 -0.2
v 0.7 0.7 -0.2
v 0.7 0.8 -0.2
v 0.1 0.4 -0.3
v 0.1 0.6 -0.3
v 0.2 0.4 -0.3
v 0.2 0.5 -0.3
v 0.2 0.6 -0.3
v 0.2 0.4 -0.4
v 0.2 0.5 -0.4
v 0.3 0.4 -0.4
v 0.3 0.5 -0.4
v 0.3 0.4 -0.5
v 0.3 0.5 -0.5
v 0.6 0.4 -0.5
v 0.6 0.5 -0.5
v 0.6 0.6 -0.5
v 0.7 0.5 -0.5
v 0.7 0.6 -0.5
v 0.2 0.5 -0.6
v 0.2 0.6 -0.6
v 0.2 0.7 -0.6
v 0.2 0.8 -0.6
v 0.3 0.5 -0.6
v 0.3 0.6 -0.6
v 0.3 0.7 -0.6
v 0.3 0.8 -0.6
v 0.3 0.9 -0.6
v 0.4 0.6 -0.6
v 0.4 0.7 -0.6
v 0.4 0.8 -0.6
v 0.4 0.9 -0.6
v 0.5 0.6 -0.6
v 0.5 0.7 -0.6
v 0.5 0.8 -0.6
v 0.5 0.9 -0.6
v 0.6 0.5 -0.6
v 0.6 0.6 -0.6
v 0.6 0.7 -0.6
v 0.6 0.8 -0.6
v 0.6 0.9 -0.6
v 0.7 0.6 -0.6
v 0.7 0.7 -0.6
v 0.7 0.8 -0.6
v 0.4 0.4 -0.7
v 0.4 0.5 -0.7
v 0.5 0.4 -0.7
v 0.5 0.5 -0.7
v 0.2 0.5 -0.3
v 0.2 0.6 -0.3
v 0.2 0.7 -0.3
v 0.2 0.8 -0.3
v 0.2 0.9 -0.3
v 0.3 0.4 -0.3
v 0.3 0.5 -0.3
v 0.3 0.6 -0.3
v 0.3 0.7 -0.3
v 0.3 0.8 -0.3
v 0.3 0.9 -0.3
v 0.3 1 -0.3
v 0.4 0.4 -0.3
v 0.4 0.5 -0.3
v 0.4 0.6 -0.3
v 0.4 0.7 -0.3
v 0.4 0.8 -0.3
v 0.4 0.9 -0.3
v 0.4 1 -0.3
v 0.5 0.4 -0.3
v 0.5 0.5 -0.3
v 0.5 0.6 -0.3
v 0.5 0.7 -0.3
v 0.5 0.8 -0.3
v 0.5 0.9 -0.3
v 0.6 0.4 -0.3
v 0.6 0.5 -0.3
v 0.6 0.6 -0.3
v 0.6 0.7 -0.3
v 0.6 0.8 -0.3
v 0.6 0.9 -0.3
v 0.7 0.5 -0.3
v 0.7 0.6 -0.3
v 0.7 0.7 -0.3
v 0.7 0.8 -0.3
v 0.1 0.4 -0.4
v 0.1 0.6 -0.4
v 0.2 0.4 -0.4
v 0.2 0.5 -0.4
v 0.2 0.6 -0.4
v 0.2 0.4 -0.5
v 0.2 0.5 -0.5
v 0.3 0.4 -0.5
v 0.3 0.5 -0.5
v 0.4 0.4 -0.6
v 0.4 0.5 -0.6
v 0.5 0.4 -0.6
v 0.5 0.5 -0.6
v 0.2 0.5 -0.7
v 0.2 0.6 -0.7
v 0.2 0.7 -0.7
v 0.2 0.8 -0.7
v 0.3 0.4 -0.7
v 0.3 0.5 -0.7
v 0.3 0.6 -0.7
v 0.3 0.7 -0.7
v 0.3 0.8 -0.7
v 0.3 0.9 -0.7
v 0.4 0.4 -0.7
v 0.4 0.5 -0.7
v 0.4 0.6 -0.7
v 0.4 0.7 -0.7
v 0.4 0.8 -0.7
v 0.4 0.9 -0.7
v 0.5 0.4 -0.7
v 0.5 0.5 -0.7
v 0.5 0.6 -0.7
v 0.5 0.7 -0.7
v 0.5 0.8 -0.7
v 0.5 0.9 -0.7
v 0.6 0.4 -0.7
v 0.6 0.5 -0.7
v 0.6 0.6 -0.7
v 0.6 0.7 -0.7
v 0.6 0.8 -0.7
v 0.6 0.9 -0.7
v 0.7 0.5 -0.7
v 0.7 0.6 -0.7
v 0.7 0.7 -0.7
v 0.7 0.8 -0.7
v 0.4 0.4 -0.8
v 0.4 0.5 -0.8
v 0.5 0.4 -0.8
v 0.5 0.5 -0.8
v 0.5 0.6 -0.8
v 0.6 0.5 -0.8
v 0.6 0.6 -0.8
v 0.3 0.4 -0.2
v 0.4 0.4 -0.2
v 0.5 0.4 -0.2
v 0.6 0.4 -0.2
v 0.1 0.4 -0.3
v 0.2 0.4 -0.3
v 0.3 0.4 -0.3
v 0.4 0.4 -0.3
v 0.5 0.4 -0.3
v 0.6 0.4 -0.3
v 0.1 0.4 -0.4
v 0.2 0.4 -0.4
v 0.3 0.4 -0.4
v 0.2 0.4 -0.5
v 0.3 0.4 -0.5
v 0.6 0.4 -0.5
v 0.3 0.4 -0.6
v 0.4 0.4 -0.6
v 0.5 0.4 -0.6
v 0.6 0.4 -0.6
v 0.3 0.4 -0.7
v 0.4 0.4 -0.7
v 0.5 0.4 -0.7
v 0.6 0.4 -0.7
v 0.4 0.4 -0.8
v 0.5 0.4 -0.8
v 0.2 0.5 -0.2
v 0.3 0.5 -0.2
v 0.4 0.5 -0.2
v 0.5 0.5 -0.2
v 0.6 0.5 -0.2
v 0.7 0.5 -0.2
v 0.2 0.5 -0.3
v 0.3 0.5 -0.3
v 0.4 0.5 -0.3
v 0.5 0.5 -0.3
v 0.6 0.5 -0.3
v 0.7 0.5 -0.3
v 0.6 0.5 -0.5
v 0.7 0.5 -0.5
v 0.2 0.5 -0.6
v 0.3 0.5 -0.6
v 0.4 0.5 -0.6
v 0.5 0.5 -0.6
v 0.6 0.5 -0.6
v 0.7 0.5 -0.6
v 0.2 0.5 -0.7
v 0.3 0.5 -0.7
v 0.4 0.5 -0.7
v 0.5 0.5 -0.7
v 0.6 0.5 -0.7
v 0.7 0.5 -0.7
v 0.5 0.5 -0.8
v 0.6 0.5 -0.8
v 0.2 0.7 -0.1
v 0.3 0.7 -0.1
v 0.2 0.7 -0.2
v 0.3 0.7 -0.2
v 0.4 0.7 -0.2
v 0.5 0.7 -0.2
v 0.6 0.7 -0.2
v 0.7 0.7 -0.2
v 0.4 0.7 -0.3
v 0.5 0.7 -0.3
v 0.6 0.7 -0.3
v 0.7 0.7 -0.3
v 0.2 0.7 -0.6
v 0.3 0.7 -0.6
v 0.4 0.7 -0.6
v 0.5 0.7 -0.6
v 0.2 0.7 -0.7
v 0.3 0.7 -0.7
v 0.4 0.7 -0.7
v 0.5 0.7 -0.7
v 0.2 0.5 -0.4
v 0.3 0.5 -0.4
v 0.2 0.5 -0.5
v 0.3 0.5 -0.5
v 0.6 0.5 -0.5
v 0.3 0.5 -0.6
v 0.6 0.5 -0.6
v 0.4 0.5 -0.7
v 0.5 0.5 -0.7
v 0.4 0.5 -0.8
v 0.5 0.5 -0.8
v 0.4 0.6 -0.2
v 0.5 0.6 -0.2
v 0.6 0.6 -0.2
v 0.7 0.6 -0.2
v 0.1 0.6 -0.3
v 0.2 0.6 -0.3
v 0.4 0.6 -0.3
v 0.5 0.6 -0.3
v 0.6 0.6 -0.3
v 0.7 0.6 -0.3
v 0.1 0.6 -0.4
v 0.2 0.6 -0.4
v 0.6 0.6 -0.5
v 0.7 0.6 -0.5
v 0.2 0.6 -0.6
v 0.3 0.6 -0.6
v 0.4 0.6 -0.6
v 0.5 0.6 -0.6
v 0.6 0.6 -0.6
v 0.7 0.6 -0.6
v 0.2 0.6 -0.7
v 0.3 0.6 -0.7
v 0.4 0.6 -0.7
v 0.5 0.6 -0.7
v 0.6 0.6 -0.7
v 0.5 0.6 -0.8
v 0.6 0.6 -0.8
v 0.2 0.8 -0.1
v 0.3 0.8 -0.1
v 0.2 0.8 -0.2
v 0.3 0.8 -0.2
v 0.6 0.8 -0.2
v 0.7 0.8 -0.2
v 0.6 0.8 -0.3
v 0.7 0.8 -0.3
v 0.2 0.8 -0.6
v 0.3 0.8 -0.6
v 0.4 0.8 -0.6
v 0.5 0.8 -0.6
v 0.6 0.8 -0.6
v 0.7 0.8 -0.6
v 0.2 0.8 -0.7
v 0.3 0.8 -0.7
v 0.4 0.8 -0.7
v 0.5 0.8 -0.7
v 0.6 0.8 -0.7
v 0.7 0.8 -0.7
v 0.2 0.9 -0.2
v 0.3 0.9 -0.2
v 0.4 0.9 -0.2
v 0.5 0.9 -0.2
v 0.6 0.9 -0.2
v 0.2 0.9 -0.3
v 0.3 0.9 -0.3
v 0.4 0.9 -0.3
v 0.5 0.9 -0.3
v 0.6 0.9 -0.3
v 0.3 0.9 -0.6
v 0.4 0.9 -0.6
v 0.5 0.9 -0.6
v 0.6 0.9 -0.6
v 0.3 0.9 -0.7
v 0.4 0.9 -0.7
v 0.5 0.9 -0.7
v 0.6 0.9 -0.7
v 0.3 1 -0.2
v 0.4 1 -0.2
v 0.3 1 -0.3
v 0.4 1 -0.3

# faces
f 3/3/1 2/3/1 1/3/1
f 4/3/1 2/3/1 3/3/1
f 9/3/1 6/3/1 5/3/1
f 10/3/1 6/3/1 9/3/1
f 13/2/1 8/2/1 7/2/1
f 14/2/1 8/2/1 13/2/1
f 15/2/1 12/2/1 11/2/1
f 16/2/1 12/2/1 15/2/1
f 18/3/1 14/3/1 13/3/1
f 19/3/1 14/3/1 18/3/1
f 22/3/1 18/3/1 17/3/1
f 23/2/1 19/2/1 18/2/1
f 23/3/1 18/3/1 22/3/1
f 24/2/1 19/2/1 23/2/1
f 25/2/1 21/2/1 20/2/1
f 26/2/1 21/2/1 25/2/1
f 27/3/1 24/3/1 23/3/1
f 28/3/1 24/3/1 27/3/1
f 34/2/1 30/2/1 29/2/1
f 35/2/1 30/2/1 34/2/1
f 36/3/1 32/3/1 31/3/1
f 37/2/1 33/2/1 32/2/1
f 37/3/1 32/3/1 36/3/1
f 38/2/1 33/2/1 37/2/1
f 41/2/1 40/2/1 39/2/1
f 42/2/1 40/2/1 41/2/1
f 47/2/1 44/2/1 43/2/1
f 48/2/1 44/2/1 47/2/1
f 49/3/1 46/3/1 45/3/1
f 50/3/1 46/3/1 49/3/1
f 53/1/1 52/1/1 51/1/1
f 54/1/1 52/1/1 53/1/1
f 59/2/1 56/2/1 55/2/1
f 60/2/1 56/2/1 59/2/1
f 61/2/1 58/2/1 57/2/1
f 62/2/1 58/2/1 61/2/1
f 67/3/1 63/3/1 62/3/1
f 68/3/1 63/3/1 67/3/1
f 69/2/1 65/2/1 64/2/1
f 70/2/1 65/2/1 69/2/1
f 71/2/1 67/2/1 66/2/1
f 72/2/1 67/2/1 71/2/1
f 75/2/1 74/2/1 73/2/1
f 76/2/1 74/2/1 75/2/1
f 79/3/1 78/3/1 77/3/1
f 80/3/1 78/3/1 79/3/1
f 81/3/2 82/3/2 83/3/2
f 83/3/2 82/3/2 84/3/2
f 83/3/2 84/3/2 85/3/2
f 85/3/2 84/3/2 86/3/2
f 87/3/2 88/3/2 89/3/2
f 89/3/2 88/3/2 90/3/2
f 91/3/2 92/3/2 93/3/2
f 93/3/2 92/3/2 94/3/2
f 95/2/2 96/2/2 99/2/2
f 99/2/2 96/2/2 100/2/2
f 97/2/2 98/2/2 101/2/2
f 101/2/2 98/2/2 102/2/2
f 103/2/2 104/2/2 107/2/2
f 107/2/2 104/2/2 108/2/2
f 105/2/2 106/2/2 109/2/2
f 109/2/2 106/2/2 110/2/2
f 111/2/2 112/2/2 115/2/2
f 115/2/2 112/2/2 116/2/2
f 113/3/2 114/3/2 117/3/2
f 117/3/2 114/3/2 118/3/2
f 119/1/2 120/1/2 121/1/2
f 121/1/2 120/1/2 122/1/2
f 123/2/2 124/2/2 128/2/2
f 128/2/2 124/2/2 129/2/2
f 125/3/2 126/3/2 130/3/2
f 126/2/2 127/2/2 131/2/2
f 130/3/2 126/3/2 131/3/2
f 131/2/2 127/2/2 132/2/2
f 132/3/2 133/3/2 136/3/2
f 136/3/2 133/3/2 137/3/2
f 134/2/2 135/2/2 138/2/2
f 138/2/2 135/2/2 139/2/2
f 140/2/2 141/2/2 144/2/2
f 144/2/2 141/2/2 145/2/2
f 142/2/2 143/2/2 146/2/2
f 146/2/2 143/2/2 147/2/2
f 148/2/2 149/2/2 153/2/2
f 153/2/2 149/2/2 154/2/2
f 150/3/2 151/3/2 155/3/2
f 151/2/2 152/2/2 156/2/2
f 155/3/2 151/3/2 156/3/2
f 156/2/2 152/2/2 157/2/2
f 156/3/2 157/3/2 160/3/2
f 160/3/2 157/3/2 161/3/2
f 158/2/2 159/2/2 162/2/2
f 162/2/2 159/2/2 163/2/2
f 160/2/2 161/2/2 164/2/2
f 164/2/2 161/2/2 165/2/2
f 168/3/3 167/3/3 166/3/3
f 169/3/3 167/3/3 168/3/3
f 176/2/3 171/2/3 170/2/3
f 177/3/3 172/3/3 171/3/3
f 177/2/3 171/2/3 176/2/3
f 178/3/3 172/3/3 177/3/3
f 179/3/3 174/3/3 173/3/3
f 180/3/3 174/3/3 179/3/3
f 182/2/3 178/2/3 177/2/3
f 182/2/3 176/2/3 175/2/3
f 182/2/3 180/2/3 179/2/3
f 182/2/3 179/2/3 178/2/3
f 182/2/3 177/2/3 176/2/3
f 183/2/3 180/2/3 182/2/3
f 184/2/3 180/2/3 183/2/3
f 185/2/3 180/2/3 184/2/3
f 186/2/3 180/2/3 185/2/3
f 187/3/3 181/3/3 180/3/3
f 187/2/3 180/2/3 186/2/3
f 188/3/3 181/3/3 187/3/3
f 190/2/3 184/2/3 183/2/3
f 191/2/3 184/2/3 190/2/3
f 192/2/3 186/2/3 185/2/3
f 193/1/3 187/1/3 186/1/3
f 193/2/3 186/2/3 192/2/3
f 194/1/3 187/1/3 193/1/3
f 195/2/3 191/2/3 190/2/3
f 195/2/3 192/2/3 191/2/3
f 195/2/3 194/2/3 193/2/3
f 195/2/3 193/2/3 192/2/3
f 195/2/3 190/2/3 189/2/3
f 196/2/3 194/2/3 195/2/3
f 197/2/3 194/2/3 196/2/3
f 198/2/3 194/2/3 197/2/3
f 199/2/3 194/2/3 198/2/3
f 200/2/3 194/2/3 199/2/3
f 201/2/3 197/2/3 196/2/3
f 202/2/3 197/2/3 201/2/3
f 203/2/3 199/2/3 198/2/3
f 204/2/3 199/2/3 203/2/3
f 207/3/3 206/3/3 205/3/3
f 208/3/3 206/3/3 207/3/3
f 209/3/3 206/3/3 208/3/3
f 212/3/3 211/3/3 210/3/3
f 213/3/3 211/3/3 212/3/3
f 216/3/3 215/3/3 214/3/3
f 217/3/3 215/3/3 216/3/3
f 219/3/3 218/3/3 217/3/3
f 220/3/3 218/3/3 219/3/3
f 225/2/3 222/2/3 221/2/3
f 226/2/3 222/2/3 225/2/3
f 227/2/3 224/2/3 223/2/3
f 228/2/3 224/2/3 227/2/3
f 230/2/3 226/2/3 225/2/3
f 230/2/3 229/2/3 228/2/3
f 230/2/3 228/2/3 227/2/3
f 230/2/3 227/2/3 226/2/3
f 231/2/3 229/2/3 230/2/3
f 232/2/3 229/2/3 231/2/3
f 233/2/3 229/2/3 232/2/3
f 234/2/3 230/2/3 225/2/3
f 235/2/3 232/2/3 231/2/3
f 236/2/3 232/2/3 235/2/3
f 238/2/3 234/2/3 225/2/3
f 238/2/3 237/2/3 236/2/3
f 238/2/3 236/2/3 235/2/3
f 238/2/3 235/2/3 234/2/3
f 239/2/3 237/2/3 238/2/3
f 240/2/3 237/2/3 239/2/3
f 241/2/3 237/2/3 240/2/3
f 242/2/3 237/2/3 241/2/3
f 243/3/3 240/3/3 239/3/3
f 244/2/3 241/2/3 240/2/3
f 244/3/3 240/3/3 243/3/3
f 245/2/3 241/2/3 244/2/3
f 248/1/3 247/1/3 246/1/3
f 249/1/3 247/1/3 248/1/3
f 250/2/4 251/2/4 256/2/4
f 251/3/4 252/3/4 257/3/4
f 256/2/4 251/2/4 257/2/4
f 252/2/4 253/2/4 258/2/4
f 257/3/4 252/3/4 258/3/4
f 253/3/4 254/3/4 259/3/4
f 258/2/4 253/2/4 259/2/4
f 259/3/4 254/3/4 260/3/4
f 257/2/4 258/2/4 262/2/4
f 255/2/4 256/2/4 262/2/4
f 259/2/4 260/2/4 262/2/4
f 258/2/4 259/2/4 262/2/4
f 256/2/4 257/2/4 262/2/4
f 262/2/4 260/2/4 263/2/4
f 263/2/4 260/2/4 264/2/4
f 264/2/4 260/2/4 265/2/4
f 265/2/4 260/2/4 266/2/4
f 260/3/4 261/3/4 267/3/4
f 266/2/4 260/2/4 267/2/4
f 267/3/4 261/3/4 268/3/4
f 263/2/4 264/2/4 270/2/4
f 270/2/4 264/2/4 271/2/4
f 265/2/4 266/2/4 272/2/4
f 266/1/4 267/1/4 273/1/4
f 272/2/4 266/2/4 273/2/4
f 273/1/4 267/1/4 274/1/4
f 270/2/4 271/2/4 275/2/4
f 271/2/4 272/2/4 275/2/4
f 273/2/4 274/2/4 275/2/4
f 272/2/4 273/2/4 275/2/4
f 269/2/4 270/2/4 275/2/4
f 275/2/4 274/2/4 276/2/4
f 276/2/4 274/2/4 277/2/4
f 277/2/4 274/2/4 278/2/4
f 278/2/4 274/2/4 279/2/4
f 279/2/4 274/2/4 280/2/4
f 276/2/4 277/2/4 281/2/4
f 281/2/4 277/2/4 282/2/4
f 278/2/4 279/2/4 283/2/4
f 283/2/4 279/2/4 284/2/4
f 285/3/4 286/3/4 287/3/4
f 287/3/4 286/3/4 288/3/4
f 288/3/4 286/3/4 289/3/4
f 290/3/4 291/3/4 292/3/4
f 292/3/4 291/3/4 293/3/4
f 294/3/4 295/3/4 296/3/4
f 296/3/4 295/3/4 297/3/4
f 298/2/4 299/2/4 303/2/4
f 303/2/4 299/2/4 304/2/4
f 300/2/4 301/2/4 305/2/4
f 305/2/4 301/2/4 306/2/4
f 303/2/4 304/2/4 308/2/4
f 306/2/4 307/2/4 308/2/4
f 305/2/4 306/2/4 308/2/4
f 304/2/4 305/2/4 308/2/4
f 302/2/4 303/2/4 308/2/4
f 308/2/4 307/2/4 309/2/4
f 309/2/4 307/2/4 310/2/4
f 310/2/4 307/2/4 311/2/4
f 311/2/4 307/2/4 312/2/4
f 312/2/4 307/2/4 313/2/4
f 309/2/4 310/2/4 315/2/4
f 315/2/4 310/2/4 316/2/4
f 311/2/4 312/2/4 317/2/4
f 317/2/4 312/2/4 318/2/4
f 314/2/4 315/2/4 320/2/4
f 320/2/4 315/2/4 321/2/4
f 318/2/4 319/2/4 322/2/4
f 317/2/4 318/2/4 322/2/4
f 316/2/4 317/2/4 322/2/4
f 322/2/4 319/2/4 323/2/4
f 323/2/4 319/2/4 324/2/4
f 324/2/4 319/2/4 325/2/4
f 321/2/4 322/2/4 326/2/4
f 322/3/4 323/3/4 327/3/4
f 326/2/4 322/2/4 327/2/4
f 323/2/4 324/2/4 328/2/4
f 327/3/4 323/3/4 328/3/4
f 328/2/4 324/2/4 329/2/4
f 330/1/4 331/1/4 332/1/4
f 332/1/4 331/1/4 333/1/4
f 333/3/4 334/3/4 335/3/4
f 335/3/4 334/3/4 336/3/4
f 343/2/5 338/2/5 337/2/5
f 344/2/5 338/2/5 343/2/5
f 345/2/5 340/2/5 339/2/5
f 346/2/5 340/2/5 345/2/5
f 347/3/5 342/3/5 341/3/5
f 348/3/5 342/3/5 347/3/5
f 350/3/5 349/3/5 348/3/5
f 351/3/5 349/3/5 350/3/5
f 353/3/5 352/3/5 351/3/5
f 354/3/5 352/3/5 353/3/5
f 355/3/5 352/3/5 354/3/5
f 356/3/5 352/3/5 355/3/5
f 357/2/5 354/2/5 353/2/5
f 358/2/5 354/2/5 357/2/5
f 359/2/5 356/2/5 355/2/5
f 360/2/5 356/2/5 359/2/5
f 361/1/5 359/1/5 358/1/5
f 362/1/5 359/1/5 361/1/5
f 369/2/5 364/2/5 363/2/5
f 370/2/5 364/2/5 369/2/5
f 371/2/5 366/2/5 365/2/5
f 372/2/5 366/2/5 371/2/5
f 373/2/5 368/2/5 367/2/5
f 374/2/5 368/2/5 373/2/5
f 381/3/5 376/3/5 375/3/5
f 382/3/5 376/3/5 381/3/5
f 383/2/5 378/2/5 377/2/5
f 384/2/5 378/2/5 383/2/5
f 385/2/5 380/2/5 379/2/5
f 386/2/5 380/2/5 385/2/5
f 387/2/5 382/2/5 381/2/5
f 388/2/5 382/2/5 387/2/5
f 389/3/5 387/3/5 386/3/5
f 390/3/5 387/3/5 389/3/5
f 393/3/5 392/3/5 391/3/5
f 394/3/5 392/3/5 393/3/5
f 399/2/5 396/2/5 395/2/5
f 400/2/5 396/2/5 399/2/5
f 401/2/5 398/2/5 397/2/5
f 402/2/5 398/2/5 401/2/5
f 407/2/5 404/2/5 403/2/5
f 408/2/5 404/2/5 407/2/5
f 409/2/5 406/2/5 405/2/5
f 410/2/5 406/2/5 409/2/5
f 411/3/6 412/3/6 413/3/6
f 413/3/6 412/3/6 414/3/6
f 414/3/6 415/3/6 416/3/6
f 416/3/6 415/3/6 417/3/6
f 418/1/6 419/1/6 420/1/6
f 420/1/6 419/1/6 421/1/6
f 422/2/6 423/2/6 428/2/6
f 428/2/6 423/2/6 429/2/6
f 424/2/6 425/2/6 430/2/6
f 430/2/6 425/2/6 431/2/6
f 426/3/6 427/3/6 432/3/6
f 432/3/6 427/3/6 433/3/6
f 434/3/6 435/3/6 440/3/6
f 440/3/6 435/3/6 441/3/6
f 436/2/6 437/2/6 442/2/6
f 442/2/6 437/2/6 443/2/6
f 438/2/6 439/2/6 444/2/6
f 444/2/6 439/2/6 445/2/6
f 445/3/6 446/3/6 447/3/6
f 447/3/6 446/3/6 448/3/6
f 449/3/6 450/3/6 451/3/6
f 451/3/6 450/3/6 452/3/6
f 453/2/6 454/2/6 455/2/6
f 455/2/6 454/2/6 456/2/6
f 457/2/6 458/2/6 463/2/6
f 463/2/6 458/2/6 464/2/6
f 459/2/6 460/2/6 465/2/6
f 465/2/6 460/2/6 466/2/6
f 461/2/6 462/2/6 467/2/6
f 467/2/6 462/2/6 468/2/6
f 469/3/6 470/3/6 474/3/6
f 474/3/6 470/3/6 475/3/6
f 471/1/6 472/1/6 476/1/6
f 472/2/6 473/2/6 477/2/6
f 476/1/6 472/1/6 477/1/6
f 477/2/6 473/2/6 478/2/6
f 479/2/6 480/2/6 483/2/6
f 483/2/6 480/2/6 484/2/6
f 481/2/6 482/2/6 485/2/6
f 485/2/6 482/2/6 486/2/6
f 487/3/6 488/3/6 489/3/6
f 489/3/6 488/3/6 490/3/6
