# MagicaVoxel @ Ephtracy

# group
o 

# material
mtllib deco_8.mtl
usemtl palette

# normals
vn -1 0 0
vn 1 0 0
vn 0 0 1
vn 0 0 -1
vn 0 -1 0
vn 0 1 0

# texcoords
vt 0.841797 0.5
vt 0.923828 0.5
vt 0.978516 0.5

# verts
v 0 0.4 -0.4
v 0 0.4 -0.6
v 0 0.5 -0.4
v 0 0.5 -0.6
v 0.1 0.4 -0.3
v 0.1 0.4 -0.4
v 0.1 0.4 -0.6
v 0.1 0.4 -0.7
v 0.1 0.5 -0.3
v 0.1 0.5 -0.4
v 0.1 0.5 -0.6
v 0.1 0.5 -0.7
v 0.1 0.8 -0.4
v 0.1 0.8 -0.6
v 0.2 0.4 -0.1
v 0.2 0.4 -0.2
v 0.2 0.5 -0.1
v 0.2 0.5 -0.2
v 0.2 0.8 -0.4
v 0.2 0.8 -0.6
v 0.2 0.9 -0.4
v 0.2 0.9 -0.6
v 0.3 0.4 0
v 0.3 0.4 -0.1
v 0.3 0.4 -0.2
v 0.3 0.4 -0.3
v 0.3 0.4 -0.4
v 0.3 0.4 -0.6
v 0.3 0.5 0
v 0.3 0.5 -0.1
v 0.3 0.5 -0.2
v 0.3 0.5 -0.3
v 0.3 0.5 -0.4
v 0.3 0.5 -0.6
v 0.3 0.6 -0.1
v 0.3 0.6 -0.2
v 0.4 0.4 -0.1
v 0.4 0.4 -0.2
v 0.4 0.5 -0.1
v 0.4 0.5 -0.2
v 0.4 0.6 -0.1
v 0.4 0.6 -0.2
v 0.4 0.7 -0.1
v 0.4 0.7 -0.2
v 0.5 0.6 -0.4
v 0.5 0.6 -0.6
v 0.5 0.7 -0.3
v 0.5 0.7 -0.4
v 0.5 0.7 -0.6
v 0.5 0.7 -0.7
v 0.5 0.9 -0.3
v 0.5 0.9 -0.4
v 0.5 0.9 -0.6
v 0.5 0.9 -0.7
v 0.5 1 -0.4
v 0.5 1 -0.6
v 0.6 0.4 -0.1
v 0.6 0.4 -0.2
v 0.6 0.5 -0.1
v 0.6 0.5 -0.2
v 0.7 0.4 0
v 0.7 0.4 -0.1
v 0.7 0.4 -0.2
v 0.7 0.4 -0.3
v 0.7 0.5 0
v 0.7 0.5 -0.1
v 0.7 0.5 -0.2
v 0.7 0.5 -0.3
v 0.7 0.6 -0.1
v 0.7 0.6 -0.2
v 0.8 0.4 -0.1
v 0.8 0.4 -0.2
v 0.8 0.5 -0.1
v 0.8 0.5 -0.2
v 0.1 0.4 -0.4
v 0.1 0.4 -0.6
v 0.1 0.5 -0.4
v 0.1 0.5 -0.6
v 0.3 0.4 -0.1
v 0.3 0.4 -0.2
v 0.3 0.4 -0.3
v 0.3 0.4 -0.4
v 0.3 0.4 -0.6
v 0.3 0.4 -0.7
v 0.3 0.5 -0.1
v 0.3 0.5 -0.2
v 0.3 0.5 -0.3
v 0.3 0.5 -0.4
v 0.3 0.5 -0.6
v 0.3 0.5 -0.7
v 0.3 0.7 -0.4
v 0.3 0.7 -0.6
v 0.4 0.4 0
v 0.4 0.4 -0.1
v 0.4 0.4 -0.2
v 0.4 0.4 -0.3
v 0.4 0.4 -0.4
v 0.4 0.4 -0.6
v 0.4 0.5 0
v 0.4 0.5 -0.1
v 0.4 0.5 -0.2
v 0.4 0.5 -0.3
v 0.4 0.5 -0.4
v 0.4 0.5 -0.6
v 0.4 0.6 -0.1
v 0.4 0.6 -0.2
v 0.5 0.4 -0.1
v 0.5 0.4 -0.2
v 0.5 0.5 -0.1
v 0.5 0.5 -0.2
v 0.5 0.7 -0.4
v 0.5 0.7 -0.6
v 0.5 0.9 -0.4
v 0.5 0.9 -0.6
v 0.6 0.6 -0.4
v 0.6 0.6 -0.6
v 0.6 0.7 -0.3
v 0.6 0.7 -0.4
v 0.6 0.7 -0.6
v 0.6 0.7 -0.7
v 0.6 0.9 -0.3
v 0.6 0.9 -0.4
v 0.6 0.9 -0.6
v 0.6 0.9 -0.7
v 0.6 1 -0.4
v 0.6 1 -0.6
v 0.7 0.4 -0.1
v 0.7 0.4 -0.2
v 0.7 0.5 -0.1
v 0.7 0.5 -0.2
v 0.7 0.6 -0.1
v 0.7 0.6 -0.2
v 0.7 0.7 -0.1
v 0.7 0.7 -0.2
v 0.8 0.4 0
v 0.8 0.4 -0.1
v 0.8 0.4 -0.2
v 0.8 0.4 -0.3
v 0.8 0.5 0
v 0.8 0.5 -0.1
v 0.8 0.5 -0.2
v 0.8 0.5 -0.3
v 0.8 0.6 -0.1
v 0.8 0.6 -0.2
v 0.9 0.4 -0.1
v 0.9 0.4 -0.2
v 0.9 0.5 -0.1
v 0.9 0.5 -0.2
v 0.3 0.4 0
v 0.3 0.5 0
v 0.4 0.4 0
v 0.4 0.5 0
v 0.7 0.4 0
v 0.7 0.5 0
v 0.8 0.4 0
v 0.8 0.5 0
v 0.2 0.4 -0.1
v 0.2 0.5 -0.1
v 0.3 0.4 -0.1
v 0.3 0.5 -0.1
v 0.3 0.6 -0.1
v 0.4 0.4 -0.1
v 0.4 0.5 -0.1
v 0.4 0.6 -0.1
v 0.4 0.7 -0.1
v 0.5 0.4 -0.1
v 0.5 0.5 -0.1
v 0.6 0.4 -0.1
v 0.6 0.5 -0.1
v 0.7 0.4 -0.1
v 0.7 0.5 -0.1
v 0.7 0.6 -0.1
v 0.7 0.7 -0.1
v 0.8 0.4 -0.1
v 0.8 0.5 -0.1
v 0.8 0.6 -0.1
v 0.9 0.4 -0.1
v 0.9 0.5 -0.1
v 0.3 0.4 -0.2
v 0.3 0.5 -0.2
v 0.4 0.4 -0.2
v 0.4 0.5 -0.2
v 0.7 0.4 -0.2
v 0.7 0.5 -0.2
v 0.8 0.4 -0.2
v 0.8 0.5 -0.2
v 0.1 0.4 -0.3
v 0.1 0.5 -0.3
v 0.3 0.4 -0.3
v 0.3 0.5 -0.3
v 0.5 0.7 -0.3
v 0.5 0.9 -0.3
v 0.6 0.7 -0.3
v 0.6 0.9 -0.3
v 0 0.4 -0.4
v 0 0.5 -0.4
v 0.1 0.4 -0.4
v 0.1 0.5 -0.4
v 0.1 0.8 -0.4
v 0.2 0.8 -0.4
v 0.2 0.9 -0.4
v 0.3 0.4 -0.4
v 0.3 0.5 -0.4
v 0.3 0.7 -0.4
v 0.4 0.4 -0.4
v 0.4 0.5 -0.4
v 0.5 0.6 -0.4
v 0.5 0.7 -0.4
v 0.5 0.9 -0.4
v 0.5 1 -0.4
v 0.6 0.6 -0.4
v 0.6 0.7 -0.4
v 0.6 0.9 -0.4
v 0.6 1 -0.4
v 0.1 0.4 -0.6
v 0.1 0.5 -0.6
v 0.3 0.4 -0.6
v 0.3 0.5 -0.6
v 0.5 0.7 -0.6
v 0.5 0.9 -0.6
v 0.6 0.7 -0.6
v 0.6 0.9 -0.6
v 0.3 0.4 -0.1
v 0.3 0.5 -0.1
v 0.4 0.4 -0.1
v 0.4 0.5 -0.1
v 0.7 0.4 -0.1
v 0.7 0.5 -0.1
v 0.8 0.4 -0.1
v 0.8 0.5 -0.1
v 0.2 0.4 -0.2
v 0.2 0.5 -0.2
v 0.3 0.4 -0.2
v 0.3 0.5 -0.2
v 0.3 0.6 -0.2
v 0.4 0.4 -0.2
v 0.4 0.5 -0.2
v 0.4 0.6 -0.2
v 0.4 0.7 -0.2
v 0.5 0.4 -0.2
v 0.5 0.5 -0.2
v 0.6 0.4 -0.2
v 0.6 0.5 -0.2
v 0.7 0.4 -0.2
v 0.7 0.5 -0.2
v 0.7 0.6 -0.2
v 0.7 0.7 -0.2
v 0.8 0.4 -0.2
v 0.8 0.5 -0.2
v 0.8 0.6 -0.2
v 0.9 0.4 -0.2
v 0.9 0.5 -0.2
v 0.3 0.4 -0.3
v 0.3 0.5 -0.3
v 0.4 0.4 -0.3
v 0.4 0.5 -0.3
v 0.7 0.4 -0.3
v 0.7 0.5 -0.3
v 0.8 0.4 -0.3
v 0.8 0.5 -0.3
v 0.1 0.4 -0.4
v 0.1 0.5 -0.4
v 0.3 0.4 -0.4
v 0.3 0.5 -0.4
v 0.5 0.7 -0.4
v 0.5 0.9 -0.4
v 0.6 0.7 -0.4
v 0.6 0.9 -0.4
v 0 0.4 -0.6
v 0 0.5 -0.6
v 0.1 0.4 -0.6
v 0.1 0.5 -0.6
v 0.1 0.8 -0.6
v 0.2 0.8 -0.6
v 0.2 0.9 -0.6
v 0.3 0.4 -0.6
v 0.3 0.5 -0.6
v 0.3 0.7 -0.6
v 0.4 0.4 -0.6
v 0.4 0.5 -0.6
v 0.5 0.6 -0.6
v 0.5 0.7 -0.6
v 0.5 0.9 -0.6
v 0.5 1 -0.6
v 0.6 0.6 -0.6
v 0.6 0.7 -0.6
v 0.6 0.9 -0.6
v 0.6 1 -0.6
v 0.1 0.4 -0.7
v 0.1 0.5 -0.7
v 0.3 0.4 -0.7
v 0.3 0.5 -0.7
v 0.5 0.7 -0.7
v 0.5 0.9 -0.7
v 0.6 0.7 -0.7
v 0.6 0.9 -0.7
v 0.3 0.4 0
v 0.4 0.4 0
v 0.7 0.4 0
v 0.8 0.4 0
v 0.2 0.4 -0.1
v 0.3 0.4 -0.1
v 0.4 0.4 -0.1
v 0.5 0.4 -0.1
v 0.6 0.4 -0.1
v 0.7 0.4 -0.1
v 0.8 0.4 -0.1
v 0.9 0.4 -0.1
v 0.2 0.4 -0.2
v 0.3 0.4 -0.2
v 0.4 0.4 -0.2
v 0.5 0.4 -0.2
v 0.6 0.4 -0.2
v 0.7 0.4 -0.2
v 0.8 0.4 -0.2
v 0.9 0.4 -0.2
v 0.1 0.4 -0.3
v 0.3 0.4 -0.3
v 0.4 0.4 -0.3
v 0.7 0.4 -0.3
v 0.8 0.4 -0.3
v 0 0.4 -0.4
v 0.1 0.4 -0.4
v 0.3 0.4 -0.4
v 0.4 0.4 -0.4
v 0 0.4 -0.6
v 0.1 0.4 -0.6
v 0.3 0.4 -0.6
v 0.4 0.4 -0.6
v 0.1 0.4 -0.7
v 0.3 0.4 -0.7
v 0.3 0.5 -0.1
v 0.4 0.5 -0.1
v 0.7 0.5 -0.1
v 0.8 0.5 -0.1
v 0.3 0.5 -0.2
v 0.4 0.5 -0.2
v 0.7 0.5 -0.2
v 0.8 0.5 -0.2
v 0.1 0.5 -0.4
v 0.3 0.5 -0.4
v 0.1 0.5 -0.6
v 0.3 0.5 -0.6
v 0.4 0.6 -0.1
v 0.7 0.6 -0.1
v 0.4 0.6 -0.2
v 0.7 0.6 -0.2
v 0.5 0.6 -0.4
v 0.6 0.6 -0.4
v 0.5 0.6 -0.6
v 0.6 0.6 -0.6
v 0.5 0.7 -0.3
v 0.6 0.7 -0.3
v 0.3 0.7 -0.4
v 0.5 0.7 -0.4
v 0.6 0.7 -0.4
v 0.3 0.7 -0.6
v 0.5 0.7 -0.6
v 0.6 0.7 -0.6
v 0.5 0.7 -0.7
v 0.6 0.7 -0.7
v 0.5 0.9 -0.4
v 0.6 0.9 -0.4
v 0.5 0.9 -0.6
v 0.6 0.9 -0.6
v 0.3 0.5 0
v 0.4 0.5 0
v 0.7 0.5 0
v 0.8 0.5 0
v 0.2 0.5 -0.1
v 0.3 0.5 -0.1
v 0.4 0.5 -0.1
v 0.5 0.5 -0.1
v 0.6 0.5 -0.1
v 0.7 0.5 -0.1
v 0.8 0.5 -0.1
v 0.9 0.5 -0.1
v 0.2 0.5 -0.2
v 0.3 0.5 -0.2
v 0.4 0.5 -0.2
v 0.5 0.5 -0.2
v 0.6 0.5 -0.2
v 0.7 0.5 -0.2
v 0.8 0.5 -0.2
v 0.9 0.5 -0.2
v 0.1 0.5 -0.3
v 0.3 0.5 -0.3
v 0.4 0.5 -0.3
v 0.7 0.5 -0.3
v 0.8 0.5 -0.3
v 0 0.5 -0.4
v 0.1 0.5 -0.4
v 0.3 0.5 -0.4
v 0.4 0.5 -0.4
v 0 0.5 -0.6
v 0.1 0.5 -0.6
v 0.3 0.5 -0.6
v 0.4 0.5 -0.6
v 0.1 0.5 -0.7
v 0.3 0.5 -0.7
v 0.3 0.6 -0.1
v 0.4 0.6 -0.1
v 0.7 0.6 -0.1
v 0.8 0.6 -0.1
v 0.3 0.6 -0.2
v 0.4 0.6 -0.2
v 0.7 0.6 -0.2
v 0.8 0.6 -0.2
v 0.4 0.7 -0.1
v 0.7 0.7 -0.1
v 0.4 0.7 -0.2
v 0.7 0.7 -0.2
v 0.5 0.7 -0.4
v 0.6 0.7 -0.4
v 0.5 0.7 -0.6
v 0.6 0.7 -0.6
v 0.1 0.8 -0.4
v 0.2 0.8 -0.4
v 0.1 0.8 -0.6
v 0.2 0.8 -0.6
v 0.5 0.9 -0.3
v 0.6 0.9 -0.3
v 0.2 0.9 -0.4
v 0.5 0.9 -0.4
v 0.6 0.9 -0.4
v 0.2 0.9 -0.6
v 0.5 0.9 -0.6
v 0.6 0.9 -0.6
v 0.5 0.9 -0.7
v 0.6 0.9 -0.7
v 0.5 1 -0.4
v 0.6 1 -0.4
v 0.5 1 -0.6
v 0.6 1 -0.6

# faces
f 3/3/1 2/3/1 1/3/1
f 4/3/1 2/3/1 3/3/1
f 9/3/1 6/3/1 5/3/1
f 10/3/1 6/3/1 9/3/1
f 11/3/1 8/3/1 7/3/1
f 12/3/1 8/3/1 11/3/1
f 13/2/1 11/2/1 10/2/1
f 14/2/1 11/2/1 13/2/1
f 17/3/1 16/3/1 15/3/1
f 18/3/1 16/3/1 17/3/1
f 21/2/1 20/2/1 19/2/1
f 22/2/1 20/2/1 21/2/1
f 29/3/1 24/3/1 23/3/1
f 30/3/1 24/3/1 29/3/1
f 31/3/1 26/3/1 25/3/1
f 32/3/1 26/3/1 31/3/1
f 33/3/1 28/3/1 27/3/1
f 34/3/1 28/3/1 33/3/1
f 35/1/1 31/1/1 30/1/1
f 36/1/1 31/1/1 35/1/1
f 39/3/1 38/3/1 37/3/1
f 40/3/1 38/3/1 39/3/1
f 43/1/1 42/1/1 41/1/1
f 44/1/1 42/1/1 43/1/1
f 48/3/1 46/3/1 45/3/1
f 49/3/1 46/3/1 48/3/1
f 51/3/1 48/3/1 47/3/1
f 52/3/1 48/3/1 51/3/1
f 53/3/1 50/3/1 49/3/1
f 54/3/1 50/3/1 53/3/1
f 55/3/1 53/3/1 52/3/1
f 56/3/1 53/3/1 55/3/1
f 59/3/1 58/3/1 57/3/1
f 60/3/1 58/3/1 59/3/1
f 65/3/1 62/3/1 61/3/1
f 66/3/1 62/3/1 65/3/1
f 67/3/1 64/3/1 63/3/1
f 68/3/1 64/3/1 67/3/1
f 69/1/1 67/1/1 66/1/1
f 70/1/1 67/1/1 69/1/1
f 73/3/1 72/3/1 71/3/1
f 74/3/1 72/3/1 73/3/1
f 75/3/2 76/3/2 77/3/2
f 77/3/2 76/3/2 78/3/2
f 79/3/2 80/3/2 85/3/2
f 85/3/2 80/3/2 86/3/2
f 81/3/2 82/3/2 87/3/2
f 87/3/2 82/3/2 88/3/2
f 83/3/2 84/3/2 89/3/2
f 89/3/2 84/3/2 90/3/2
f 88/2/2 89/2/2 91/2/2
f 91/2/2 89/2/2 92/2/2
f 93/3/2 94/3/2 99/3/2
f 99/3/2 94/3/2 100/3/2
f 95/3/2 96/3/2 101/3/2
f 101/3/2 96/3/2 102/3/2
f 97/3/2 98/3/2 103/3/2
f 103/3/2 98/3/2 104/3/2
f 100/1/2 101/1/2 105/1/2
f 105/1/2 101/1/2 106/1/2
f 107/3/2 108/3/2 109/3/2
f 109/3/2 108/3/2 110/3/2
f 111/2/2 112/2/2 113/2/2
f 113/2/2 112/2/2 114/2/2
f 115/3/2 116/3/2 118/3/2
f 118/3/2 116/3/2 119/3/2
f 117/3/2 118/3/2 121/3/2
f 121/3/2 118/3/2 122/3/2
f 119/3/2 120/3/2 123/3/2
f 123/3/2 120/3/2 124/3/2
f 122/3/2 123/3/2 125/3/2
f 125/3/2 123/3/2 126/3/2
f 127/3/2 128/3/2 129/3/2
f 129/3/2 128/3/2 130/3/2
f 131/1/2 132/1/2 133/1/2
f 133/1/2 132/1/2 134/1/2
f 135/3/2 136/3/2 139/3/2
f 139/3/2 136/3/2 140/3/2
f 137/3/2 138/3/2 141/3/2
f 141/3/2 138/3/2 142/3/2
f 140/1/2 141/1/2 143/1/2
f 143/1/2 141/1/2 144/1/2
f 145/3/2 146/3/2 147/3/2
f 147/3/2 146/3/2 148/3/2
f 151/3/3 150/3/3 149/3/3
f 152/3/3 150/3/3 151/3/3
f 155/3/3 154/3/3 153/3/3
f 156/3/3 154/3/3 155/3/3
f 159/3/3 158/3/3 157/3/3
f 160/3/3 158/3/3 159/3/3
f 163/1/3 161/1/3 160/1/3
f 164/1/3 161/1/3 163/1/3
f 166/3/3 163/3/3 162/3/3
f 167/3/3 163/3/3 166/3/3
f 170/3/3 169/3/3 168/3/3
f 171/3/3 169/3/3 170/3/3
f 172/1/3 165/1/3 164/1/3
f 173/1/3 165/1/3 172/1/3
f 175/1/3 172/1/3 171/1/3
f 176/1/3 172/1/3 175/1/3
f 177/3/3 175/3/3 174/3/3
f 178/3/3 175/3/3 177/3/3
f 181/3/3 180/3/3 179/3/3
f 182/3/3 180/3/3 181/3/3
f 185/3/3 184/3/3 183/3/3
f 186/3/3 184/3/3 185/3/3
f 189/3/3 188/3/3 187/3/3
f 190/3/3 188/3/3 189/3/3
f 193/3/3 192/3/3 191/3/3
f 194/3/3 192/3/3 193/3/3
f 197/3/3 196/3/3 195/3/3
f 198/3/3 196/3/3 197/3/3
f 200/2/3 199/2/3 198/2/3
f 203/2/3 200/2/3 198/2/3
f 203/2/3 201/2/3 200/2/3
f 204/2/3 201/2/3 203/2/3
f 205/3/3 203/3/3 202/3/3
f 206/3/3 203/3/3 205/3/3
f 208/2/3 201/2/3 204/2/3
f 209/2/3 201/2/3 208/2/3
f 211/3/3 208/3/3 207/3/3
f 212/3/3 208/3/3 211/3/3
f 213/3/3 210/3/3 209/3/3
f 214/3/3 210/3/3 213/3/3
f 217/3/3 216/3/3 215/3/3
f 218/3/3 216/3/3 217/3/3
f 221/3/3 220/3/3 219/3/3
f 222/3/3 220/3/3 221/3/3
f 223/3/4 224/3/4 225/3/4
f 225/3/4 224/3/4 226/3/4
f 227/3/4 228/3/4 229/3/4
f 229/3/4 228/3/4 230/3/4
f 231/3/4 232/3/4 233/3/4
f 233/3/4 232/3/4 234/3/4
f 234/1/4 235/1/4 237/1/4
f 237/1/4 235/1/4 238/1/4
f 236/3/4 237/3/4 240/3/4
f 240/3/4 237/3/4 241/3/4
f 242/3/4 243/3/4 244/3/4
f 244/3/4 243/3/4 245/3/4
f 238/1/4 239/1/4 246/1/4
f 246/1/4 239/1/4 247/1/4
f 245/1/4 246/1/4 249/1/4
f 249/1/4 246/1/4 250/1/4
f 248/3/4 249/3/4 251/3/4
f 251/3/4 249/3/4 252/3/4
f 253/3/4 254/3/4 255/3/4
f 255/3/4 254/3/4 256/3/4
f 257/3/4 258/3/4 259/3/4
f 259/3/4 258/3/4 260/3/4
f 261/3/4 262/3/4 263/3/4
f 263/3/4 262/3/4 264/3/4
f 265/3/4 266/3/4 267/3/4
f 267/3/4 266/3/4 268/3/4
f 269/3/4 270/3/4 271/3/4
f 271/3/4 270/3/4 272/3/4
f 272/2/4 273/2/4 274/2/4
f 272/2/4 274/2/4 277/2/4
f 274/2/4 275/2/4 277/2/4
f 277/2/4 275/2/4 278/2/4
f 276/3/4 277/3/4 279/3/4
f 279/3/4 277/3/4 280/3/4
f 278/2/4 275/2/4 282/2/4
f 282/2/4 275/2/4 283/2/4
f 281/3/4 282/3/4 285/3/4
f 285/3/4 282/3/4 286/3/4
f 283/3/4 284/3/4 287/3/4
f 287/3/4 284/3/4 288/3/4
f 289/3/4 290/3/4 291/3/4
f 291/3/4 290/3/4 292/3/4
f 293/3/4 294/3/4 295/3/4
f 295/3/4 294/3/4 296/3/4
f 302/3/5 298/3/5 297/3/5
f 303/3/5 298/3/5 302/3/5
f 306/3/5 300/3/5 299/3/5
f 307/3/5 300/3/5 306/3/5
f 309/3/5 302/3/5 301/3/5
f 310/3/5 302/3/5 309/3/5
f 311/3/5 304/3/5 303/3/5
f 312/3/5 304/3/5 311/3/5
f 313/3/5 306/3/5 305/3/5
f 314/3/5 306/3/5 313/3/5
f 315/3/5 308/3/5 307/3/5
f 316/3/5 308/3/5 315/3/5
f 318/3/5 311/3/5 310/3/5
f 319/3/5 311/3/5 318/3/5
f 320/3/5 315/3/5 314/3/5
f 321/3/5 315/3/5 320/3/5
f 323/3/5 318/3/5 317/3/5
f 324/3/5 318/3/5 323/3/5
f 326/3/5 323/3/5 322/3/5
f 327/3/5 323/3/5 326/3/5
f 328/3/5 325/3/5 324/3/5
f 329/3/5 325/3/5 328/3/5
f 330/3/5 328/3/5 327/3/5
f 331/3/5 328/3/5 330/3/5
f 336/1/5 333/1/5 332/1/5
f 337/1/5 333/1/5 336/1/5
f 338/1/5 335/1/5 334/1/5
f 339/1/5 335/1/5 338/1/5
f 342/2/5 341/2/5 340/2/5
f 343/2/5 341/2/5 342/2/5
f 346/1/5 345/1/5 344/1/5
f 347/1/5 345/1/5 346/1/5
f 350/3/5 349/3/5 348/3/5
f 351/3/5 349/3/5 350/3/5
f 355/3/5 353/3/5 352/3/5
f 356/3/5 353/3/5 355/3/5
f 357/2/5 355/2/5 354/2/5
f 358/2/5 355/2/5 357/2/5
f 360/3/5 359/3/5 358/3/5
f 361/3/5 359/3/5 360/3/5
f 364/3/5 363/3/5 362/3/5
f 365/3/5 363/3/5 364/3/5
f 366/3/6 367/3/6 371/3/6
f 371/3/6 367/3/6 372/3/6
f 368/3/6 369/3/6 375/3/6
f 375/3/6 369/3/6 376/3/6
f 370/3/6 371/3/6 378/3/6
f 378/3/6 371/3/6 379/3/6
f 372/3/6 373/3/6 380/3/6
f 380/3/6 373/3/6 381/3/6
f 374/3/6 375/3/6 382/3/6
f 382/3/6 375/3/6 383/3/6
f 376/3/6 377/3/6 384/3/6
f 384/3/6 377/3/6 385/3/6
f 379/3/6 380/3/6 387/3/6
f 387/3/6 380/3/6 388/3/6
f 383/3/6 384/3/6 389/3/6
f 389/3/6 384/3/6 390/3/6
f 386/3/6 387/3/6 392/3/6
f 392/3/6 387/3/6 393/3/6
f 391/3/6 392/3/6 395/3/6
f 395/3/6 392/3/6 396/3/6
f 393/3/6 394/3/6 397/3/6
f 397/3/6 394/3/6 398/3/6
f 396/3/6 397/3/6 399/3/6
f 399/3/6 397/3/6 400/3/6
f 401/1/6 402/1/6 405/1/6
f 405/1/6 402/1/6 406/1/6
f 403/1/6 404/1/6 407/1/6
f 407/1/6 404/1/6 408/1/6
f 409/1/6 410/1/6 411/1/6
f 411/1/6 410/1/6 412/1/6
f 413/3/6 414/3/6 415/3/6
f 415/3/6 414/3/6 416/3/6
f 417/2/6 418/2/6 419/2/6
f 419/2/6 418/2/6 420/2/6
f 421/3/6 422/3/6 424/3/6
f 424/3/6 422/3/6 425/3/6
f 423/2/6 424/2/6 426/2/6
f 426/2/6 424/2/6 427/2/6
f 427/3/6 428/3/6 429/3/6
f 429/3/6 428/3/6 430/3/6
f 431/3/6 432/3/6 433/3/6
f 433/3/6 432/3/6 434/3/6
