# MagicaVoxel @ Ephtracy

# group
o 

# material
mtllib magnet hand.mtl
usemtl palette

# normals
vn -1 0 0
vn 1 0 0
vn 0 0 1
vn 0 0 -1
vn 0 -1 0
vn 0 1 0

# texcoords
vt 0.552734 0.5
vt 0.822266 0.5
vt 0.841797 0.5
vt 0.986328 0.5

# verts
v 0.1 0.8 -0.3
v 0.1 0.8 -0.5
v 0.1 1.1 -0.3
v 0.1 1.1 -0.5
v 0.1 1.2 -0.3
v 0.1 1.2 -0.5
v 0.2 0.5 -0.2
v 0.2 0.5 -0.4
v 0.2 0.7 -0.3
v 0.2 0.7 -0.4
v 0.2 0.7 -0.5
v 0.2 0.8 -0.2
v 0.2 0.8 -0.3
v 0.2 0.8 -0.5
v 0.3 0.4 -0.3
v 0.3 0.4 -0.5
v 0.3 0.5 -0.3
v 0.3 0.5 -0.4
v 0.3 0.6 -0.4
v 0.3 0.6 -0.5
v 0.4 0.7 -0.2
v 0.4 0.7 -0.3
v 0.4 0.8 -0.2
v 0.4 0.8 -0.3
v 0.4 0.9 -0.3
v 0.4 0.9 -0.5
v 0.4 1.1 -0.3
v 0.4 1.1 -0.5
v 0.4 1.2 -0.3
v 0.4 1.2 -0.5
v 0.3 0.7 -0.2
v 0.3 0.7 -0.3
v 0.3 0.8 -0.2
v 0.3 0.8 -0.3
v 0.3 0.9 -0.3
v 0.3 0.9 -0.5
v 0.3 1.1 -0.3
v 0.3 1.1 -0.5
v 0.3 1.2 -0.3
v 0.3 1.2 -0.5
v 0.4 0.4 -0.3
v 0.4 0.4 -0.5
v 0.4 0.5 -0.3
v 0.4 0.5 -0.4
v 0.4 0.6 -0.4
v 0.4 0.6 -0.5
v 0.5 0.5 -0.2
v 0.5 0.5 -0.4
v 0.5 0.7 -0.3
v 0.5 0.7 -0.4
v 0.5 0.7 -0.5
v 0.5 0.8 -0.2
v 0.5 0.8 -0.3
v 0.5 0.8 -0.5
v 0.6 0.8 -0.3
v 0.6 0.8 -0.5
v 0.6 1.1 -0.3
v 0.6 1.1 -0.5
v 0.6 1.2 -0.3
v 0.6 1.2 -0.5
v 0.2 0.5 -0.2
v 0.2 0.8 -0.2
v 0.3 0.7 -0.2
v 0.3 0.8 -0.2
v 0.4 0.7 -0.2
v 0.4 0.8 -0.2
v 0.5 0.5 -0.2
v 0.5 0.8 -0.2
v 0.1 0.8 -0.3
v 0.1 1.1 -0.3
v 0.1 1.2 -0.3
v 0.2 0.8 -0.3
v 0.3 0.4 -0.3
v 0.3 0.5 -0.3
v 0.3 0.7 -0.3
v 0.3 0.8 -0.3
v 0.3 0.9 -0.3
v 0.3 1.1 -0.3
v 0.3 1.2 -0.3
v 0.4 0.4 -0.3
v 0.4 0.5 -0.3
v 0.4 0.7 -0.3
v 0.4 0.8 -0.3
v 0.4 0.9 -0.3
v 0.4 1.1 -0.3
v 0.4 1.2 -0.3
v 0.5 0.8 -0.3
v 0.6 0.8 -0.3
v 0.6 1.1 -0.3
v 0.6 1.2 -0.3
v 0.2 0.5 -0.4
v 0.2 0.7 -0.4
v 0.3 0.5 -0.4
v 0.3 0.6 -0.4
v 0.4 0.5 -0.4
v 0.4 0.6 -0.4
v 0.5 0.5 -0.4
v 0.5 0.7 -0.4
v 0.1 0.8 -0.5
v 0.1 1.1 -0.5
v 0.1 1.2 -0.5
v 0.2 0.7 -0.5
v 0.2 0.8 -0.5
v 0.3 0.4 -0.5
v 0.3 0.6 -0.5
v 0.3 0.9 -0.5
v 0.3 1.1 -0.5
v 0.3 1.2 -0.5
v 0.4 0.4 -0.5
v 0.4 0.6 -0.5
v 0.4 0.9 -0.5
v 0.4 1.1 -0.5
v 0.4 1.2 -0.5
v 0.5 0.7 -0.5
v 0.5 0.8 -0.5
v 0.6 0.8 -0.5
v 0.6 1.1 -0.5
v 0.6 1.2 -0.5
v 0.3 0.4 -0.3
v 0.4 0.4 -0.3
v 0.3 0.4 -0.5
v 0.4 0.4 -0.5
v 0.2 0.5 -0.2
v 0.5 0.5 -0.2
v 0.3 0.5 -0.3
v 0.4 0.5 -0.3
v 0.2 0.5 -0.4
v 0.3 0.5 -0.4
v 0.4 0.5 -0.4
v 0.5 0.5 -0.4
v 0.2 0.7 -0.4
v 0.5 0.7 -0.4
v 0.2 0.7 -0.5
v 0.5 0.7 -0.5
v 0.1 0.8 -0.3
v 0.2 0.8 -0.3
v 0.5 0.8 -0.3
v 0.6 0.8 -0.3
v 0.1 0.8 -0.5
v 0.2 0.8 -0.5
v 0.5 0.8 -0.5
v 0.6 0.8 -0.5
v 0.3 0.6 -0.4
v 0.4 0.6 -0.4
v 0.3 0.6 -0.5
v 0.4 0.6 -0.5
v 0.3 0.7 -0.2
v 0.4 0.7 -0.2
v 0.3 0.7 -0.3
v 0.4 0.7 -0.3
v 0.2 0.8 -0.2
v 0.3 0.8 -0.2
v 0.4 0.8 -0.2
v 0.5 0.8 -0.2
v 0.2 0.8 -0.3
v 0.3 0.8 -0.3
v 0.4 0.8 -0.3
v 0.5 0.8 -0.3
v 0.3 0.9 -0.3
v 0.4 0.9 -0.3
v 0.3 0.9 -0.5
v 0.4 0.9 -0.5
v 0.1 1.2 -0.3
v 0.3 1.2 -0.3
v 0.4 1.2 -0.3
v 0.6 1.2 -0.3
v 0.1 1.2 -0.5
v 0.3 1.2 -0.5
v 0.4 1.2 -0.5
v 0.6 1.2 -0.5

# faces
f 3/4/1 2/4/1 1/4/1
f 4/4/1 2/4/1 3/4/1
f 5/3/1 4/3/1 3/3/1
f 6/3/1 4/3/1 5/3/1
f 9/1/1 8/1/1 7/1/1
f 10/1/1 8/1/1 9/1/1
f 12/1/1 9/1/1 7/1/1
f 13/4/1 11/4/1 10/4/1
f 13/1/1 9/1/1 12/1/1
f 13/4/1 10/4/1 9/4/1
f 14/4/1 11/4/1 13/4/1
f 17/1/1 16/1/1 15/1/1
f 18/1/1 16/1/1 17/1/1
f 19/1/1 16/1/1 18/1/1
f 20/1/1 16/1/1 19/1/1
f 23/1/1 22/1/1 21/1/1
f 24/1/1 22/1/1 23/1/1
f 27/4/1 26/4/1 25/4/1
f 28/4/1 26/4/1 27/4/1
f 29/2/1 28/2/1 27/2/1
f 30/2/1 28/2/1 29/2/1
f 31/1/2 32/1/2 33/1/2
f 33/1/2 32/1/2 34/1/2
f 35/4/2 36/4/2 37/4/2
f 37/4/2 36/4/2 38/4/2
f 37/3/2 38/3/2 39/3/2
f 39/3/2 38/3/2 40/3/2
f 41/1/2 42/1/2 43/1/2
f 43/1/2 42/1/2 44/1/2
f 44/1/2 42/1/2 45/1/2
f 45/1/2 42/1/2 46/1/2
f 47/1/2 48/1/2 49/1/2
f 49/1/2 48/1/2 50/1/2
f 47/1/2 49/1/2 52/1/2
f 50/4/2 51/4/2 53/4/2
f 52/1/2 49/1/2 53/1/2
f 49/4/2 50/4/2 53/4/2
f 53/4/2 51/4/2 54/4/2
f 55/4/2 56/4/2 57/4/2
f 57/4/2 56/4/2 58/4/2
f 57/2/2 58/2/2 59/2/2
f 59/2/2 58/2/2 60/2/2
f 63/1/3 62/1/3 61/1/3
f 64/1/3 62/1/3 63/1/3
f 65/1/3 63/1/3 61/1/3
f 67/1/3 65/1/3 61/1/3
f 67/1/3 66/1/3 65/1/3
f 68/1/3 66/1/3 67/1/3
f 72/4/3 70/4/3 69/4/3
f 76/4/3 70/4/3 72/4/3
f 77/4/3 70/4/3 76/4/3
f 78/3/3 71/3/3 70/3/3
f 78/4/3 70/4/3 77/4/3
f 79/3/3 71/3/3 78/3/3
f 80/1/3 74/1/3 73/1/3
f 81/1/3 74/1/3 80/1/3
f 82/4/3 77/4/3 76/4/3
f 82/4/3 76/4/3 75/4/3
f 83/4/3 77/4/3 82/4/3
f 84/4/3 77/4/3 83/4/3
f 87/4/3 85/4/3 84/4/3
f 87/4/3 84/4/3 83/4/3
f 88/4/3 85/4/3 87/4/3
f 89/2/3 86/2/3 85/2/3
f 89/4/3 85/4/3 88/4/3
f 90/2/3 86/2/3 89/2/3
f 91/1/4 92/1/4 93/1/4
f 93/1/4 92/1/4 94/1/4
f 94/1/4 92/1/4 96/1/4
f 95/1/4 96/1/4 97/1/4
f 96/1/4 92/1/4 98/1/4
f 97/1/4 96/1/4 98/1/4
f 99/4/4 100/4/4 103/4/4
f 103/4/4 100/4/4 106/4/4
f 102/4/4 103/4/4 106/4/4
f 100/3/4 101/3/4 107/3/4
f 106/4/4 100/4/4 107/4/4
f 107/3/4 101/3/4 108/3/4
f 104/1/4 105/1/4 109/1/4
f 109/1/4 105/1/4 110/1/4
f 102/4/4 106/4/4 111/4/4
f 102/4/4 111/4/4 114/4/4
f 111/4/4 112/4/4 114/4/4
f 114/4/4 112/4/4 115/4/4
f 115/4/4 112/4/4 116/4/4
f 112/2/4 113/2/4 117/2/4
f 116/4/4 112/4/4 117/4/4
f 117/2/4 113/2/4 118/2/4
f 121/1/5 120/1/5 119/1/5
f 122/1/5 120/1/5 121/1/5
f 125/1/5 124/1/5 123/1/5
f 126/1/5 124/1/5 125/1/5
f 127/1/5 125/1/5 123/1/5
f 128/1/5 125/1/5 127/1/5
f 129/1/5 124/1/5 126/1/5
f 130/1/5 124/1/5 129/1/5
f 133/4/5 132/4/5 131/4/5
f 134/4/5 132/4/5 133/4/5
f 139/4/5 136/4/5 135/4/5
f 140/4/5 136/4/5 139/4/5
f 141/4/5 138/4/5 137/4/5
f 142/4/5 138/4/5 141/4/5
f 143/1/6 144/1/6 145/1/6
f 145/1/6 144/1/6 146/1/6
f 147/1/6 148/1/6 149/1/6
f 149/1/6 148/1/6 150/1/6
f 151/1/6 152/1/6 155/1/6
f 155/1/6 152/1/6 156/1/6
f 153/1/6 154/1/6 157/1/6
f 157/1/6 154/1/6 158/1/6
f 159/4/6 160/4/6 161/4/6
f 161/4/6 160/4/6 162/4/6
f 163/3/6 164/3/6 167/3/6
f 167/3/6 164/3/6 168/3/6
f 165/2/6 166/2/6 169/2/6
f 169/2/6 166/2/6 170/2/6
